<svg width="54" height="48" viewBox="0 0 54 48" fill="none" xmlns="http://www.w3.org/2000/svg">
<g clip-path="url(#clip0_0_9561)">
<mask id="mask0_0_9561" style="mask-type:luminance" maskUnits="userSpaceOnUse" x="0" y="0" width="54" height="48">
<path d="M0 0H53.744V48H0V0Z" fill="white"/>
</mask>
<g mask="url(#mask0_0_9561)">
<path d="M29.599 5.37805C30.61 5.69505 31.646 5.91805 32.678 6.15905C33.356 6.31805 34.034 6.48105 34.712 6.64405L35.547 6.84405L36.179 6.99705L38.299 7.50505L39.128 7.70505L39.331 7.75305L40.689 8.08005L41.054 8.16705L41.755 8.33705C42.301 8.46705 42.846 8.59705 43.393 8.72105L43.699 8.79105L44.266 8.92005C44.478 8.96905 44.688 9.02605 44.897 9.08605L45 9.29005C42.4428 10.2793 39.8808 11.256 37.314 12.2201C37.236 12.2481 37.158 12.278 37.078 12.3081C35.48 12.9101 33.881 13.5111 32.282 14.1101C34.086 13.7701 35.885 13.4081 37.682 13.0301L38.985 12.7571C40.9053 12.3568 42.8253 11.9552 44.745 11.5521L46.04 11.2811L47.03 11.0741L47.389 10.9981L47.719 10.9301L48.005 10.8701C48.282 10.8281 48.282 10.8281 48.897 10.8281V35.1361L43.974 36.8791L40.884 37.9761L40.09 38.258L38.653 38.7681L35.908 39.7421L35.695 39.8171C35.345 39.9421 34.994 40.067 34.643 40.19L33.102 40.738L32.372 40.995C31.7852 41.2003 31.2012 41.4133 30.62 41.634C30.334 41.743 30.047 41.8501 29.76 41.9571C29.622 42.008 29.486 42.061 29.35 42.114C28.454 42.467 27.871 42.584 26.949 42.315L26.529 42.2121C26.012 42.0871 25.497 41.954 24.982 41.822L24.397 41.6721L22.831 41.271L21.198 40.8521C19.6228 40.4488 18.0478 40.0448 16.473 39.64C13.6925 38.9267 10.9125 38.2113 8.133 37.494L7.889 37.432L6.539 37.085C6.709 36.718 6.898 36.5121 7.205 36.2451L7.485 35.9991L7.769 35.7511L8.269 35.302L8.524 35.0731C8.825 34.8011 9.124 34.5261 9.424 34.2511C9.755 33.9461 10.088 33.6431 10.43 33.3471C10.853 32.9801 11.263 32.5991 11.674 32.2171C12.18 31.75 12.692 31.2871 13.205 30.8281C13.7595 30.3315 14.3108 29.8315 14.859 29.3281C15.191 29.0231 15.524 28.7201 15.865 28.4241C16.295 28.0531 16.709 27.6661 17.125 27.2801C17.422 27.0051 17.72 26.7341 18.025 26.4701C18.447 26.1041 18.855 25.7251 19.265 25.3461C19.77 24.8781 20.281 24.416 20.795 23.9561C21.3495 23.4596 21.9009 22.9596 22.449 22.4561C22.781 22.1511 23.114 21.8481 23.455 21.5521C23.885 21.1791 24.302 20.7921 24.719 20.4021C25.749 19.4441 25.749 19.4441 26.026 19.4441L26.056 19.706C26.5155 23.7109 26.9769 27.7156 27.44 31.7201C27.5459 32.6303 27.6509 33.5406 27.755 34.4511C27.775 34.6131 27.793 34.7761 27.811 34.9381L27.888 35.6011L27.931 35.9761C27.958 36.2591 27.958 36.2591 28.077 36.4691L28.083 36.1531C28.1762 31.302 28.2709 26.451 28.367 21.6001C28.3934 20.3007 28.4187 19.0014 28.443 17.7021C28.463 16.6721 28.493 15.6491 28.59 14.6231L28.182 14.5891C27.412 14.5121 26.652 14.3711 25.89 14.2361L25.387 14.1481L24.312 13.9581L22.612 13.6601L19.313 13.0801C16.8352 12.6438 14.3572 12.2088 11.879 11.7751C11.5324 11.7136 11.1858 11.6526 10.839 11.5921C10.539 11.5381 10.539 11.5381 10.231 11.5461C13.2736 12.691 16.315 13.8393 19.355 14.9911L20.111 15.2771C21.504 15.8051 22.895 16.3371 24.282 16.8791V17.1871C24.082 17.3761 24.082 17.376 23.802 17.5911C23.344 17.9521 22.912 18.3261 22.487 18.7261C22.0019 19.1779 21.4995 19.6109 20.981 20.0241C20.651 20.2981 20.338 20.5871 20.026 20.8791C19.5405 21.3313 19.0378 21.7646 18.519 22.1781C18.189 22.4521 17.877 22.7401 17.564 23.0331C17.078 23.4891 16.577 23.9151 16.058 24.3311C15.728 24.6061 15.415 24.8941 15.103 25.1871C14.617 25.6421 14.116 26.0681 13.596 26.4851C13.266 26.7601 12.954 27.0481 12.641 27.3411C12.1556 27.7926 11.6532 28.2256 11.135 28.6391C10.805 28.9131 10.492 29.2021 10.18 29.4951C9.69427 29.9466 9.19158 30.3796 8.673 30.7931C8.343 31.0671 8.031 31.3561 7.718 31.6491C7.22279 32.1112 6.71009 32.5542 6.181 32.9771C5.863 33.2361 5.557 33.507 5.252 33.7801C5.102 33.9051 5.102 33.9051 5 33.9051V10.1111C8.765 9.17005 8.765 9.17005 10.045 8.87405L10.811 8.69605C11.671 8.49505 12.534 8.29605 13.396 8.09805L14.946 7.74005L15.261 7.66705C16.7848 7.31303 18.3046 6.94167 19.82 6.55305C20.4688 6.38874 21.1182 6.22641 21.768 6.06605C22.2865 5.93782 22.8038 5.80515 23.32 5.66805C25.543 5.07605 27.35 4.66405 29.599 5.37805Z" fill="#F47321"/>
<path d="M27.897 0.205029L28.157 0.260029C28.41 0.315029 28.66 0.373029 28.911 0.432029L29.197 0.499029L30.137 0.719029C30.8549 0.887379 31.5729 1.05538 32.291 1.22303L35.859 2.05703L36.699 2.25303C38.931 2.77403 41.163 3.29103 43.395 3.80603L44.355 4.02703C47.1646 4.67662 49.9746 5.32428 52.785 5.97003L53.085 6.04003L53.345 6.10003C53.539 6.15403 53.539 6.15403 53.641 6.25603C53.651 6.42903 53.654 6.60203 53.654 6.77603V7.90003L53.653 9.00803V10.201L53.652 12.27L53.651 15.26C53.651 18.4484 53.6497 21.6367 53.647 24.825V26.575L53.641 38.667C53.583 38.687 53.526 38.709 53.466 38.731L51.624 39.407L50.942 39.657C47.8291 40.8004 44.7181 41.9491 41.609 43.103L41.319 43.209C40.129 43.649 38.939 44.089 37.749 44.527L37.379 44.664L35.516 45.349C33.6893 46.0208 31.8643 46.6971 30.041 47.378L29.492 47.582L29.244 47.675L29.014 47.76L28.817 47.833L28.615 47.897L28.389 47.97C27.976 48.013 27.614 47.902 27.219 47.793L26.951 47.723L26.063 47.483L25.433 47.316L23.727 46.858L21.937 46.38L19.025 45.601C17.801 45.273 16.577 44.948 15.352 44.623L15.084 44.553L14.033 44.274L12.241 43.8L11.985 43.732L11.475 43.596C8.82891 42.8938 6.18225 42.1938 3.535 41.496C2.80055 41.3018 2.06622 41.1071 1.332 40.912L0.955 40.813C0.634 40.723 0.317 40.618 0 40.513V6.25603C0.362902 6.12973 0.73166 6.02094 1.105 5.93003L1.389 5.86403L1.696 5.79303L2.026 5.71603L3.119 5.46303L3.902 5.28103L6.468 4.68603L6.688 4.63503L7.574 4.43003L9.844 3.90403L10.542 3.74203C13.1714 3.13438 15.7988 2.51771 18.424 1.89203L18.644 1.83903L19.732 1.58303C20.507 1.40003 21.282 1.21603 22.057 1.03003C22.6499 0.888375 23.2433 0.748375 23.837 0.610029L24.565 0.435029C24.896 0.355029 25.228 0.278029 25.56 0.201029L25.847 0.129029C26.575 -0.0339707 27.174 0.0430293 27.897 0.205029ZM25.496 2.74103C17.823 4.54986 10.145 6.3372 2.462 8.10303V38.667C6.94841 39.8704 11.4374 41.0641 15.929 42.248L16.271 42.338C17.863 42.759 19.453 43.185 21.041 43.614L22.023 43.879C22.9494 44.1283 23.8754 44.379 24.801 44.631C25.175 44.733 25.549 44.834 25.924 44.934L26.441 45.075C26.676 45.14 26.911 45.203 27.146 45.265C27.248 45.295 27.248 45.295 27.351 45.323C27.951 45.48 28.414 45.385 28.984 45.175L29.254 45.077L29.544 44.969L29.855 44.855L30.872 44.481L31.592 44.216C32.344 43.94 33.095 43.662 33.846 43.385L34.2 43.254C35.225 42.874 36.25 42.496 37.274 42.115C38.951 41.493 40.629 40.875 42.308 40.256C44.7774 39.3473 47.2458 38.4356 49.713 37.521L50.016 37.409L50.296 37.306L50.536 37.216C50.786 37.122 51.034 37.022 51.282 36.923V8.20503C50.9676 8.07174 50.6429 7.96438 50.311 7.88403L50.041 7.82103L49.748 7.75403L49.434 7.68103L48.394 7.44103C47.5462 7.24648 46.6986 7.05148 45.851 6.85603L42.483 6.08003L41.401 5.83003C39.431 5.37703 37.464 4.92003 35.497 4.46003L33.199 3.92303L31.379 3.49603C30.604 3.31316 29.8287 3.13183 29.053 2.95203C28.7712 2.88525 28.4892 2.81925 28.207 2.75403L27.962 2.69403C27.099 2.49803 26.353 2.53803 25.496 2.74103Z" fill="#298CCC"/>
</g>
</g>
<defs>
<clipPath id="clip0_0_9561">
<rect width="54" height="48" fill="white"/>
</clipPath>
</defs>
</svg>
