<svg width="45" height="48" viewBox="0 0 45 48" fill="none" xmlns="http://www.w3.org/2000/svg">
<path d="M39.1091 38.5931C20.3455 47.576 8.70001 40.0606 1.25456 35.4937C0.790923 35.2194 0.0136499 35.5623 0.681832 36.3577C3.17729 39.3749 11.3182 46.6709 21.9273 46.6709C32.5637 46.6709 38.8773 40.8423 39.6682 39.8137C40.4591 38.8126 39.9 38.264 39.1227 38.5931H39.1091ZM44.3727 35.672C43.8818 35.0137 41.3182 34.8903 39.7091 35.0823C38.0864 35.2743 35.6727 36.2754 35.8909 36.8651C35.9864 37.0846 36.2046 36.9886 37.3227 36.8926C38.4273 36.7691 41.55 36.3851 42.1909 37.2354C42.8455 38.0994 41.1955 42.1726 40.8955 42.8446C40.6091 43.5029 41.0046 43.6674 41.55 43.2286C42.5056 42.349 43.2474 41.2605 43.7182 40.0469C44.3727 38.4286 44.7682 36.1657 44.3727 35.6583V35.672Z" fill="#FF9900"/>
<path d="M26.4953 18.4683C24.3035 18.4683 21.9653 18.6997 20.1613 19.6333C19.2501 20.1049 18.4651 20.7611 17.9103 21.6626C17.3553 22.5646 17.05 23.6813 17.05 25.0435C17.05 26.4335 17.4081 27.6533 18.1252 28.5356C18.8521 29.43 19.9121 29.9321 21.2043 29.9321C23.1175 29.9321 24.793 28.7524 25.8137 26.9341V26.9331C27.0604 24.7023 26.9953 22.605 26.9953 20.271V18.4683H26.4953ZM9.28143 26.0835C9.21743 24.0772 9.76884 22.0999 10.8596 20.4194C11.9503 18.7391 13.5276 17.4367 15.3781 16.689L15.3859 16.686L15.3937 16.6821C16.9685 15.9826 18.873 15.5624 20.84 15.2681C22.812 14.9731 24.7906 14.8113 26.5519 14.6099L26.9953 14.5591V13.3315C26.9953 12.6358 27.0236 11.8092 26.9435 11.0151C26.8628 10.2137 26.6681 9.3849 26.1887 8.66553L26.1877 8.66455L26.0178 8.43213C25.1258 7.31745 23.6423 6.87939 22.3908 6.87939C19.9291 6.87943 17.6253 8.16683 17.0607 10.9136L17.0588 10.9204L17.0578 10.9282C16.9858 11.3419 16.7235 11.5809 16.5109 11.6069L10.7658 10.9858C10.6079 10.9466 10.4656 10.8679 10.3762 10.7642C10.2976 10.6731 10.2353 10.5389 10.2687 10.313C10.9215 6.90566 12.7594 4.71049 15.1193 3.354C17.4972 1.98724 20.4265 1.46143 23.2365 1.46143C26.1039 1.46145 29.7759 2.23584 31.9426 4.3374L31.9484 4.34326C34.6749 6.90603 34.4367 10.2991 34.4367 14.3735V23.7954C34.4367 26.8197 35.719 28.1974 36.7922 29.7085L36.798 29.7163C36.9513 29.9238 37.0209 30.1258 37.0256 30.2808C37.0297 30.4186 36.9857 30.5279 36.8713 30.6206L36.8654 30.6265C35.745 31.5655 33.8386 33.2394 32.5988 34.3403L32.593 34.3345L32.2404 34.6323C32.1233 34.7315 31.979 34.7925 31.8273 34.8071C31.6868 34.8207 31.5463 34.7924 31.4201 34.729C29.5177 33.1471 29.1982 32.4254 28.093 30.8335L27.7463 30.3345L27.3234 30.771C25.7021 32.4422 24.3457 33.4927 22.8976 34.1333C21.4532 34.7723 19.8756 35.021 17.7814 35.021C15.3543 35.0209 13.2387 34.2691 11.7326 32.8071C10.2302 31.3486 9.28151 29.1325 9.28143 26.1001V26.0835Z" fill="#18181B" stroke="#18181B"/>
<path d="M39.1091 38.5931C20.3455 47.576 8.70001 40.0606 1.25456 35.4937C0.790923 35.2194 0.0136499 35.5623 0.681832 36.3577C3.17729 39.3749 11.3182 46.6709 21.9273 46.6709C32.5637 46.6709 38.8773 40.8423 39.6682 39.8137C40.4591 38.8126 39.9 38.264 39.1227 38.5931H39.1091ZM44.3727 35.672C43.8818 35.0137 41.3182 34.8903 39.7091 35.0823C38.0864 35.2743 35.6727 36.2754 35.8909 36.8651C35.9864 37.0846 36.2046 36.9886 37.3227 36.8926C38.4273 36.7691 41.55 36.3851 42.1909 37.2354C42.8455 38.0994 41.1955 42.1726 40.8955 42.8446C40.6091 43.5029 41.0046 43.6674 41.55 43.2286C42.5056 42.349 43.2474 41.2605 43.7182 40.0469C44.3727 38.4286 44.7682 36.1657 44.3727 35.6583V35.672Z" fill="#FF9900"/>
<path d="M26.4953 18.4683C24.3035 18.4683 21.9653 18.6997 20.1613 19.6333C19.2501 20.1049 18.4651 20.7611 17.9103 21.6626C17.3553 22.5646 17.05 23.6813 17.05 25.0435C17.05 26.4335 17.4081 27.6533 18.1252 28.5356C18.8521 29.43 19.9121 29.9321 21.2043 29.9321C23.1175 29.9321 24.793 28.7524 25.8137 26.9341V26.9331C27.0604 24.7023 26.9953 22.605 26.9953 20.271V18.4683H26.4953ZM9.28143 26.0835C9.21743 24.0772 9.76884 22.0999 10.8596 20.4194C11.9503 18.7391 13.5276 17.4367 15.3781 16.689L15.3859 16.686L15.3937 16.6821C16.9685 15.9826 18.873 15.5624 20.84 15.2681C22.812 14.9731 24.7906 14.8113 26.5519 14.6099L26.9953 14.5591V13.3315C26.9953 12.6358 27.0236 11.8092 26.9435 11.0151C26.8628 10.2137 26.6681 9.3849 26.1887 8.66553L26.1877 8.66455L26.0178 8.43213C25.1258 7.31745 23.6423 6.87939 22.3908 6.87939C19.9291 6.87943 17.6253 8.16683 17.0607 10.9136L17.0588 10.9204L17.0578 10.9282C16.9858 11.3419 16.7235 11.5809 16.5109 11.6069L10.7658 10.9858C10.6079 10.9466 10.4656 10.8679 10.3762 10.7642C10.2976 10.6731 10.2353 10.5389 10.2687 10.313C10.9215 6.90566 12.7594 4.71049 15.1193 3.354C17.4972 1.98724 20.4265 1.46143 23.2365 1.46143C26.1039 1.46145 29.7759 2.23584 31.9426 4.3374L31.9484 4.34326C34.6749 6.90603 34.4367 10.2991 34.4367 14.3735V23.7954C34.4367 26.8197 35.719 28.1974 36.7922 29.7085L36.798 29.7163C36.9513 29.9238 37.0209 30.1258 37.0256 30.2808C37.0297 30.4186 36.9857 30.5279 36.8713 30.6206L36.8654 30.6265C35.745 31.5655 33.8386 33.2394 32.5988 34.3403L32.593 34.3345L32.2404 34.6323C32.1233 34.7315 31.979 34.7925 31.8273 34.8071C31.6868 34.8207 31.5463 34.7924 31.4201 34.729C29.5177 33.1471 29.1982 32.4254 28.093 30.8335L27.7463 30.3345L27.3234 30.771C25.7021 32.4422 24.3457 33.4927 22.8976 34.1333C21.4532 34.7723 19.8756 35.021 17.7814 35.021C15.3543 35.0209 13.2387 34.2691 11.7326 32.8071C10.2302 31.3486 9.28151 29.1325 9.28143 26.1001V26.0835Z" fill="#18181B" stroke="#18181B"/>
</svg>
