<svg width="51" height="48" viewBox="0 0 51 48" fill="none" xmlns="http://www.w3.org/2000/svg">
<path fill-rule="evenodd" clip-rule="evenodd" d="M39.9075 25.8946C36.9656 25.8946 34.1442 27.0524 32.0639 29.1134C29.9837 31.1743 28.815 33.9695 28.815 36.8841C28.815 39.7987 29.9837 42.5939 32.0639 44.6548C34.1442 46.7157 36.9656 47.8736 39.9075 47.8736C42.8494 47.8736 45.6708 46.7157 47.7511 44.6548C49.8313 42.5939 51 39.7987 51 36.8841C51 33.9695 49.8313 31.1743 47.7511 29.1134C45.6708 27.0524 42.8494 25.8946 39.9075 25.8946ZM11.0925 25.8946C8.15059 25.8946 5.32917 27.0524 3.24892 29.1134C1.16867 31.1743 0 33.9695 0 36.8841C0 39.7987 1.16867 42.5939 3.24892 44.6548C5.32917 46.7157 8.15059 47.8736 11.0925 47.8736C14.0344 47.8736 16.8558 46.7157 18.9361 44.6548C21.0163 42.5939 22.185 39.7987 22.185 36.8841C22.185 33.9695 21.0163 31.1743 18.9361 29.1134C16.8558 27.0524 14.0344 25.8946 11.0925 25.8946ZM36.5925 12.1262C36.5925 13.5694 36.3056 14.9984 35.7481 16.3317C35.1907 17.665 34.3736 18.8765 33.3436 19.8969C32.3135 20.9174 31.0907 21.7269 29.7449 22.2791C28.3991 22.8314 26.9567 23.1157 25.5 23.1157C24.0433 23.1157 22.6009 22.8314 21.2551 22.2791C19.9093 21.7269 18.6865 20.9174 17.6564 19.8969C16.6264 18.8765 15.8093 17.665 15.2519 16.3317C14.6944 14.9984 14.4075 13.5694 14.4075 12.1262C14.4075 9.2116 15.5762 6.41639 17.6564 4.35546C19.7367 2.29453 22.5581 1.13672 25.5 1.13672C28.4419 1.13672 31.2633 2.29453 33.3436 4.35546C35.4238 6.41639 36.5925 9.2116 36.5925 12.1262Z" fill="#F06A6A"/>
</svg>
