<svg width="210" height="48" viewBox="0 0 210 48" fill="none" xmlns="http://www.w3.org/2000/svg">
<g clip-path="url(#clip0_0_8424)">
<mask id="mask0_0_8424" style="mask-type:luminance" maskUnits="userSpaceOnUse" x="-1" y="7" width="21" height="21">
<path d="M-0.0153198 7.29199H19.6075V27.1954H-0.0153198V7.29199Z" fill="white"/>
</mask>
<g mask="url(#mask0_0_8424)">
<path d="M5.94645 16.6282C5.94645 17.6234 6.27804 18.4666 6.93948 19.1651C7.60621 19.8653 8.42109 20.2127 9.37004 20.2127C10.3278 20.2127 11.141 19.8653 11.8095 19.1651C12.4709 18.4666 12.8025 17.6252 12.8025 16.6282C12.8025 15.6385 12.4709 14.7899 11.8095 14.0915C11.4958 13.7532 11.1169 13.4856 10.697 13.3055C10.277 13.1255 9.82511 13.037 9.37004 13.0457C8.41933 13.0457 7.6062 13.3913 6.9377 14.0915C6.61576 14.425 6.36222 14.8214 6.19197 15.257C6.02171 15.6927 5.93823 16.1589 5.94645 16.6282ZM12.7267 24.5028V24.2061C12.1675 24.7489 11.5484 25.1596 10.8517 25.4365C10.124 25.7122 9.35382 25.8508 8.57812 25.8454C6.15283 25.8454 4.11378 24.9551 2.45929 23.1728C0.806571 21.3996 -0.0206299 19.2157 -0.0206299 16.6282C-0.0206299 14.0408 0.806571 11.8642 2.45929 10.0837C4.11378 8.30148 6.15279 7.41846 8.57984 7.41846C9.39121 7.41846 10.1567 7.55239 10.8517 7.82199C11.5481 8.09779 12.1851 8.51087 12.7267 9.0379V8.72669C12.7267 8.48604 12.8025 8.28881 12.9472 8.1332C13.101 7.98327 13.3065 7.90195 13.5186 7.90703H17.8577C18.094 7.90703 18.2863 7.98483 18.438 8.1332C18.5111 8.21234 18.5682 8.30546 18.606 8.40731C18.6439 8.50916 18.6617 8.61774 18.6585 8.72669V24.5028C18.6604 24.6118 18.6405 24.72 18.6002 24.8208C18.5599 24.9216 18.4999 25.0129 18.4239 25.089C18.3555 25.1673 18.2717 25.2298 18.1781 25.2726C18.0844 25.3153 17.9831 25.3373 17.8806 25.3369H13.5539C13.446 25.3372 13.3391 25.3153 13.2394 25.2728C13.1398 25.2302 13.0494 25.1678 12.9736 25.089C12.8948 25.0144 12.8321 24.9237 12.7895 24.8228C12.747 24.7218 12.7256 24.6128 12.7267 24.5028Z" fill="#19303F"/>
</g>
<path d="M29.1108 20.4049C29.8893 20.4049 30.475 20.1786 30.8746 19.7193C31.2742 19.2597 31.4741 18.5883 31.4741 17.7048V8.62226C31.4741 8.42426 31.5567 8.25463 31.729 8.1063C31.9014 7.95783 32.0941 7.88713 32.3078 7.88713H36.5935C36.8071 7.88713 37 7.9577 37.1723 8.1063C37.3376 8.25463 37.4272 8.42426 37.4272 8.62226V18.5248C37.4272 20.6523 36.6762 22.4051 35.1743 23.7763C33.679 25.1546 31.6669 25.8402 29.1452 25.8402C26.6027 25.8402 24.5633 25.1476 23.0198 23.7621C21.4764 22.3768 20.7047 20.6309 20.7047 18.5248V8.62226C20.7047 8.42426 20.7874 8.25463 20.9529 8.1063C21.1181 7.95783 21.3043 7.88713 21.5178 7.88713H25.8104C26.024 7.88713 26.2169 7.9577 26.396 8.1063C26.5684 8.25463 26.658 8.42426 26.658 8.62226V17.7048C26.658 18.5671 26.8715 19.2315 27.2918 19.705C27.7191 20.1716 28.3254 20.4049 29.1108 20.4049ZM47.17 25.6635C45.3097 25.6635 43.8283 25.1617 42.712 24.1651C41.6027 23.1614 41.0446 21.7831 41.0446 20.0161V12.9268H39.2945C39.0808 12.9268 38.895 12.8494 38.7432 12.6794C38.5918 12.5167 38.5091 12.3188 38.5091 12.0786V10.8205C38.5091 10.4458 38.5435 10.149 38.6123 9.9157C38.6812 9.68947 38.8122 9.47044 38.9913 9.25832L43.215 4.45208C43.5801 4.04916 43.8764 3.7806 44.1176 3.66742C44.3587 3.54664 44.6688 3.48367 45.0477 3.48367H46.1846C46.4052 3.48367 46.5981 3.56102 46.7495 3.72401C46.908 3.87939 46.9839 4.07034 46.9839 4.30362V7.88713H50.7184C50.9388 7.88713 51.1318 7.96448 51.2902 8.12747C51.4489 8.28285 51.5313 8.4738 51.5313 8.70708V12.0786C51.5313 12.3188 51.4487 12.5168 51.2902 12.6794C51.1318 12.8489 50.9388 12.9268 50.7184 12.9268H46.9838V18.7367C46.9838 19.1608 47.0941 19.5001 47.3145 19.7404C47.5421 19.9878 47.8452 20.115 48.2242 20.115C48.4515 20.115 48.6859 20.0661 48.9407 19.9737C49.2026 19.8814 49.4919 19.7334 49.8227 19.5355C50.1534 19.3446 50.429 19.274 50.6564 19.3305C50.8905 19.3793 51.1043 19.5567 51.3041 19.8535L52.8061 22.1578C52.9715 22.4193 53.0542 22.6808 53.0403 22.9423C53.0336 23.2038 52.9302 23.4371 52.7441 23.6279C52.1378 24.264 51.3316 24.7588 50.3394 25.1194C49.3472 25.4798 48.293 25.6635 47.17 25.6635ZM62.9008 12.6801C62.0946 12.6801 61.4331 12.9416 60.9095 13.4575C60.3859 13.9806 60.1308 14.6732 60.1308 15.5496V24.4979C60.1308 24.7383 60.055 24.9362 59.9036 25.0917C59.7588 25.24 59.566 25.3179 59.3317 25.3179H54.9909C54.7568 25.3179 54.5636 25.2405 54.419 25.0917C54.2675 24.9363 54.1916 24.7383 54.1916 24.4979V1.49134C54.1916 1.251 54.2674 1.05313 54.419 0.897612C54.5636 0.749148 54.7566 0.671387 54.9909 0.671387H59.3317C59.5658 0.671387 59.759 0.74874 59.9036 0.897612C60.055 1.053 60.1308 1.251 60.1308 1.49134V9.96604C60.6683 9.12492 61.3573 8.48872 62.1979 8.05052C63.0316 7.61232 63.9894 7.39315 65.0713 7.39315C67.214 7.39315 68.8333 8.05052 69.9288 9.35101C71.0313 10.6587 71.5824 12.5529 71.5824 15.0409V24.4981C71.5824 24.7384 71.5066 24.9363 71.362 25.0918C71.2104 25.2401 71.0175 25.318 70.7832 25.318H66.4494C66.2082 25.318 66.0221 25.2407 65.8706 25.0918C65.726 24.9364 65.6501 24.7384 65.6501 24.4981V15.5498C65.6501 14.6734 65.3951 13.9807 64.8854 13.4577C64.3685 12.9417 63.714 12.6802 62.901 12.6802M79.0033 16.6105C79.0033 17.6071 79.3341 18.4482 79.9955 19.1479C80.6639 19.8476 81.4769 20.194 82.4277 20.194C83.3855 20.194 84.1984 19.8476 84.8669 19.1479C85.5284 18.4482 85.8591 17.6071 85.8591 16.6105C85.8591 15.6209 85.5284 14.7727 84.8669 14.073C84.1986 13.3733 83.3855 13.0269 82.4277 13.0269C81.4769 13.0269 80.6639 13.3733 79.9955 14.073C79.3341 14.7727 79.0033 15.6209 79.0033 16.6105ZM73.0364 16.6105C73.0364 14.0589 73.9528 11.8818 75.7787 10.0866C77.6115 8.29833 79.8233 7.40061 82.4277 7.40061C85.0391 7.40061 87.2577 8.29833 89.0836 10.0866C90.9163 11.8818 91.8258 14.0589 91.8258 16.6105C91.8258 19.162 90.9163 21.3391 89.0836 23.1344C87.2577 24.9296 85.039 25.8273 82.4277 25.8273C79.8233 25.8273 77.6115 24.9296 75.7787 23.1344C73.9528 21.3391 73.0364 19.162 73.0364 16.6105ZM94.2711 7.88781H97.3649C97.7025 7.88781 97.992 7.96516 98.233 8.1352C98.4742 8.29765 98.6672 8.54518 98.8188 8.87033L99.2941 9.96591C99.9212 9.20255 100.569 8.61588 101.23 8.21296C101.899 7.81005 102.546 7.61218 103.187 7.61218C103.876 7.61218 104.4 7.76757 104.758 8.07861C105.116 8.38966 105.254 8.82786 105.178 9.40747L104.703 13.3868C104.641 13.8462 104.496 14.1855 104.269 14.4188C104.048 14.645 103.745 14.7651 103.359 14.7651C103.235 14.7651 103.097 14.7434 102.96 14.723C102.822 14.6945 102.615 14.6389 102.34 14.5676C102.036 14.4686 101.802 14.4049 101.644 14.3768C101.496 14.349 101.346 14.3349 101.196 14.3348C100.652 14.3348 100.21 14.4972 99.8866 14.8294C99.5559 15.1546 99.3905 15.5998 99.3905 16.1724V24.5834C99.3905 24.7744 99.3079 24.9511 99.1425 25.0994C98.9773 25.2479 98.7911 25.3186 98.5776 25.3186H94.2506C94.0163 25.3186 93.8303 25.2412 93.6787 25.0853C93.5271 24.937 93.4582 24.746 93.4582 24.5129V8.7083C93.4582 8.47502 93.534 8.28421 93.6856 8.12163C93.8371 7.96625 94.037 7.88849 94.2713 7.88849" fill="#19303F"/>
<mask id="mask1_0_8424" style="mask-type:luminance" maskUnits="userSpaceOnUse" x="106" y="0" width="8" height="8">
<path d="M106.027 0.0180664H113.082V7.28459H106.027V0.0180664Z" fill="white"/>
</mask>
<g mask="url(#mask1_0_8424)">
<path d="M112.73 3.34744C112.73 4.2449 112.405 5.01572 111.751 5.66529C111.445 5.97898 111.08 6.22633 110.679 6.39263C110.278 6.55893 109.848 6.64072 109.415 6.63327C108.505 6.63327 107.727 6.31667 107.066 5.66529C106.752 5.37188 106.502 5.01371 106.332 4.61426C106.163 4.21482 106.077 3.78311 106.082 3.34744C106.082 2.44998 106.405 1.67198 107.066 1.01336C107.727 0.354738 108.507 0.0253906 109.415 0.0253906C110.318 0.0253906 111.096 0.358314 111.751 1.01513C112.405 1.67194 112.73 2.44998 112.73 3.34744Z" fill="#0073FF"/>
</g>
<path d="M128.95 12.6519L122.218 20.1088H128.922C129.143 20.1088 129.329 20.1943 129.481 20.3421C129.625 20.4975 129.701 20.6884 129.701 20.9146V24.5123C129.701 24.7455 129.625 24.9363 129.481 25.0848C129.329 25.2402 129.143 25.3181 128.922 25.3181H114.991C114.77 25.3181 114.577 25.2326 114.412 25.0707C114.247 24.9081 114.164 24.7101 114.164 24.484V21.5225C114.164 21.3104 114.192 21.1407 114.247 20.9994C114.295 20.858 114.391 20.7096 114.529 20.5754L121.406 13.0901H115.253C115.025 13.0901 114.832 13.0127 114.674 12.8499C114.515 12.6803 114.433 12.4823 114.433 12.2562V8.73617C114.433 8.50995 114.515 8.31208 114.681 8.14245C114.846 7.97295 115.039 7.88799 115.252 7.88799H128.509C128.73 7.88799 128.923 7.97213 129.081 8.14245C129.24 8.31195 129.323 8.50995 129.323 8.73617V11.6836C129.323 11.8885 129.295 12.0652 129.24 12.2066C129.185 12.3479 129.088 12.4964 128.951 12.6519M136.591 14.3552H142.227C142.11 13.6766 141.793 13.1254 141.277 12.7013C140.76 12.2701 140.16 12.058 139.464 12.058C138.782 12.058 138.176 12.2701 137.639 12.7013C137.101 13.1254 136.757 13.6766 136.591 14.3552ZM147.271 22.4694C146.589 23.4872 145.569 24.3001 144.219 24.908C142.868 25.5158 141.394 25.8269 139.788 25.8269C137.074 25.8269 134.848 24.9574 133.111 23.2328C131.368 21.5012 130.5 19.3241 130.5 16.6948C130.5 13.9665 131.32 11.7329 132.946 10.0012C134.579 8.26241 136.722 7.39307 139.368 7.39307C141.924 7.39307 143.998 8.22713 145.59 9.89525C147.188 11.5562 147.988 13.5989 147.988 16.0233V17.0199C147.988 17.4015 147.905 17.7055 147.746 17.9388C147.588 18.1649 147.361 18.2781 147.057 18.2781H136.467C136.626 19.0838 137.011 19.727 137.632 20.1935C138.245 20.66 138.996 20.9004 139.864 20.9004C140.45 20.9004 140.987 20.7877 141.483 20.5682C141.979 20.349 142.455 20.0097 142.909 19.5361C143.116 19.3312 143.323 19.2181 143.543 19.1968C143.764 19.1751 143.984 19.2389 144.219 19.3948L147.092 21.3243C147.292 21.4587 147.409 21.6283 147.436 21.8475C147.464 22.0665 147.402 22.2716 147.271 22.4694Z" fill="#19303F"/>
<path d="M156.858 21.9116C156.858 22.986 156.486 23.9049 155.735 24.6682C154.984 25.4387 154.082 25.8275 153.027 25.8275C151.987 25.8275 151.091 25.4387 150.347 24.6682C149.603 23.9049 149.231 22.986 149.231 21.9116C149.231 20.8303 149.603 19.9114 150.347 19.148C151.091 18.3847 151.987 18.0029 153.027 18.0029C154.082 18.0029 154.984 18.3847 155.735 19.148C156.486 19.9114 156.858 20.8303 156.858 21.9116Z" fill="#FFC200"/>
<path d="M167.362 12.6803C166.549 12.6803 165.888 12.9418 165.364 13.4577C164.847 13.9808 164.586 14.6734 164.586 15.5498V24.4981C164.586 24.7385 164.51 24.9363 164.358 25.0919C164.214 25.2402 164.021 25.3181 163.786 25.3181H159.445C159.211 25.3181 159.025 25.2407 158.874 25.0919C158.722 24.9365 158.646 24.7385 158.646 24.4981V8.70849C158.646 8.46815 158.722 8.27028 158.874 8.11476C159.025 7.9663 159.211 7.88854 159.445 7.88854H163.786C164.021 7.88854 164.214 7.96589 164.358 8.11476C164.51 8.27015 164.586 8.46815 164.586 8.70849V9.96664C165.13 9.12552 165.812 8.48932 166.653 8.05112C167.486 7.61291 168.444 7.39375 169.526 7.39375C171.669 7.39375 173.288 8.05112 174.39 9.35161C175.486 10.6593 176.037 12.5535 176.037 15.0414V24.4987C176.037 24.739 175.961 24.9369 175.817 25.0924C175.665 25.2407 175.472 25.3186 175.238 25.3186H170.904C170.67 25.3186 170.477 25.2413 170.325 25.0924C170.181 24.937 170.105 24.739 170.105 24.4987V15.5504C170.105 14.6739 169.85 13.9813 169.34 13.4583C168.83 12.9423 168.169 12.6808 167.362 12.6808M183.608 14.3552H189.237C189.12 13.6766 188.803 13.1254 188.293 12.7013C187.776 12.2701 187.17 12.058 186.481 12.058C185.799 12.058 185.192 12.2701 184.655 12.7013C184.118 13.1254 183.766 13.6766 183.608 14.3552ZM194.281 22.4694C193.598 23.4872 192.586 24.3001 191.235 24.908C189.885 25.5158 188.403 25.8269 186.798 25.8269C184.083 25.8269 181.858 24.9574 180.121 23.2328C178.385 21.5012 177.517 19.3241 177.517 16.6948C177.517 13.9665 178.33 11.7329 179.963 10.0012C181.596 8.26241 183.732 7.39307 186.384 7.39307C188.934 7.39307 191.008 8.22713 192.606 9.89525C194.198 11.5562 194.997 13.5989 194.997 16.0233V17.0199C194.997 17.4015 194.921 17.7055 194.756 17.9388C194.598 18.1649 194.37 18.2781 194.074 18.2781H183.484C183.642 19.0838 184.028 19.727 184.648 20.1935C185.261 20.66 186.005 20.9004 186.881 20.9004C187.466 20.9004 188.004 20.7877 188.5 20.5682C188.996 20.349 189.464 20.0097 189.926 19.5361C190.126 19.3312 190.339 19.2181 190.553 19.1968C190.774 19.1751 191.001 19.2389 191.235 19.3948L194.101 21.3243C194.308 21.4587 194.425 21.6283 194.446 21.8475C194.474 22.0665 194.419 22.2716 194.281 22.4694Z" fill="#19303F"/>
<mask id="mask2_0_8424" style="mask-type:luminance" maskUnits="userSpaceOnUse" x="194" y="1" width="16" height="27">
<path d="M194.219 1.86377H209.97V27.1953H194.219V1.86377Z" fill="white"/>
</mask>
<g mask="url(#mask2_0_8424)">
<path d="M204.097 25.6933C202.236 25.6933 200.749 25.192 199.64 24.1951C198.523 23.1909 197.971 21.8121 197.971 20.0462V12.9569H196.214C196.111 12.9588 196.008 12.9377 195.913 12.8949C195.818 12.8522 195.733 12.7887 195.664 12.7091C195.588 12.6299 195.528 12.536 195.488 12.4329C195.448 12.3298 195.428 12.2194 195.429 12.1083V10.8508C195.429 10.4762 195.465 10.1795 195.539 9.94606C195.609 9.71989 195.733 9.501 195.911 9.2893L200.135 4.48176C200.5 4.08007 200.797 3.8122 201.038 3.69821C201.332 3.56467 201.652 3.50157 201.973 3.51367H203.106C203.331 3.51367 203.518 3.59147 203.67 3.75431C203.747 3.82815 203.808 3.91808 203.848 4.01792C203.889 4.11777 203.908 4.22526 203.905 4.33333V7.9159H207.639C207.859 7.9159 208.052 7.99558 208.21 8.15842C208.369 8.31222 208.452 8.50403 208.452 8.73744V12.1083C208.454 12.2201 208.434 12.3312 208.392 12.4345C208.35 12.5379 208.289 12.6313 208.21 12.7091C208.137 12.7893 208.049 12.8528 207.95 12.8955C207.852 12.9382 207.746 12.9591 207.639 12.9569H203.905V18.7651C203.905 19.1903 204.014 19.5304 204.234 19.7711C204.353 19.8967 204.496 19.9951 204.654 20.0597C204.812 20.1242 204.982 20.1536 205.152 20.1457C205.372 20.1457 205.612 20.0951 205.868 20.0028C206.124 19.9105 206.413 19.7639 206.743 19.5649C207.074 19.3749 207.35 19.3043 207.584 19.3604C207.81 19.4092 208.025 19.5866 208.224 19.8852L209.725 22.1867C209.898 22.449 209.974 22.7114 209.967 22.972C209.957 23.2324 209.848 23.4785 209.664 23.6577C209.059 24.2946 208.258 24.7886 207.26 25.1487C206.266 25.5106 205.213 25.6933 204.097 25.6933Z" fill="#19303F"/>
</g>
<mask id="mask3_0_8424" style="mask-type:luminance" maskUnits="userSpaceOnUse" x="106" y="34" width="13" height="15">
<path d="M106.027 34.4331H118.374V48.0253H106.027V34.4331Z" fill="white"/>
</mask>
<g mask="url(#mask3_0_8424)">
<path d="M113.629 47.6779C113.594 47.7973 113.559 47.8553 113.435 47.8553H111.851C111.728 47.8553 111.693 47.7973 111.657 47.6779L107.442 35.6128C107.406 35.4934 107.456 35.4355 107.579 35.4355H108.923C109.047 35.4355 109.103 35.4934 109.137 35.6128L112.643 46.0802L116.159 35.6128C116.194 35.4934 116.242 35.4355 116.365 35.4355H117.709C117.832 35.4355 117.887 35.4934 117.854 35.6128L113.629 47.6779Z" fill="#1E2842"/>
</g>
<mask id="mask4_0_8424" style="mask-type:luminance" maskUnits="userSpaceOnUse" x="118" y="34" width="4" height="15">
<path d="M118.374 34.4331H121.902V48.0253H118.374V34.4331Z" fill="white"/>
</mask>
<g mask="url(#mask4_0_8424)">
<path d="M119.326 35.6095C119.326 35.4901 119.381 35.4321 119.499 35.4321H120.986C121.105 35.4321 121.159 35.4883 121.159 35.6095V37.1366C121.159 37.2633 121.105 37.3121 120.986 37.3121H119.499C119.381 37.3121 119.326 37.2633 119.326 37.1366V35.6095ZM119.568 39.1215C119.568 38.9948 119.621 38.946 119.739 38.946H120.745C120.863 38.946 120.918 38.9948 120.918 39.1215V47.6745C120.918 47.7939 120.865 47.8519 120.746 47.8519H119.741C119.623 47.8519 119.568 47.7939 119.568 47.6745V39.1215Z" fill="#1E2842"/>
</g>
<mask id="mask5_0_8424" style="mask-type:luminance" maskUnits="userSpaceOnUse" x="121" y="38" width="10" height="11">
<path d="M121.902 38.0518H130.721V48.0252H121.902V38.0518Z" fill="white"/>
</mask>
<g mask="url(#mask5_0_8424)">
<path d="M126.329 48.0214C124.309 48.0214 122.685 46.7982 122.685 45.1299C122.685 45.025 122.733 44.9544 122.856 44.9544H123.958C124.082 44.9544 124.117 45.0033 124.138 45.1299C124.276 46.1613 125.089 46.706 126.384 46.706C127.541 46.706 128.389 46.3386 128.389 45.414C128.389 44.4948 127.624 44.1691 125.86 43.8869C123.786 43.5539 122.904 42.8609 122.904 41.2994C122.904 39.6674 124.359 38.7627 126.191 38.7627C128.126 38.7627 129.319 39.7723 129.532 41.3139C129.532 41.4207 129.479 41.4913 129.361 41.4913H128.389C128.266 41.4913 128.252 41.4406 128.216 41.3139C127.955 40.4454 127.073 40.0763 126.142 40.0763C125.033 40.0763 124.255 40.4653 124.255 41.2651C124.255 42.1336 124.951 42.4303 126.694 42.756C128.354 43.0527 129.807 43.554 129.807 45.2367C129.807 47.0244 128.354 48.0214 126.329 48.0214Z" fill="#1E2842"/>
</g>
<mask id="mask6_0_8424" style="mask-type:luminance" maskUnits="userSpaceOnUse" x="130" y="38" width="10" height="11">
<path d="M130.721 38.0518H139.54V48.0252H130.721V38.0518Z" fill="white"/>
</mask>
<g mask="url(#mask6_0_8424)">
<path d="M131.92 41.5802C131.85 41.5802 131.797 41.5439 131.797 41.4734C131.797 41.4372 131.797 41.3685 131.816 41.2979C132.162 39.9481 133.284 38.7593 135.309 38.7593C137.316 38.7593 138.748 40.0042 138.748 41.8624V46.1398C138.748 46.9866 138.819 47.2417 139.045 47.6651C139.059 47.7013 139.08 47.7158 139.08 47.7502C139.08 47.8225 139.023 47.8425 138.94 47.8425H137.577C137.454 47.8425 137.404 47.7864 137.404 47.6651V46.7406C136.847 47.524 135.792 48.0197 134.566 48.0197C133.063 48.0197 131.451 47.1006 131.451 45.199C131.451 43.2267 133.009 42.2369 134.966 42.2369C135.827 42.2369 136.674 42.4143 137.404 42.626V42.132C137.404 40.8021 136.64 40.0693 135.31 40.0693C134.291 40.0693 133.594 40.5705 133.264 41.4173C133.215 41.5584 133.134 41.5802 133.023 41.5802H131.92ZM135.048 43.5523C133.822 43.5523 132.871 44.012 132.871 45.1085C132.871 46.1399 133.559 46.7043 134.718 46.7043C136.171 46.7043 137.404 45.7273 137.404 43.9414C136.646 43.6751 135.849 43.5435 135.048 43.5523Z" fill="#1E2842"/>
</g>
<mask id="mask7_0_8424" style="mask-type:luminance" maskUnits="userSpaceOnUse" x="144" y="34" width="12" height="15">
<path d="M144.832 34.4331H155.415V48.0253H144.832V34.4331Z" fill="white"/>
</mask>
<g mask="url(#mask7_0_8424)">
<path d="M149.524 35.2476C152.134 35.2476 153.623 36.8941 153.672 38.7035C153.672 38.8301 153.623 38.888 153.499 38.888H152.39C152.273 38.888 152.224 38.8319 152.224 38.7035C152.148 37.4803 150.977 36.6679 149.525 36.6679C148.056 36.6679 146.913 37.3392 146.913 38.4918C146.913 39.8199 148.298 40.3229 150.109 40.8169C152.321 41.4176 154.071 42.2517 154.071 44.224C154.071 46.7752 152.224 48.02 149.608 48.02C147.098 48.02 145.149 46.4224 145.149 44.0828C145.149 43.9562 145.197 43.9055 145.32 43.9055H146.432C146.548 43.9055 146.603 43.9562 146.603 44.0828C146.65 45.5177 147.809 46.5979 149.606 46.5979C151.481 46.5979 152.617 45.8922 152.617 44.3162C152.617 43.0713 151.129 42.5919 149.455 42.145C147.084 41.5298 145.46 40.654 145.46 38.5623C145.46 36.3784 147.361 35.2476 149.524 35.2476Z" fill="#1E2842"/>
</g>
<mask id="mask8_0_8424" style="mask-type:luminance" maskUnits="userSpaceOnUse" x="155" y="38" width="11" height="11">
<path d="M155.415 38.0518H165.998V48.0252H155.415V38.0518Z" fill="white"/>
</mask>
<g mask="url(#mask8_0_8424)">
<path d="M160.001 38.7573C162.488 38.7573 164.41 40.5666 164.41 43.3875C164.41 46.2065 162.488 48.016 160.001 48.016C157.507 48.016 155.591 46.2065 155.591 43.3875C155.591 40.5666 157.507 38.7573 160.001 38.7573ZM160.001 46.7006C161.779 46.7006 162.99 45.3724 162.99 43.3875C162.99 41.4008 161.779 40.0727 160.001 40.0727C158.216 40.0727 157.011 41.4008 157.011 43.3875C157.011 45.3724 158.216 46.7006 160.001 46.7006Z" fill="#1E2842"/>
</g>
<mask id="mask9_0_8424" style="mask-type:luminance" maskUnits="userSpaceOnUse" x="165" y="34" width="3" height="15">
<path d="M165.998 34.4331H167.762V48.0253H165.998V34.4331Z" fill="white"/>
</mask>
<g mask="url(#mask9_0_8424)">
<path d="M166.386 35.6095C166.386 35.4901 166.441 35.4321 166.559 35.4321H167.564C167.681 35.4321 167.737 35.4883 167.737 35.6095V47.6745C167.737 47.7939 167.682 47.8519 167.564 47.8519H166.559C166.441 47.8519 166.386 47.7939 166.386 47.6745V35.6095Z" fill="#1E2842"/>
</g>
<mask id="mask10_0_8424" style="mask-type:luminance" maskUnits="userSpaceOnUse" x="169" y="38" width="10" height="11">
<path d="M169.526 38.0518H178.345V48.0252H169.526V38.0518Z" fill="white"/>
</mask>
<g mask="url(#mask10_0_8424)">
<path d="M177.269 47.6778C177.269 47.7972 177.221 47.8552 177.096 47.8552H176.091C175.974 47.8552 175.918 47.7972 175.918 47.6778V46.6663C175.249 47.5005 174.277 48.0307 173.052 48.0307C171.235 48.0307 170.041 46.8798 170.041 44.8008V39.1248C170.041 39.0054 170.095 38.9492 170.214 38.9492H171.219C171.337 38.9492 171.392 39.0054 171.392 39.1248V44.5891C171.392 46.024 172.115 46.717 173.362 46.717C174.815 46.717 175.92 45.635 175.92 43.4873V39.1266C175.92 39.0054 175.972 38.9492 176.091 38.9492H177.096C177.22 38.9492 177.269 39.0036 177.269 39.1248V47.6778Z" fill="#1E2842"/>
</g>
<mask id="mask11_0_8424" style="mask-type:luminance" maskUnits="userSpaceOnUse" x="178" y="34" width="10" height="15">
<path d="M178.345 34.4331H187.164V48.0253H178.345V34.4331Z" fill="white"/>
</mask>
<g mask="url(#mask11_0_8424)">
<path d="M185.136 38.9385C185.259 38.9385 185.309 38.9947 185.309 39.1159V40.0694C185.309 40.1961 185.259 40.2539 185.136 40.2539H182.269V45.2008C182.269 46.196 182.717 46.7063 183.633 46.7063C184.206 46.7063 184.654 46.6701 185.273 46.4439C185.311 46.4208 185.353 46.4066 185.397 46.4023C185.48 46.4023 185.515 46.4801 185.515 46.5868V47.4192C185.515 47.5748 185.515 47.667 185.377 47.7177C184.88 47.9149 184.254 48.0217 183.531 48.0217C181.904 48.0217 180.92 47.0085 180.92 45.3203V40.2539H179.382C179.259 40.2539 179.204 40.1961 179.204 40.0694V39.1159C179.204 38.9947 179.257 38.9385 179.382 38.9385H180.918V36.3873C180.918 36.2607 180.968 36.21 181.091 36.21H182.097C182.215 36.21 182.269 36.2589 182.269 36.3873V38.9385H185.136Z" fill="#1E2842"/>
</g>
<mask id="mask12_0_8424" style="mask-type:luminance" maskUnits="userSpaceOnUse" x="187" y="34" width="4" height="15">
<path d="M187.164 34.4331H190.692V48.0253H187.164V34.4331Z" fill="white"/>
</mask>
<g mask="url(#mask12_0_8424)">
<path d="M187.252 35.6095C187.252 35.4901 187.3 35.4321 187.425 35.4321H188.912C189.03 35.4321 189.085 35.4883 189.085 35.6095V37.1366C189.085 37.2633 189.03 37.3121 188.912 37.3121H187.425C187.302 37.3121 187.252 37.2633 187.252 37.1366V35.6095ZM187.494 39.1215C187.494 38.9948 187.542 38.946 187.665 38.946H188.67C188.789 38.946 188.843 38.9948 188.843 39.1215V47.6745C188.843 47.7939 188.79 47.8519 188.672 47.8519H187.667C187.542 47.8519 187.494 47.7939 187.494 47.6745V39.1215Z" fill="#1E2842"/>
</g>
<mask id="mask13_0_8424" style="mask-type:luminance" maskUnits="userSpaceOnUse" x="190" y="38" width="12" height="11">
<path d="M190.692 38.0518H201.275V48.0252H190.692V38.0518Z" fill="white"/>
</mask>
<g mask="url(#mask13_0_8424)">
<path d="M195.137 38.7573C197.631 38.7573 199.546 40.5666 199.546 43.3875C199.546 46.2065 197.631 48.016 195.137 48.016C192.65 48.016 190.727 46.2065 190.727 43.3875C190.727 40.5666 192.65 38.7573 195.137 38.7573ZM195.137 46.7006C196.922 46.7006 198.126 45.3724 198.126 43.3875C198.126 41.4008 196.922 40.0727 195.137 40.0727C193.359 40.0727 192.147 41.4008 192.147 43.3875C192.147 45.3724 193.359 46.7006 195.137 46.7006Z" fill="#1E2842"/>
</g>
<mask id="mask14_0_8424" style="mask-type:luminance" maskUnits="userSpaceOnUse" x="201" y="38" width="9" height="11">
<path d="M201.275 38.0518H209.971V48.0252H201.275V38.0518Z" fill="white"/>
</mask>
<g mask="url(#mask14_0_8424)">
<path d="M201.292 39.1194C201.292 38.9927 201.347 38.942 201.465 38.942H202.471C202.587 38.942 202.644 38.9927 202.644 39.1194V40.1308C202.989 39.6935 203.428 39.3432 203.926 39.1067C204.424 38.8702 204.968 38.7539 205.517 38.7666C207.328 38.7666 208.521 39.9173 208.521 41.9963V47.6724C208.521 47.7918 208.471 47.8479 208.348 47.8479H207.349C207.226 47.8479 207.177 47.7918 207.177 47.6724V42.208C207.177 40.7731 206.446 40.0801 205.206 40.0801C203.751 40.0801 202.644 41.1622 202.644 43.3099V47.6705C202.644 47.7918 202.587 47.8479 202.471 47.8479H201.465C201.347 47.8479 201.292 47.7936 201.292 47.6724V39.1194Z" fill="#1E2842"/>
</g>
<mask id="mask15_0_8424" style="mask-type:luminance" maskUnits="userSpaceOnUse" x="91" y="34" width="14" height="15">
<path d="M91.9163 34.4331H104.263V48.0253H91.9163V34.4331Z" fill="white"/>
</mask>
<g mask="url(#mask15_0_8424)">
<path d="M100.806 44.2403H95.8586L94.668 47.6691C94.6327 47.7885 94.5974 47.8446 94.4598 47.8446H93.2958C93.1793 47.8446 93.1105 47.7886 93.1105 47.6674C93.1105 47.633 93.1105 47.613 93.1246 47.5623L97.4161 35.6022C97.4514 35.4828 97.4655 35.4268 97.5889 35.4268H99.0776C99.194 35.4268 99.2152 35.4828 99.2487 35.6022L103.535 47.5623C103.556 47.6112 103.556 47.6329 103.556 47.6691C103.556 47.7885 103.486 47.8446 103.362 47.8446H102.205C102.067 47.8446 102.034 47.7886 101.999 47.6674L100.806 44.2403ZM96.3613 42.8271H100.304L98.3333 37.2217L96.3613 42.8271Z" fill="#1E2842"/>
</g>
<path d="M112.392 8.70813V24.4978C112.392 24.7311 112.317 24.9219 112.158 25.0774C112.007 25.2398 111.814 25.3177 111.579 25.3177H107.273C107.039 25.3177 106.846 25.2404 106.687 25.0774C106.536 24.9219 106.46 24.7311 106.46 24.4978V8.70813C106.46 8.47485 106.536 8.28404 106.687 8.12852C106.846 7.96608 107.039 7.88818 107.273 7.88818H111.579C111.814 7.88818 112.007 7.96554 112.158 8.12852C112.317 8.28391 112.392 8.47485 112.392 8.70813Z" fill="#19303F"/>
</g>
<defs>
<clipPath id="clip0_0_8424">
<rect width="210" height="48" fill="white"/>
</clipPath>
</defs>
</svg>
