<svg width="62" height="48" viewBox="0 0 62 48" fill="none" xmlns="http://www.w3.org/2000/svg">
<path d="M28.68 45.4211L43.29 42.8421L43.43 42.8122L35.92 33.8659C31.78 28.9479 28.39 24.9096 28.39 24.8896C28.39 24.8696 36.16 3.47855 36.2 3.39858C36.2 3.3686 41.5 12.4948 49 25.4894L61.9 47.8301L62 48H14.2L28.7 45.4411H28.69L28.68 45.4211ZM0 42.6922L7.87 29.0379L15.75 15.3936L24.93 7.69679C29.97 3.47855 34.11 0 34.13 0C34.09 0.11995 34.04 0.249896 33.98 0.35985L24.02 21.7409L14.22 42.7022H0V42.6922Z" fill="#0089D6"/>
</svg>
