<svg width="47" height="48" viewBox="0 0 47 48" fill="none" xmlns="http://www.w3.org/2000/svg">
<g clip-path="url(#clip0_0_8296)">
<path d="M23.4686 0C27.4263 4.83133 31.4006 9.64874 35.3912 14.4522C41.7917 22.2126 47.0125 28.5736 46.9874 28.6117C46.9874 28.6499 41.8796 32.8863 35.6673 38.026L23.933 47.7074C23.5188 48.0509 23.4937 48.0636 23.3431 47.911L11.5712 38.1659C7.66854 34.9865 3.81109 31.7506 0 28.4591C0.0251001 28.3954 5.27103 22.0472 11.6841 14.3377C18.0972 6.62815 23.3557 0.254439 23.3682 0.152664C23.3933 0.0508879 23.431 0 23.4686 0Z" fill="#00BEF2"/>
<path d="M22.6027 40.3665C21.776 40.0189 21.084 39.4068 20.6323 38.6236C20.4114 38.0916 20.305 37.518 20.3201 36.941C20.3353 36.3641 20.4716 35.797 20.7202 35.2777C21.1092 34.4635 21.1092 34.438 20.8582 34.2599C20.7327 34.1454 19.051 33.204 17.1685 32.1735C15.286 31.1558 13.6545 30.2398 13.529 30.1762C13.3784 30.0871 13.1274 30.1762 12.6756 30.4688C11.2072 31.4102 9.6761 31.3084 8.4713 30.1762C7.60534 29.362 7.35434 28.7895 7.35434 27.6318C7.35434 26.4868 7.58024 25.9016 8.29559 25.1764C9.26195 24.1969 10.5546 23.8661 11.8096 24.2859C12.4748 24.5149 12.4873 24.5149 12.914 24.1841C13.416 23.8025 17.4446 20.0749 19.3899 18.2048L20.7327 16.9072L20.3311 16.0548C19.9256 15.263 19.8064 14.3523 19.9944 13.4807C20.1824 12.6092 20.6657 11.832 21.3602 11.2841C21.6992 10.99 22.092 10.7668 22.5163 10.6271C22.9406 10.4873 23.3879 10.4339 23.8326 10.4698C24.4444 10.4818 25.0442 10.6438 25.5809 10.9419C26.1175 11.2401 26.5749 11.6655 26.914 12.1818C27.2532 12.6981 27.464 13.29 27.5284 13.9068C27.5928 14.5237 27.5089 15.1472 27.2838 15.724C27.0328 16.411 27.0328 16.4237 27.2838 16.8436C27.4846 17.2252 31.1116 21.6525 33.0318 23.917C33.3706 24.3114 33.7471 24.6294 33.8726 24.6294C33.9981 24.6294 34.4248 24.5022 34.8264 24.3495C36.7089 23.5989 38.6668 24.4386 39.4449 26.3214C39.9469 27.53 39.5076 29.1584 38.4409 30.138C37.6879 30.825 37.1356 31.0413 36.1316 31.0413C35.4288 31.0413 35.1653 30.9649 34.4248 30.5578C33.8726 30.2525 33.4459 30.0999 33.2702 30.1507C32.969 30.2271 28.3381 33.4585 27.3089 34.2854C26.6814 34.807 26.6312 34.9978 26.9575 35.7739C27.2713 36.5372 27.2336 37.733 26.8822 38.4836C26.4113 39.3758 25.6277 40.0566 24.686 40.3919C24.0114 40.6395 23.2712 40.6304 22.6027 40.3665ZM22.816 26.3469V19.0953L22.4144 18.5356C22.2798 18.329 22.1195 18.1409 21.9375 17.9758C19.1038 20.4332 16.3456 22.9788 13.667 25.609L13.9431 26.4232C14.0984 26.8603 14.1831 27.32 14.1941 27.7845V28.6368C14.1941 28.9294 16.9049 30.6851 20.9712 33.0641C22.1007 33.7256 22.4772 33.891 22.6152 33.7765C22.7784 33.6493 22.816 32.2244 22.816 26.3469ZM26.2547 32.7587C31.6262 29.3365 32.6302 28.6495 32.6929 28.3951C32.7306 28.2424 32.7808 27.6445 32.7933 27.0466L32.831 25.9779L30.0951 22.6829C27.1583 19.159 26.079 17.9758 25.828 17.9758C25.7402 17.9758 25.3009 18.2303 24.8491 18.5229L24.0208 19.0826L24.0585 26.3341C24.0961 32.8224 24.1463 33.9037 24.3848 33.9037C24.4099 33.9164 25.2633 33.3948 26.2673 32.7587H26.2547Z" fill="white" stroke="white" stroke-width="1.2" stroke-linecap="round" stroke-linejoin="round"/>
</g>
<defs>
<clipPath id="clip0_0_8296">
<rect width="47" height="48" fill="white"/>
</clipPath>
</defs>
</svg>
