<svg width="48" height="48" viewBox="0 0 48 48" fill="none" xmlns="http://www.w3.org/2000/svg">
<g clip-path="url(#clip0_0_8245)">
<path fill-rule="evenodd" clip-rule="evenodd" d="M28.0704 33.84C24.9744 33.84 22.344 31.392 22.344 28.128C22.344 24.8496 24.552 22.1616 28.1184 22.1616C31.68 22.1616 33.7824 25.0416 33.7824 28.0656C33.792 31.3536 31.56 33.84 28.0704 33.84ZM18.9216 23.0064L17.8272 19.416C17.1792 17.5344 16.9776 16.44 15.1392 14.496C14.5008 13.824 12.1152 12.36 12.4128 12.6864C15.4368 15.9504 16.9872 19.9104 17.5872 21.0144C17.0352 20.352 16.3968 19.752 15.6672 19.008C15.0995 18.4074 14.4632 17.8758 13.7712 17.424C13.3632 17.1744 13.1376 17.0304 12.7152 16.824C11.3251 16.0936 9.86075 15.5143 8.3472 15.096C7.4976 14.88 6.6672 14.832 6.6672 14.832C6.6672 14.832 9.3648 17.112 10.5312 18.5664C11.6832 20.016 12.8736 21.312 14.1792 21.8544C15.4848 22.3824 15.9408 22.536 16.9632 22.6944C17.8368 22.8 18.9168 23.0064 18.9168 23.0064H18.9216ZM28.3008 19.824C25.4448 19.824 23.9088 20.808 22.8432 21.8784L22.5552 22.1856V12.6096H20.0832V28.2816C20.0832 33.1056 23.7888 36.1056 28.0608 36.1056C29.1496 36.1238 30.2309 35.9226 31.2402 35.5141C32.2496 35.1055 33.1664 34.4979 33.9359 33.7274C34.7054 32.957 35.312 32.0395 35.7194 31.0297C36.1268 30.0199 36.3267 28.9383 36.3072 27.8496C36.3072 23.5296 32.5968 19.824 28.3008 19.824ZM48 24C48 37.2624 37.2576 48 24 48C10.7424 48 0 37.2576 0 24C0 10.7424 10.7424 0 24 0C37.2576 0 48 10.7424 48 24Z" fill="#73C41D"/>
</g>
<defs>
<clipPath id="clip0_0_8245">
<rect width="48" height="48" fill="white"/>
</clipPath>
</defs>
</svg>
