<svg width="48" height="48" viewBox="0 0 48 48" fill="none" xmlns="http://www.w3.org/2000/svg">
<g clip-path="url(#clip0_0_8108)">
<path d="M31.5498 32.2173C32.4417 32.2173 33.0772 32.4841 33.4854 32.8677C33.8926 33.2505 34.1162 33.7889 34.1162 34.4185C34.1161 35.1605 33.8744 35.6879 33.4766 36.0366C33.0693 36.3934 32.4343 36.6187 31.5498 36.6187H25.416V32.2173H31.5498ZM31.3379 22.8794C32.1059 22.8794 32.6829 23.1086 33.0615 23.4497C33.4366 23.7878 33.6533 24.2677 33.6533 24.8491C33.6533 25.4857 33.4321 25.9594 33.0684 26.2798C32.6973 26.6066 32.1269 26.8178 31.3574 26.8179H25.416V22.8794H31.3379Z" fill="#18181B" stroke="#18181B"/>
<path d="M47.4998 47.5004H0.590576L19.2859 28.889V41.2094C19.286 41.4599 19.4068 41.6702 19.5496 41.808C19.6948 41.9481 19.9072 42.056 20.1531 42.056H32.8425C35.2515 42.0559 37.1368 41.3124 38.4216 40.0482C39.7026 38.7876 40.34 37.0552 40.3425 35.1625C40.372 33.9011 40.0227 32.6597 39.3396 31.599C38.7124 30.6253 37.8299 29.8452 36.7917 29.3412C38.5986 28.4225 40.2273 26.5261 40.2273 23.9613C40.2272 20.5075 37.2473 17.4613 32.4753 17.4613H30.7537L47.4998 0.763062V47.5004Z" fill="#18181B" stroke="#18181B"/>
</g>
<defs>
<clipPath id="clip0_0_8108">
<rect width="48" height="48" fill="white"/>
</clipPath>
</defs>
</svg>
