<svg width="48" height="48" viewBox="0 0 48 48" fill="none" xmlns="http://www.w3.org/2000/svg">
<path d="M15.7915 23.9229L48 16.3602V0H31.2704L15.7915 23.7686V23.9229ZM0 23.7686C0 25.6207 0.156351 27.4728 0.625407 29.3248L15.7915 23.9229L0.469057 18.521C0.156354 20.0644 0 21.9165 0 23.6142V23.7686Z" fill="#FF3300"/>
<path d="M5.62866 8.33426L15.7915 23.9227L20.4821 0.154175C14.5407 1.08022 9.38111 4.01271 5.62866 8.33426Z" fill="#FF3300"/>
<path d="M15.7915 23.9228L48 31.6398V48H31.2704L15.7915 23.7684V23.9228ZM5.62866 39.5112L15.7915 24.0771L20.4821 47.6913C14.5407 46.9196 9.38111 43.8328 5.62866 39.5112Z" fill="#FF3300"/>
</svg>
