<svg width="135" height="48" viewBox="0 0 135 48" fill="none" xmlns="http://www.w3.org/2000/svg">
<mask id="mask0_0_6482" style="mask-type:luminance" maskUnits="userSpaceOnUse" x="16" y="0" width="103" height="48">
<path d="M118.02 0H16V48H118.02V0Z" fill="white"/>
</mask>
<g mask="url(#mask0_0_6482)">
<path d="M26.94 17.35V3.79C26.94 3.28 26.98 2.97 27.85 2.97H39.45C41.47 2.97 42.6 4.69 43.4 7.89L44.07 10.46H46.04C46.4 3.16 46.7 0 46.7 0C46.7 0 41.74 0.55 38.8 0.55H23.95L16 0.3V2.4L18.68 2.9C20.57 3.25 21.02 3.66 21.18 5.37C21.18 5.37 21.32 10.4 21.32 18.68C21.32 26.97 21.18 31.94 21.18 31.94C21.18 33.44 20.57 34 18.68 34.35L16 34.85V36.95L23.95 36.7H37.22C40.21 36.7 47.14 36.95 47.14 36.95C47.3 35.13 48.32 26.95 48.46 26.04H46.6L44.62 30.51C43.05 34.03 40.77 34.28 38.23 34.28H30.69C28.15 34.28 26.93 33.26 26.93 31.1V19.66C26.93 19.66 32.46 19.66 34.37 19.8C35.8 19.9 36.65 20.3 37.12 22.27L37.72 24.87H39.89L39.74 18.29L40.04 11.66H37.87L37.16 14.58C36.7 16.48 36.41 16.84 34.42 17.04C32.18 17.29 26.93 17.24 26.93 17.24V17.29L26.95 17.35H26.94ZM56.96 5.19C56.26 8.31 55.54 10.72 53.06 12.33C51.9621 13.0614 50.7154 13.5396 49.41 13.73V15.65H53.91V31.07C53.91 35.39 56.81 37.5 60.65 37.5C63.64 37.5 66.73 36.25 67.8 33.62L66.73 32.28C66.2531 32.9335 65.6287 33.4652 64.9076 33.8318C64.1865 34.1984 63.389 34.3897 62.58 34.39C60.34 34.39 59.14 32.89 59.14 29.07V15.47L66.63 16.01L67.03 12.61L59.13 12.91V5.27L56.95 5.22L56.96 5.19ZM72.96 28.91L71.05 28.95C71.2352 31.293 71.2352 33.647 71.05 35.99C71.05 35.99 74.89 37.39 78.8 37.39C84.06 37.39 88.27 34.89 88.27 29.97C88.27 21.53 75.5 22.77 75.5 17.1C75.5 14.74 77.64 13.84 79.97 13.84C81.78 13.84 83.31 14.49 83.63 15.44L84.89 19.22L86.77 19.12C86.92 17.1 87.02 14.8 87.33 12.94C85.7 12.23 82.33 11.82 80.19 11.82C75.23 11.82 71.22 13.98 71.22 18.82C71.22 27.2 83.68 25.5 83.68 31.68C83.68 33.88 82.32 35.44 79.22 35.44C76.39 35.44 74.97 33.99 74.4 32.52L72.98 28.9L72.96 28.91ZM103.49 34.73C100.56 42.85 96.96 44.95 93.74 44.95C92.37 44.95 91.72 44.35 91.5 43.4L90.75 39.48L88.63 39.58C88.23 41.89 87.82 44.45 87.27 46.56C88.53 47.52 90.65 48.01 92.32 48.01C95.82 48.01 101.12 47.56 105.97 36.13L114.1 17.09C114.76 15.52 115.02 15.38 116.93 14.62L117.99 14.22V12.46L113.19 12.71L108.03 12.46V14.22L109.34 14.62C110.65 15.02 111.26 15.52 111.26 16.42C111.26 16.87 111.1 17.33 110.86 18.03C110.1 19.93 105.4 31.27 104.14 33.67L105.4 33.22C103.253 27.8802 101.22 22.4956 99.3 17.07C99.18 16.77 99.13 16.51 99.13 16.27C99.13 15.47 99.7 14.81 100.9 14.57L102.57 14.22V12.46L95.65 12.71L90.14 12.46V14.22L91.05 14.52C92.32 14.92 92.62 15.27 93.37 17.03C97.58 26.55 99.54 31.77 102.22 38.6L103.49 34.74V34.73Z" fill="#F27326"/>
</g>
</svg>
