<svg width="223" height="48" viewBox="0 0 223 48" fill="none" xmlns="http://www.w3.org/2000/svg">
<g clip-path="url(#clip0_0_6167)">
<path d="M54.1889 1.2C48.6139 1.2 46.6069 5.4 46.6069 9.36V11.76H45.4919C44.5999 11.76 43.9309 12.48 43.9309 13.44C43.9309 14.4 44.5999 15.12 45.4919 15.12H46.6069V31.68C46.6069 32.64 47.2759 33.48 48.2794 33.48C49.2829 33.48 49.9519 32.76 49.9519 31.68V15H53.5199C54.4119 15 55.0809 14.28 55.0809 13.32C55.0809 12.36 54.4119 11.64 53.5199 11.64H49.9519V9.24C49.9519 7.08 50.7324 4.44 54.3004 4.44C55.1924 4.44 55.8614 3.72 55.8614 2.88C55.7499 1.92 55.0809 1.2 54.1889 1.2ZM66.8999 11.16C64.6699 11.04 62.6629 12.12 61.3249 14.04V13.08C61.3249 12.12 60.6559 11.28 59.6524 11.28C58.6489 11.28 57.9799 12.12 57.9799 13.08V31.56C57.9799 32.52 58.6489 33.36 59.6524 33.36C60.6559 33.36 61.3249 32.64 61.3249 31.56V21.36C61.3249 17.04 63.4434 14.52 66.8999 14.52C67.7919 14.52 68.4609 13.8 68.4609 12.84C68.4609 11.88 67.6804 11.16 66.8999 11.16ZM86.6354 20.28C86.631 18.2399 86.0898 16.2428 85.0744 14.52C84.3002 13.3832 83.2691 12.478 82.0788 11.89C80.8886 11.302 79.5786 11.0507 78.2729 11.16C72.5864 11.16 69.3529 15.24 69.3529 22.32C69.3529 29.64 72.5864 33.6 78.7189 33.6C81.1719 33.72 83.6249 32.76 85.5204 30.96C85.8549 30.72 86.0779 30.24 86.0779 29.76C86.0779 28.92 85.4089 28.2 84.6284 28.2C84.2939 28.2 83.9594 28.32 83.7364 28.56C82.3543 29.7871 80.622 30.465 78.8304 30.48C75.1509 30.48 72.8094 27.84 72.6979 23.64H84.7399C86.6354 23.4 86.6354 21.48 86.6354 20.28ZM78.3844 14.28C81.7294 14.28 83.4019 16.32 83.5134 20.28H72.6979C73.0324 16.44 75.0394 14.28 78.3844 14.28ZM97.5624 20.52C95.1094 19.56 93.1024 18.84 93.1024 16.92C93.1024 14.76 95.3324 14.52 96.5589 14.52C98.2314 14.4 99.9039 15.12 101.019 16.32C101.576 16.92 102.58 16.92 103.137 16.32C103.472 15.96 103.583 15.6 103.583 15.12L103.249 14.04C102.448 13.02 101.435 12.217 100.292 11.6959C99.1493 11.1747 97.9087 10.9501 96.6704 11.04C92.5449 11.04 89.9804 13.32 89.9804 16.8C89.9804 21.12 93.5484 22.44 96.6704 23.64C99.0119 24.48 101.13 25.2 101.13 27.12C101.13 29.64 98.4544 30.12 96.8934 30.12C94.9979 30.24 93.1024 29.4 91.7644 27.96C91.4533 27.65 91.0665 27.4419 90.6494 27.36C89.8689 27.36 89.1999 28.08 89.1999 28.92L89.5344 30C91.4299 32.4 94.1059 33.6 96.8934 33.6C101.576 33.6 104.364 31.2 104.364 27.36C104.141 22.92 100.684 21.72 97.5624 20.52ZM116.852 11.04C115.841 10.9971 114.834 11.2016 113.907 11.6381C112.98 12.0746 112.157 12.7317 111.5 13.56V1.8C111.5 0.84 110.831 0 109.827 0C108.935 0 108.266 0.72 108.266 1.8V31.56C108.266 32.52 108.935 33.36 109.827 33.36C110.719 33.36 111.5 32.64 111.5 31.56V20.4C111.5 16.32 113.284 14.28 116.852 14.28C120.42 14.28 121.646 15.96 121.646 20.04V31.56C121.646 32.52 122.315 33.36 123.319 33.36C124.211 33.36 124.88 32.64 124.88 31.56V19.44C124.88 13.92 122.204 11.04 116.852 11.04ZM151.863 11.4C151.194 11.4 150.525 11.88 150.302 12.6L145.619 26.76L141.828 12.6C141.493 11.64 140.601 11.28 139.709 11.52C139.263 11.64 138.929 12.12 138.706 12.6L134.915 26.76L130.455 12.48C130.232 11.76 129.674 11.28 128.894 11.4C128.002 11.4 127.333 12.12 127.333 13.08L127.444 13.8L133.688 32.16C133.911 32.88 134.469 33.36 135.249 33.36C135.918 33.36 136.587 32.88 136.81 32.16L140.49 18.72L144.169 32.16C144.392 32.88 145.061 33.36 145.73 33.36C146.399 33.36 147.068 32.88 147.291 32.16L153.535 13.8L153.647 13.08C153.424 12.12 152.755 11.4 151.863 11.4ZM163.682 11.04C157.772 11.04 154.539 15 154.539 22.2C154.539 29.4 157.772 33.48 163.682 33.48C169.591 33.48 172.825 29.52 172.825 22.2C172.825 14.88 169.591 11.04 163.682 11.04ZM163.682 30.24C159.779 30.24 157.772 27.6 157.772 22.2C157.772 16.8 159.779 14.16 163.682 14.16C167.584 14.16 169.48 16.92 169.48 22.2C169.48 27.48 167.584 30.36 163.682 30.24ZM185.313 11.16C183.083 11.04 181.076 12.12 179.738 14.04V13.08C179.738 12.12 179.069 11.28 178.177 11.28C177.285 11.28 176.504 12 176.504 12.96V31.44C176.504 32.4 177.173 33.24 178.065 33.24C178.957 33.24 179.738 32.52 179.738 31.56V21.36C179.738 17.04 181.856 14.52 185.313 14.52C186.205 14.52 186.874 13.8 186.874 12.84C186.874 11.88 186.205 11.16 185.313 11.16ZM197.689 20.28L204.379 14.52C204.825 14.16 205.048 13.68 205.048 13.08C205.048 12.12 204.379 11.4 203.487 11.4C203.041 11.4 202.707 11.52 202.372 11.88L192.783 20.28V1.8C192.783 0.84 192.114 0 191.222 0C190.33 0 189.55 0.72 189.55 1.68V31.44C189.55 32.4 190.219 33.24 191.111 33.24C192.003 33.24 192.783 32.52 192.783 31.56V24.36L195.013 22.44L202.372 32.52C202.707 33 203.264 33.36 203.71 33.36C204.602 33.36 205.271 32.64 205.271 31.68C205.271 31.32 205.16 30.84 204.937 30.6L197.689 20.28ZM215.975 20.52C213.522 19.56 211.515 18.84 211.515 16.92C211.515 14.76 213.745 14.52 214.972 14.52C216.644 14.4 218.317 15.12 219.432 16.32C219.766 16.68 220.101 16.8 220.547 16.8C221.327 16.68 221.885 15.96 221.885 15.12L221.55 14.04C220.749 13.02 219.736 12.217 218.594 11.6959C217.451 11.1747 216.21 10.9501 214.972 11.04C210.846 11.04 208.282 13.32 208.282 16.8C208.282 21.12 211.85 22.44 214.972 23.64C217.313 24.48 219.432 25.2 219.432 27.12C219.432 29.64 216.756 30.12 215.195 30.12C213.299 30.24 211.404 29.4 210.066 27.96C209.755 27.65 209.368 27.4419 208.951 27.36C208.17 27.36 207.501 28.08 207.501 28.92L207.836 30C208.768 31.1258 209.923 32.0122 211.216 32.5937C212.509 33.1752 213.907 33.4371 215.306 33.36C219.989 33.36 222.777 30.96 222.777 27.12C222.554 22.92 219.097 21.72 215.975 20.52Z" fill="#52525B"/>
<path d="M0.2229 30.6005C0.7804 34.9205 2.6759 38.8805 5.5749 42.0005L12.0419 35.0405C12.0267 31.4438 12.8953 27.9067 14.5597 24.7877C16.2241 21.6688 18.6251 19.0789 21.5194 17.2805L0.2229 30.6005Z" fill="#9B65C3"/>
<path d="M12.0419 35.0401C8.6969 35.0401 5.4634 34.0801 2.5644 32.2801L0.2229 30.6001C0.7804 34.9201 2.6759 38.8801 5.5749 42.0001L12.0419 35.0401Z" fill="#9B65C3"/>
<path d="M12.042 35.0391L5.57495 41.9991C8.47395 45.1191 12.1535 47.1591 16.1674 47.7591L28.4324 24.8391C26.7709 27.9364 24.382 30.5091 21.5053 32.2993C18.6285 34.0895 15.365 35.0344 12.042 35.0391Z" fill="#BE63C5"/>
<path d="M14.6065 45.2391C12.9341 42.1405 12.0496 38.6225 12.042 35.0391L5.57495 41.9991C8.47395 45.1191 12.1535 47.1591 16.1675 47.7591L14.6065 45.2391Z" fill="#BF63C6"/>
<path d="M36.2375 8.16089L21.5195 17.2809C15.61 20.8809 8.47398 20.8809 2.56448 17.2809C0.421048 21.3138 -0.40343 26.004 0.222984 30.6009L2.56448 32.2809C5.44358 34.0808 8.71241 35.0327 12.042 35.0409L36.572 8.64089L36.2375 8.16089Z" fill="#3278B1"/>
<path d="M2.5644 32.2805C5.4435 34.0804 8.71233 35.0323 12.0419 35.0405C12.0267 31.4438 12.8953 27.9067 14.5597 24.7877C16.2241 21.6688 18.6251 19.0789 21.5194 17.2805L0.2229 30.4805L2.5644 32.2805Z" fill="#3278B2"/>
<path d="M2.56448 17.2805C0.421048 21.3134 -0.40343 26.0036 0.222984 30.6005L21.5195 17.2805C18.6494 19.107 15.3763 20.0705 12.042 20.0705C8.70769 20.0705 5.43457 19.107 2.56448 17.2805Z" fill="#45A4EC"/>
<path d="M36.572 8.64057L35.68 7.80057C34.9766 7.33145 34.1659 7.08216 33.3385 7.08057H18.955C15.6319 7.08529 12.3684 8.03013 9.49163 9.82037C6.61488 11.6106 4.22598 14.1833 2.56445 17.2806C8.47395 20.8806 15.61 20.8806 21.5195 17.2806C18.6252 19.0789 16.2242 21.6688 14.5598 24.7878C12.8953 27.9067 12.0267 31.4439 12.042 35.0406C15.3839 35.057 18.6705 34.1221 21.5685 32.3308C24.4665 30.5395 26.873 27.9555 28.544 24.8406L37.018 9.00057L36.572 8.64057Z" fill="#19BB7D"/>
<path d="M21.5195 17.2804L36.2375 8.16042L35.68 7.68042L2.56445 17.2804C5.43454 19.1069 8.70766 20.0704 12.042 20.0704C15.3762 20.0704 18.6494 19.1069 21.5195 17.2804Z" fill="#08C7FB"/>
<path d="M33.227 7.08057H18.955C15.6319 7.08529 12.3684 8.03013 9.49163 9.82037C6.61488 11.6106 4.22598 14.1833 2.56445 17.2806L35.68 7.68057C34.8995 7.32057 34.119 7.08057 33.227 7.08057Z" fill="#59F2F6"/>
<path d="M28.5441 24.8395L37.0181 8.99953L36.6836 8.51953L12.1536 34.9195C12.1536 38.5195 13.0456 41.9995 14.7181 45.1195L16.2791 47.6395L18.9551 47.8795C22.3001 47.8795 25.5336 46.9195 28.4326 45.1195C25.0876 38.8795 25.0876 31.0795 28.5441 24.8395Z" fill="#DA3757"/>
<path d="M12.042 35.0391C12.042 38.6391 12.934 42.1191 14.6065 45.2391L16.1675 47.7591L28.4325 24.8391C26.771 27.9364 24.3821 30.5091 21.5053 32.2993C18.6286 34.0895 15.365 35.0344 12.042 35.0391Z" fill="#D33C4E"/>
<path d="M28.5441 24.8391L16.2791 47.7591L19.0666 47.9991C22.4116 47.9991 25.6451 47.0391 28.5441 45.2391C26.847 42.1502 25.9517 38.6276 25.9517 35.0391C25.9517 31.4506 26.847 27.928 28.5441 24.8391Z" fill="#EE5A24"/>
<path d="M37.3524 9.60089C37.0723 9.04669 36.6934 8.55736 36.2374 8.16089L21.5194 17.2809C18.6252 19.0792 16.2242 21.6691 14.5597 24.7881C12.8953 27.9071 12.0267 31.4442 12.0419 35.0409C15.3839 35.0573 18.6705 34.1224 21.5685 32.3312C24.4665 30.5399 26.873 27.9558 28.5439 24.8409C25.1989 31.2009 25.1989 38.8809 28.5439 45.2409C31.4055 43.4629 33.7855 40.9108 35.448 37.8376C37.1105 34.7644 37.9976 31.2769 38.0214 27.7209V12.2409C38.0214 11.2809 37.7984 10.4409 37.3524 9.60089Z" fill="#8BDF55"/>
<path d="M36.2374 8.16089L21.5194 17.2809C18.6252 19.0792 16.2242 21.6691 14.5597 24.7881C12.8953 27.9071 12.0267 31.4442 12.0419 35.0409L36.5719 8.64089L36.2374 8.16089Z" fill="#25C16F"/>
<path d="M12.042 35.0395C15.3839 35.0559 18.6705 34.1211 21.5685 32.3298C24.4666 30.5385 26.873 27.9544 28.544 24.8395L37.018 8.99953L36.6835 8.51953L12.042 35.0395Z" fill="#8BDF55"/>
<path d="M37.0179 9L28.5439 24.84C25.1989 31.2 25.1989 38.88 28.5439 45.24L37.4639 9.6L37.0179 9Z" fill="#FFBB00"/>
<path d="M28.5439 45.2401C34.4534 41.6401 38.0214 34.9201 38.0214 27.6001V12.2401C38.0214 11.2801 37.7984 10.4401 37.3524 9.6001L28.5439 45.2401Z" fill="#FFA800"/>
</g>
<defs>
<clipPath id="clip0_0_6167">
<rect width="223" height="48" fill="white"/>
</clipPath>
</defs>
</svg>
