<svg width="48" height="48" viewBox="0 0 48 48" fill="none" xmlns="http://www.w3.org/2000/svg">
<g clip-path="url(#clip0_0_6225)">
<path fill-rule="evenodd" clip-rule="evenodd" d="M41.94 2.13011e-05H23.904L23.928 0.0120216C10.68 0.156022 0 10.716 0 23.844C0 26.952 0.624 30.024 1.836 32.892C3.66597 37.2373 6.74192 40.9433 10.6758 43.5424C14.6096 46.1414 19.2251 47.5172 23.94 47.496H24.072C37.272 47.484 48 36.9 48 23.82V5.88002C47.9932 5.09739 47.8305 4.32396 47.5214 3.6049C47.2124 2.88583 46.7631 2.23555 46.2 1.69202C45.0501 0.601738 43.5246 -0.00414067 41.94 2.13011e-05ZM16.128 13.776C18.197 11.7272 20.9922 10.5797 23.904 10.584V10.596C30.144 10.596 35.052 15.468 34.896 21.6V28.848C34.8866 29.6623 34.6033 30.4496 34.0917 31.0831C33.5801 31.7167 32.87 32.1594 32.076 32.34V32.616C32.0634 33.7661 31.5976 34.8649 30.7798 35.6737C29.962 36.4825 28.8582 36.9361 27.708 36.936H24.324C24.1738 36.9288 24.0321 36.8644 23.928 36.756C23.8697 36.7101 23.8223 36.6519 23.7891 36.5855C23.7559 36.5191 23.7378 36.4462 23.736 36.372C23.736 36.108 24.036 35.976 24.312 35.976H27.672C28.5581 35.9572 29.4036 35.6009 30.036 34.98C30.3549 34.677 30.6087 34.3121 30.782 33.9077C30.9553 33.5034 31.0445 33.068 31.044 32.628V32.496H28.236V24H32.496V21.624C32.3756 20.0152 31.8041 18.473 30.847 17.1743C29.8899 15.8756 28.586 14.873 27.0851 14.2816C25.5841 13.6902 23.9468 13.534 22.361 13.8309C20.7753 14.1278 19.3054 14.8657 18.12 15.96C16.5355 17.4343 15.5812 19.4633 15.456 21.624V24H19.656V32.484H16.56C15.6015 32.452 14.6898 32.0624 14.004 31.392C13.3286 30.7156 12.9415 29.8038 12.924 28.848V21.48C12.9252 20.0508 13.2101 18.636 13.7622 17.3176C14.3142 15.9993 15.1224 14.8037 16.14 13.8L16.128 13.776Z" fill="#3FB870"/>
<path d="M23.9039 10.584C20.9879 10.584 18.1919 11.724 16.1279 13.776C15.1067 14.7801 14.2954 15.9772 13.7413 17.2977C13.1871 18.6183 12.9011 20.0359 12.8999 21.468V28.86C12.9239 29.82 13.3199 30.732 13.9919 31.404C14.6795 32.07 15.5911 32.4552 16.5479 32.484H19.6679V24.012H15.4679V21.636C15.5867 19.4787 16.5322 17.4502 18.1079 15.972C19.2929 14.8741 20.7639 14.133 22.3514 13.8341C23.939 13.5352 25.5787 13.6905 27.0819 14.2823C28.5851 14.874 29.8907 15.8781 30.8485 17.1791C31.8062 18.48 32.3773 20.0249 32.4959 21.636V24.012H28.2479V32.496H31.0439V32.628C31.0439 33.516 30.6839 34.356 30.0359 34.98C29.4035 35.6009 28.558 35.9571 27.6719 35.976H24.3119C24.0359 35.976 23.7359 36.096 23.7359 36.372C23.7359 36.528 23.8079 36.66 23.9279 36.756C24.0239 36.864 24.1679 36.924 24.3239 36.924H27.7079C28.8581 36.9241 29.9619 36.4704 30.7797 35.6616C31.5975 34.8528 32.0633 33.7541 32.0759 32.604V32.34C32.8699 32.1594 33.58 31.7166 34.0916 31.0831C34.6032 30.4496 34.8865 29.6622 34.8959 28.848V21.6C34.9286 20.147 34.6668 18.7024 34.1261 17.3533C33.5855 16.0042 32.7772 14.7786 31.7501 13.7504C30.7229 12.7221 29.4982 11.9125 28.1497 11.3704C26.8013 10.8283 25.3569 10.5648 23.9039 10.596V10.584Z" fill="white"/>
</g>
<defs>
<clipPath id="clip0_0_6225">
<rect width="48" height="48" fill="white"/>
</clipPath>
</defs>
</svg>
