<svg width="49" height="48" viewBox="0 0 49 48" fill="none" xmlns="http://www.w3.org/2000/svg">
<path fill-rule="evenodd" clip-rule="evenodd" d="M25.0975 1.09196C19.4184 1.08782 13.9232 3.11422 9.59668 6.80811C5.27012 10.502 2.39482 15.622 1.48589 21.2509C0.57697 26.8798 1.69382 32.6497 4.63635 37.5269C7.57888 42.4042 12.1548 46.0701 17.5444 47.868C18.7395 48.0719 19.1817 47.352 19.1817 46.728C19.1817 46.152 19.1458 44.268 19.1458 42.2519C13.1463 43.368 11.5927 40.788 11.1146 39.432C10.8397 38.748 9.68048 36.612 8.66462 36.048C7.82804 35.592 6.63292 34.488 8.62877 34.452C10.5171 34.428 11.8556 36.192 12.3097 36.912C14.461 40.548 17.9029 39.528 19.2654 38.892C19.371 37.6729 19.9147 36.5341 20.7951 35.688C15.4768 35.088 9.9195 33.012 9.9195 23.832C9.9195 21.228 10.8397 19.068 12.3695 17.388C12.1305 16.788 11.2939 14.328 12.6085 11.028C12.6085 11.028 14.6044 10.392 19.1817 13.488C23.0904 12.3901 27.2242 12.3901 31.1329 13.488C35.6983 10.368 37.7061 11.028 37.7061 11.028C39.0207 14.328 38.1841 16.788 37.9451 17.388C39.5553 19.1406 40.4325 21.4478 40.3951 23.832C40.3951 33.048 34.8139 35.088 29.4956 35.688C30.3561 36.432 31.0971 37.872 31.0971 40.1279L31.0732 46.728C31.0732 47.352 31.5273 48.108 32.7224 47.868C37.4695 46.2579 41.5938 43.1928 44.5141 39.1045C47.4343 35.0163 49.0033 30.111 49 25.08C49 21.9282 48.3817 18.8074 47.1805 15.8956C45.9793 12.9837 44.2187 10.338 41.9991 8.10939C39.7796 5.88079 37.1446 4.11296 34.2446 2.90685C31.3446 1.70073 28.2365 1.07996 25.0975 1.07996V1.09196Z" fill="#18181B"/>
</svg>
