<svg width="41" height="48" viewBox="0 0 41 48" fill="none" xmlns="http://www.w3.org/2000/svg">
<path d="M35.2168 0C33.7341 0.026769 32.3204 0.631357 31.2768 1.685C30.2228 2.72841 29.6179 4.14213 29.5908 5.625V40.954C29.5908 44.908 32.3208 47.109 35.2308 47.109C37.9178 47.109 40.8708 45.243 40.8708 40.954V5.904C40.8708 2.284 38.1688 0.014 35.2028 0.014L35.2168 0Z" fill="#F6AB1B"/>
<path d="M20.428 17.9219C18.937 17.9483 17.5145 18.5524 16.46 19.6069C15.4036 20.6543 14.7989 22.0734 14.775 23.5609V40.9539C14.775 44.9089 17.518 47.1089 20.415 47.1089C23.102 47.1089 26.068 45.2429 26.068 40.9539V23.8119C26.068 20.1919 23.366 17.9219 20.414 17.9219H20.428ZM5.64 47.0949C6.37985 47.0962 7.1127 46.9517 7.79666 46.6696C8.48061 46.3875 9.10226 45.9733 9.62606 45.4508C10.1499 44.9283 10.5655 44.3077 10.8493 43.6245C11.1331 42.9412 11.2795 42.2087 11.28 41.4689C11.28 38.3639 8.759 35.8569 5.64 35.8569C2.52 35.8569 0 38.3769 0 41.4689C0 44.5609 2.52 47.0949 5.64 47.0949Z" fill="#E37525"/>
</svg>
