<svg width="54" height="48" viewBox="0 0 54 48" fill="none" xmlns="http://www.w3.org/2000/svg">
<g clip-path="url(#clip0_0_5653)">
<mask id="mask0_0_5653" style="mask-type:luminance" maskUnits="userSpaceOnUse" x="0" y="0" width="54" height="48">
<path d="M0 0.0351562H54V47.1931H0V0.0351562Z" fill="white"/>
</mask>
<g mask="url(#mask0_0_5653)">
<path d="M11.7301 44.5404L0.650072 25.8246C0.224947 25.1073 0.000976563 24.292 0.000976562 23.4618C0.000976563 22.6317 0.224947 21.8164 0.650072 21.099L11.7301 2.41272C12.1548 1.68796 12.767 1.08636 13.5045 0.668838C14.2421 0.251318 15.0788 0.0327177 15.9301 0.0351768H38.0701C38.9184 0.0356646 39.7519 0.253387 40.4884 0.666869C41.2249 1.08035 41.839 1.67531 42.2701 2.39307L53.3501 21.099C53.7742 21.8168 53.9976 22.6319 53.9976 23.4618C53.9976 24.2918 53.7742 25.1069 53.3501 25.8246L42.2701 44.5404C41.8428 45.2615 41.2296 45.8592 40.4922 46.2732C39.7548 46.6871 38.9193 46.9028 38.0701 46.8983H15.9301C15.0818 46.8978 14.2483 46.6801 13.5118 46.2666C12.7753 45.8532 12.1612 45.2582 11.7301 44.5404Z" fill="url(#paint0_linear_0_5653)"/>
<path opacity="0.07" d="M50.3 32.7112L34 16.8347L27 15.0073L20.7 17.2964L18.27 23.4663L20.22 30.3435L37.5 47.1926L41.17 47.0354L50.31 32.721L50.3 32.7112Z" fill="black"/>
<path d="M26.9997 13.9268C24.4156 13.919 21.934 14.9193 20.1002 16.7081C18.2663 18.4968 17.2303 20.9277 17.2197 23.4665C17.2197 28.7422 21.5997 33.0061 26.9997 33.0061C32.3997 33.0061 36.7797 28.7422 36.7797 23.4763C36.7797 18.2005 32.3997 13.9366 26.9997 13.9366V13.9268ZM26.9997 30.7072C25.0388 30.7124 23.156 29.9528 21.7648 28.5951C20.3736 27.2375 19.5877 25.3929 19.5797 23.4665C19.5929 21.5434 20.3812 19.7038 21.7718 18.3505C23.1625 16.9971 25.0423 16.2402 26.9997 16.2454C28.9589 16.2402 30.8402 16.9984 32.2311 18.3539C33.6221 19.7094 34.4091 21.5515 34.4197 23.4763C34.4091 25.401 33.6221 27.2431 32.2311 28.5986C30.8402 29.9541 28.9589 30.7124 26.9997 30.7072Z" fill="white"/>
<path d="M22.3599 23.1029V26.0699C22.8095 26.8221 23.4416 27.4532 24.1999 27.9071V23.093H22.3599V23.1029ZM26.0199 20.6074V28.585C26.6313 28.6936 27.2573 28.6969 27.8699 28.5948V20.6074H26.0199ZM29.8499 24.3408V27.8579C30.6244 27.3783 31.2612 26.712 31.6999 25.9225V24.3309H29.8499V24.3408ZM34.0499 29.3513L33.0299 30.3337C32.9875 30.3749 32.9539 30.4238 32.931 30.4778C32.9081 30.5317 32.8962 30.5896 32.8962 30.6481C32.8962 30.7066 32.9081 30.7645 32.931 30.8185C32.9539 30.8724 32.9875 30.9214 33.0299 30.9625L36.8699 34.7155C36.9561 34.8001 37.073 34.8476 37.1949 34.8476C37.3167 34.8476 37.4336 34.8001 37.5199 34.7155L38.5299 33.733C38.616 33.6483 38.6643 33.5335 38.6643 33.4137C38.6643 33.294 38.616 33.1792 38.5299 33.0944L34.6899 29.3415C34.6036 29.2569 34.4867 29.2094 34.3649 29.2094C34.243 29.2094 34.1261 29.2569 34.0399 29.3415L34.0499 29.3513Z" fill="white"/>
</g>
</g>
<defs>
<linearGradient id="paint0_linear_0_5653" x1="27.0001" y1="0.0450013" x2="27.0001" y2="46.8296" gradientUnits="userSpaceOnUse">
<stop stop-color="#4387FD"/>
<stop offset="1" stop-color="#4683EA"/>
</linearGradient>
<clipPath id="clip0_0_5653">
<rect width="54" height="48" fill="white"/>
</clipPath>
</defs>
</svg>
