<svg width="22" height="48" viewBox="0 0 22 48" fill="none" xmlns="http://www.w3.org/2000/svg">
<path d="M19.2178 13.9954C19.2178 16.2626 18.2761 18.2682 16.7353 19.8377C15.0232 21.5817 12.5407 22.0177 12.5407 23.5001C12.5407 25.5057 15.7081 24.8953 18.747 27.9908C20.2939 29.5425 21.3506 31.5295 21.7815 33.697C22.2124 35.8645 21.9979 38.1138 21.1655 40.1563C20.3331 42.1988 18.9207 43.9414 17.1095 45.1608C15.2983 46.3802 13.1708 47.0207 10.9999 47.0002C8.82893 47.0207 6.70144 46.3802 4.89024 45.1608C3.07903 43.9414 1.66667 42.1988 0.834267 40.1563C0.00186313 38.1138 -0.212637 35.8645 0.218273 33.697C0.649182 31.5295 1.70586 29.5425 3.2528 27.9908C6.29171 24.8953 9.45902 25.5057 9.45902 23.5001C9.45902 22.0177 6.97653 21.5817 5.26447 19.8377C3.72362 18.2682 2.78198 16.2626 2.78198 13.9082C2.78198 9.37389 6.42011 5.71155 10.8715 5.71155C11.7275 5.71155 12.4979 5.84234 13.14 5.84234C14.2956 5.84234 14.8948 5.31915 14.8948 4.49076C14.8948 4.01117 14.6808 3.40078 14.6808 2.74679C14.6922 2.01252 14.9894 1.31292 15.5071 0.801891C16.0249 0.290862 16.7207 0.0102648 17.4415 0.0218281C18.1623 0.0333914 18.8491 0.336168 19.3508 0.86355C19.8525 1.39093 20.128 2.09972 20.1166 2.83399C20.1166 4.44716 18.8754 5.18835 17.9337 5.53715C17.1633 5.79875 16.5641 6.14754 16.5641 6.93233C16.5641 8.41471 19.2178 9.85349 19.2178 13.9954ZM18.3617 35.8823C18.3617 31.566 15.2372 28.078 10.9999 28.078C6.76253 28.078 3.63801 31.566 3.63801 35.8823C3.63801 40.155 6.76253 43.6866 10.9999 43.6866C15.2372 43.6866 18.3617 40.155 18.3617 35.8823ZM15.8365 13.9082C15.8365 11.1615 13.6536 8.8943 10.9999 8.8943C8.34618 8.8943 6.1633 11.1615 6.1633 13.9082C6.1633 16.655 8.34618 18.9222 10.9999 18.9222C13.6536 18.9222 15.8365 16.655 15.8365 13.9082Z" fill="#23A47F"/>
</svg>
