<svg width="48" height="48" viewBox="0 0 48 48" fill="none" xmlns="http://www.w3.org/2000/svg">
<path d="M24.1624 40.9054C33.6671 40.9054 41.3721 33.2003 41.3721 23.6957C41.3721 14.191 33.6671 6.4859 24.1624 6.4859C14.6577 6.4859 6.95264 14.191 6.95264 23.6957C6.95264 33.2003 14.6577 40.9054 24.1624 40.9054Z" fill="#18181B"/>
<path d="M23.9658 3.23729e-05C27.1074 -0.00513739 30.2191 0.608926 33.1232 1.80712C36.0273 3.00531 38.6668 4.76414 40.8907 6.98304C43.1146 9.20194 44.8794 11.8374 46.0842 14.7388C47.2889 17.6402 47.91 20.7505 47.912 23.8921C47.907 37.0207 37.1878 47.7202 24.0051 47.7546C20.8553 47.7572 17.7358 47.1394 14.8248 45.9364C11.9138 44.7334 9.26818 42.9688 7.03909 40.7434C4.81001 38.5179 3.04108 35.8752 1.83331 32.9662C0.625543 30.0571 0.00258182 26.9387 0 23.7888C0.0147512 10.6799 10.7684 3.23729e-05 23.9658 3.23729e-05ZM17.4261 17.613V13.222C17.4261 12.3124 16.9541 11.8698 16.0198 11.8944H15.833C15.4347 11.8453 15.2872 12.0075 15.2921 12.4156V25.0034C15.2921 25.205 15.2429 25.5049 15.538 25.5147C16.128 25.5393 16.7574 25.6229 17.2835 25.4311C17.613 25.3082 17.4064 24.6936 17.4163 24.31C17.4359 23.189 17.4163 22.0679 17.431 20.9517C17.431 20.5534 17.4704 20.1453 17.5687 19.7568C17.849 18.6112 18.6013 18.0457 19.7175 18.0998C20.7501 18.1489 21.4384 18.7931 21.5024 20.0027C21.5859 21.645 21.5614 23.2922 21.5515 24.9394C21.5515 25.4016 21.64 25.6475 22.1662 25.5885C22.4767 25.5557 22.7899 25.5557 23.1004 25.5885C23.5528 25.6377 23.6855 25.441 23.6806 25.0083C23.6659 23.2037 23.7396 21.4041 23.6757 19.5995C23.597 17.2491 22.1416 16.0395 19.806 16.2657C18.8914 16.3542 18.1784 16.8164 17.4212 17.613H17.4261ZM23.9314 35.8307C25.4065 35.7717 26.6456 35.6046 27.8503 35.2653C29.9564 34.6759 31.9015 33.6167 33.5394 32.1675C34.0458 31.7201 34.3064 31.1989 33.8295 30.6236C33.3525 30.0581 32.7969 30.1712 32.2757 30.6285L31.9856 30.8743C30.7219 31.9212 29.2622 32.7056 27.6919 33.1817C26.1215 33.6579 24.472 33.8163 22.8398 33.6476C20.2117 33.4121 17.7283 32.3401 15.7543 30.5891C15.1938 30.1073 14.6135 30.0433 14.1169 30.6383C13.6596 31.1939 13.8071 31.7496 14.348 32.1823C17.0684 34.399 20.4306 35.6801 23.9363 35.8357L23.9314 35.8307ZM31.012 20.1453C31.5445 20.1466 32.0558 19.9366 32.4337 19.5615C32.8117 19.1863 33.0254 18.6766 33.028 18.144C33.028 17.0623 32.1773 16.1821 31.0907 16.1526C30.8285 16.1471 30.5678 16.1933 30.3235 16.2886C30.0792 16.3838 29.856 16.5263 29.6668 16.7078C29.4775 16.8893 29.3259 17.1063 29.2205 17.3464C29.1151 17.5865 29.058 17.845 29.0525 18.1072C29.047 18.3693 29.0932 18.63 29.1885 18.8743C29.2838 19.1186 29.4262 19.3418 29.6077 19.531C29.7892 19.7203 30.0062 19.8719 30.2463 19.9773C30.4864 20.0827 30.7449 20.1398 31.0071 20.1453H31.012Z" fill="#F9DE00"/>
</svg>
