<svg width="46" height="48" viewBox="0 0 46 48" fill="none" xmlns="http://www.w3.org/2000/svg">
<g clip-path="url(#clip0_0_5319)">
<path d="M34.7309 15.8138V10.1783C35.4748 9.83032 36.1046 9.27797 36.547 8.5856C36.9894 7.89323 37.2262 7.08933 37.2298 6.26748V6.1361C37.2267 4.98744 36.7694 3.88673 35.9579 3.07451C35.1464 2.26229 34.0467 1.80461 32.899 1.80148H32.769C31.6211 1.8043 30.5211 2.26184 29.7093 3.0741C28.8976 3.88635 28.4401 4.98724 28.437 6.1361V6.26748C28.4404 7.08952 28.6773 7.89363 29.12 8.58607C29.5626 9.2785 30.1928 9.83072 30.9371 10.1783V15.8126C28.7976 16.1403 26.7825 17.0281 25.0961 18.3859L9.63683 6.34679C9.74692 5.94954 9.80574 5.53981 9.81186 5.1276C9.81302 4.1605 9.52764 3.21477 8.9918 2.41001C8.45595 1.60524 7.69371 0.977588 6.80147 0.606414C5.90922 0.235239 4.92704 0.137216 3.97914 0.32474C3.03123 0.512264 2.16017 0.976913 1.47611 1.65993C0.792043 2.34295 0.325699 3.21365 0.136047 4.16194C-0.053605 5.11023 0.0419532 6.09352 0.410638 6.98745C0.779323 7.88138 1.40457 8.64581 2.20733 9.18408C3.01008 9.72235 3.95428 10.0103 4.92052 10.0114C5.76916 10.0085 6.60207 9.78193 7.33544 9.3545L22.5357 21.1972C21.1666 23.2644 20.4523 25.697 20.4861 28.1769C20.5198 30.6569 21.3001 33.069 22.7249 35.0982L18.1009 39.7276C17.7293 39.6096 17.3424 39.547 16.9525 39.5417C16.1584 39.5417 15.3822 39.7774 14.7219 40.219C14.0617 40.6605 13.547 41.2882 13.2432 42.0225C12.9393 42.7568 12.8598 43.5648 13.0147 44.3443C13.1696 45.1238 13.552 45.8399 14.1135 46.4019C14.675 46.9639 15.3904 47.3466 16.1693 47.5017C16.9481 47.6567 17.7554 47.5771 18.489 47.273C19.2227 46.9688 19.8497 46.4538 20.2909 45.7929C20.7321 45.132 20.9675 44.3551 20.9675 43.5603C20.9622 43.1705 20.8992 42.7835 20.7807 42.4121L25.3574 37.8313C26.8512 38.9736 28.586 39.7592 30.4294 40.1281C32.2728 40.497 34.176 40.4394 35.9937 39.9597C37.8115 39.48 39.4957 38.591 40.9178 37.3604C42.3399 36.1299 43.4622 34.5904 44.1991 32.8594C44.936 31.1285 45.268 29.2519 45.1697 27.3729C45.0715 25.494 44.5455 23.6623 43.6321 22.0178C42.7187 20.3734 41.4419 18.9596 39.8992 17.8843C38.3565 16.8091 36.5888 16.1009 34.7309 15.8138ZM32.8352 34.3501C31.1559 34.3501 29.5454 33.6824 28.3579 32.494C27.1705 31.3055 26.5034 29.6935 26.5034 28.0127C26.5034 26.332 27.1705 24.72 28.3579 23.5315C29.5454 22.343 31.1559 21.6754 32.8352 21.6754C34.5145 21.6754 36.125 22.343 37.3124 23.5315C38.4999 24.72 39.167 26.332 39.167 28.0127C39.167 29.6935 38.4999 31.3055 37.3124 32.494C36.125 33.6824 34.5145 34.3501 32.8352 34.3501Z" fill="#FF7A59"/>
</g>
<defs>
<clipPath id="clip0_0_5319">
<rect width="46" height="48" fill="white"/>
</clipPath>
</defs>
</svg>
