<svg width="46" height="48" viewBox="0 0 46 48" fill="none" xmlns="http://www.w3.org/2000/svg">
<g clip-path="url(#clip0_0_5187)">
<mask id="path-1-inside-1_0_5187" fill="white">
<path d="M39.7279 26.4288C39.7279 26.8429 39.5698 27.2396 39.2894 27.5308C39.1528 27.6748 38.9887 27.7897 38.8069 27.8684C38.625 27.9471 38.4293 27.9881 38.2313 27.989C37.8355 27.989 37.4547 27.8242 37.1743 27.5319C36.892 27.2353 36.7349 26.8404 36.7358 26.4299V12.496C36.7358 12.0819 36.8927 11.6863 37.1743 11.394C37.3107 11.2501 37.4746 11.1354 37.6563 11.0568C37.8379 10.9783 38.0335 10.9375 38.2313 10.937C38.6282 10.937 39.009 11.1005 39.2894 11.3928C39.5698 11.6863 39.7279 12.083 39.7279 12.496V26.4288ZM39.2086 36.0823C39.0102 36.2888 33.4472 41.1225 23.2466 41.1225C13.0472 41.1225 7.52107 36.3143 7.28567 36.109C7.1371 35.9773 7.01558 35.8177 6.92796 35.6392C6.79391 35.3684 6.74005 35.0646 6.77278 34.764C6.80551 34.4633 6.92345 34.1784 7.11259 33.9432C7.2373 33.7901 7.39152 33.6639 7.56598 33.5722C7.74044 33.4804 7.93154 33.4251 8.12781 33.4095C8.32407 33.3939 8.52145 33.4183 8.70808 33.4814C8.89472 33.5444 9.06675 33.6447 9.21386 33.7762C9.30156 33.84 14.2715 38.0415 23.2339 38.0415C32.1986 38.0415 37.2054 33.8145 37.2551 33.775C37.404 33.6447 37.5773 33.5456 37.7648 33.4834C37.9524 33.4212 38.1503 33.3973 38.3472 33.4129C38.544 33.4286 38.7358 33.4836 38.9112 33.5746C39.0867 33.6657 39.2423 33.791 39.369 33.9432C39.6223 34.2531 39.7482 34.6486 39.7207 35.0487C39.6932 35.4487 39.5146 35.8231 39.2213 36.095L39.2086 36.0823ZM6.75372 12.496C6.7768 12.0807 6.95565 11.6921 7.25221 11.4149C7.54876 11.1365 7.93879 10.9926 8.33689 11.0135C8.70614 11.0367 9.05462 11.1991 9.31425 11.4729C9.57503 11.7466 9.7285 12.1109 9.74581 12.496V26.4044C9.74581 26.8185 9.58888 27.2141 9.30733 27.5064C9.17081 27.6502 9.00682 27.7648 8.8252 27.8433C8.64358 27.9218 8.44805 27.9627 8.25034 27.9634C7.8534 27.9634 7.47261 27.7999 7.19221 27.5076C6.90968 27.2106 6.75253 26.8153 6.75372 26.4044V12.496ZM14.2588 9.40228C14.2818 8.98816 14.4607 8.5984 14.7572 8.32116C14.902 8.1846 15.0727 8.07877 15.259 8.01001C15.4454 7.94125 15.6437 7.91096 15.8419 7.92096C16.2112 7.94184 16.5585 8.10656 16.8193 8.37916C17.0789 8.65292 17.2335 9.01716 17.2509 9.40228V30.0248C17.2509 30.4389 17.0928 30.8356 16.8124 31.1268C16.6759 31.2707 16.512 31.3855 16.3304 31.4643C16.1488 31.543 15.9532 31.5841 15.7554 31.585C15.3584 31.585 14.9776 31.4202 14.6972 31.1279C14.415 30.8313 14.2579 30.4364 14.2588 30.0259V9.40112V9.40228ZM21.8007 8.62972C21.8007 8.2156 21.9577 7.81888 22.2392 7.52772C22.3755 7.38358 22.5394 7.26868 22.7211 7.18993C22.9027 7.11118 23.0984 7.07022 23.2962 7.06952C23.6931 7.06952 24.0739 7.23424 24.3543 7.52656C24.6347 7.81888 24.7928 8.2156 24.7928 8.62856V31.056C24.7928 31.4701 24.6347 31.8657 24.3543 32.158C24.2177 32.3019 24.0535 32.4166 23.8717 32.4951C23.6898 32.5737 23.4941 32.6144 23.2962 32.615C22.8993 32.615 22.5196 32.4515 22.2392 32.1592C21.9567 31.8622 21.7995 31.4669 21.8007 31.056V8.62972ZM29.2192 9.40228C29.2192 8.98932 29.3762 8.5926 29.6577 8.30028C29.7941 8.15635 29.9581 8.04166 30.1397 7.96311C30.3214 7.88457 30.517 7.84379 30.7147 7.84324C31.1116 7.84324 31.4924 8.00796 31.7728 8.30028C32.0532 8.5926 32.2113 8.98932 32.2113 9.40228V30.0248C32.2113 30.4389 32.0532 30.8356 31.7728 31.1268C31.6363 31.2709 31.4722 31.3858 31.2903 31.4645C31.1085 31.5432 30.9127 31.5842 30.7147 31.585C30.3177 31.585 29.937 31.4202 29.6566 31.1279C29.3743 30.8313 29.2172 30.4364 29.2181 30.0259V9.40112L29.2192 9.40228ZM40.1352 0.896H6.40755C5.67129 0.890965 4.94175 1.03701 4.26358 1.3252C3.57874 1.61677 2.95885 2.04312 2.4404 2.57916C1.91568 3.12238 1.50104 3.76299 1.21956 4.46532C0.933982 5.17415 0.785551 5.93125 0.782227 6.696V41.496C0.785688 42.2616 0.934543 43.0202 1.21841 43.7267C1.50054 44.4292 1.91598 45.0698 2.44155 45.6128C2.96427 46.1511 3.58392 46.5768 4.26473 46.8656C4.94554 47.1556 5.6725 47.3006 6.40755 47.2948H40.1364C40.8714 47.2997 41.5997 47.154 42.2769 46.8668C42.9606 46.576 43.5797 46.1509 44.0978 45.6163C44.6227 45.075 45.0381 44.4364 45.3209 43.736C45.6071 43.0307 45.7559 42.2744 45.7617 41.5088V6.69716C45.7588 5.93334 45.6112 5.17706 45.3267 4.4688C45.0454 3.76698 44.6312 3.12678 44.107 2.5838C43.5899 2.04832 42.9716 1.622 42.2884 1.32984C41.6116 1.04062 40.8833 0.893004 40.1479 0.896"/>
</mask>
<path d="M39.7279 26.4288C39.7279 26.8429 39.5698 27.2396 39.2894 27.5308C39.1528 27.6748 38.9887 27.7897 38.8069 27.8684C38.625 27.9471 38.4293 27.9881 38.2313 27.989C37.8355 27.989 37.4547 27.8242 37.1743 27.5319C36.892 27.2353 36.7349 26.8404 36.7358 26.4299V12.496C36.7358 12.0819 36.8927 11.6863 37.1743 11.394C37.3107 11.2501 37.4746 11.1354 37.6563 11.0568C37.8379 10.9783 38.0335 10.9375 38.2313 10.937C38.6282 10.937 39.009 11.1005 39.2894 11.3928C39.5698 11.6863 39.7279 12.083 39.7279 12.496V26.4288ZM39.2086 36.0823C39.0102 36.2888 33.4472 41.1225 23.2466 41.1225C13.0472 41.1225 7.52107 36.3143 7.28567 36.109C7.1371 35.9773 7.01558 35.8177 6.92796 35.6392C6.79391 35.3684 6.74005 35.0646 6.77278 34.764C6.80551 34.4633 6.92345 34.1784 7.11259 33.9432C7.2373 33.7901 7.39152 33.6639 7.56598 33.5722C7.74044 33.4804 7.93154 33.4251 8.12781 33.4095C8.32407 33.3939 8.52145 33.4183 8.70808 33.4814C8.89472 33.5444 9.06675 33.6447 9.21386 33.7762C9.30156 33.84 14.2715 38.0415 23.2339 38.0415C32.1986 38.0415 37.2054 33.8145 37.2551 33.775C37.404 33.6447 37.5773 33.5456 37.7648 33.4834C37.9524 33.4212 38.1503 33.3973 38.3472 33.4129C38.544 33.4286 38.7358 33.4836 38.9112 33.5746C39.0867 33.6657 39.2423 33.791 39.369 33.9432C39.6223 34.2531 39.7482 34.6486 39.7207 35.0487C39.6932 35.4487 39.5146 35.8231 39.2213 36.095L39.2086 36.0823ZM6.75372 12.496C6.7768 12.0807 6.95565 11.6921 7.25221 11.4149C7.54876 11.1365 7.93879 10.9926 8.33689 11.0135C8.70614 11.0367 9.05462 11.1991 9.31425 11.4729C9.57503 11.7466 9.7285 12.1109 9.74581 12.496V26.4044C9.74581 26.8185 9.58888 27.2141 9.30733 27.5064C9.17081 27.6502 9.00682 27.7648 8.8252 27.8433C8.64358 27.9218 8.44805 27.9627 8.25034 27.9634C7.8534 27.9634 7.47261 27.7999 7.19221 27.5076C6.90968 27.2106 6.75253 26.8153 6.75372 26.4044V12.496ZM14.2588 9.40228C14.2818 8.98816 14.4607 8.5984 14.7572 8.32116C14.902 8.1846 15.0727 8.07877 15.259 8.01001C15.4454 7.94125 15.6437 7.91096 15.8419 7.92096C16.2112 7.94184 16.5585 8.10656 16.8193 8.37916C17.0789 8.65292 17.2335 9.01716 17.2509 9.40228V30.0248C17.2509 30.4389 17.0928 30.8356 16.8124 31.1268C16.6759 31.2707 16.512 31.3855 16.3304 31.4643C16.1488 31.543 15.9532 31.5841 15.7554 31.585C15.3584 31.585 14.9776 31.4202 14.6972 31.1279C14.415 30.8313 14.2579 30.4364 14.2588 30.0259V9.40112V9.40228ZM21.8007 8.62972C21.8007 8.2156 21.9577 7.81888 22.2392 7.52772C22.3755 7.38358 22.5394 7.26868 22.7211 7.18993C22.9027 7.11118 23.0984 7.07022 23.2962 7.06952C23.6931 7.06952 24.0739 7.23424 24.3543 7.52656C24.6347 7.81888 24.7928 8.2156 24.7928 8.62856V31.056C24.7928 31.4701 24.6347 31.8657 24.3543 32.158C24.2177 32.3019 24.0535 32.4166 23.8717 32.4951C23.6898 32.5737 23.4941 32.6144 23.2962 32.615C22.8993 32.615 22.5196 32.4515 22.2392 32.1592C21.9567 31.8622 21.7995 31.4669 21.8007 31.056V8.62972ZM29.2192 9.40228C29.2192 8.98932 29.3762 8.5926 29.6577 8.30028C29.7941 8.15635 29.9581 8.04166 30.1397 7.96311C30.3214 7.88457 30.517 7.84379 30.7147 7.84324C31.1116 7.84324 31.4924 8.00796 31.7728 8.30028C32.0532 8.5926 32.2113 8.98932 32.2113 9.40228V30.0248C32.2113 30.4389 32.0532 30.8356 31.7728 31.1268C31.6363 31.2709 31.4722 31.3858 31.2903 31.4645C31.1085 31.5432 30.9127 31.5842 30.7147 31.585C30.3177 31.585 29.937 31.4202 29.6566 31.1279C29.3743 30.8313 29.2172 30.4364 29.2181 30.0259V9.40112L29.2192 9.40228ZM40.1352 0.896H6.40755C5.67129 0.890965 4.94175 1.03701 4.26358 1.3252C3.57874 1.61677 2.95885 2.04312 2.4404 2.57916C1.91568 3.12238 1.50104 3.76299 1.21956 4.46532C0.933982 5.17415 0.785551 5.93125 0.782227 6.696V41.496C0.785688 42.2616 0.934543 43.0202 1.21841 43.7267C1.50054 44.4292 1.91598 45.0698 2.44155 45.6128C2.96427 46.1511 3.58392 46.5768 4.26473 46.8656C4.94554 47.1556 5.6725 47.3006 6.40755 47.2948H40.1364C40.8714 47.2997 41.5997 47.154 42.2769 46.8668C42.9606 46.576 43.5797 46.1509 44.0978 45.6163C44.6227 45.075 45.0381 44.4364 45.3209 43.736C45.6071 43.0307 45.7559 42.2744 45.7617 41.5088V6.69716C45.7588 5.93334 45.6112 5.17706 45.3267 4.4688C45.0454 3.76698 44.6312 3.12678 44.107 2.5838C43.5899 2.04832 42.9716 1.622 42.2884 1.32984C41.6116 1.04062 40.8833 0.893004 40.1479 0.896" fill="#18181B"/>
<path d="M39.2894 27.5308L38.5691 26.8371L38.5637 26.8427L39.2894 27.5308ZM38.2313 27.989V28.989L38.2354 28.989L38.2313 27.989ZM37.1743 27.5319L36.4498 28.2213L36.4526 28.2242L37.1743 27.5319ZM36.7358 26.4299L37.7358 26.4321V26.4299H36.7358ZM37.1743 11.394L37.8946 12.0877L37.9001 12.0819L37.1743 11.394ZM38.2313 10.937V9.93696L38.2285 9.93696L38.2313 10.937ZM39.2894 11.3928L40.0124 10.702L40.0111 10.7006L39.2894 11.3928ZM39.2086 36.0823L39.9177 35.3772L39.1965 34.6519L38.4877 35.3893L39.2086 36.0823ZM7.28567 36.109L6.62245 36.8574L6.62835 36.8626L7.28567 36.109ZM6.92796 35.6392L7.8257 35.1986L7.82414 35.1955L6.92796 35.6392ZM7.11259 33.9432L6.33716 33.3118L6.33328 33.3166L7.11259 33.9432ZM9.21386 33.7762L8.5473 34.5217L8.58484 34.5552L8.62557 34.5848L9.21386 33.7762ZM37.2551 33.775L37.8773 34.5579L37.8958 34.5432L37.9135 34.5277L37.2551 33.775ZM39.369 33.9432L40.1432 33.3102L40.1377 33.3036L39.369 33.9432ZM39.2213 36.095L38.5122 36.8002L39.1932 37.4849L39.9013 36.8283L39.2213 36.095ZM6.75372 12.496L5.75526 12.4405L5.75372 12.4682V12.496H6.75372ZM7.25221 11.4149L7.93513 12.1454L7.93665 12.144L7.25221 11.4149ZM8.33689 11.0135L8.3996 10.0154L8.38926 10.0149L8.33689 11.0135ZM9.31425 11.4729L8.58866 12.161L8.59019 12.1626L9.31425 11.4729ZM9.74581 12.496H10.7458V12.4735L10.7448 12.4511L9.74581 12.496ZM9.30733 27.5064L8.58706 26.8127L8.58217 26.8178L9.30733 27.5064ZM8.25034 27.9634V28.9634L8.25415 28.9634L8.25034 27.9634ZM7.19221 27.5076L6.46776 28.1969L6.47054 28.1998L7.19221 27.5076ZM6.75372 26.4044L7.75372 26.4073V26.4044H6.75372ZM14.2588 9.40228H13.2588L15.2572 9.45792L14.2588 9.40228ZM14.7572 8.32116L15.4402 9.05166L15.4434 9.04857L14.7572 8.32116ZM15.8419 7.92096L15.8984 6.92254L15.8923 6.92223L15.8419 7.92096ZM16.8193 8.37916L17.5449 7.69102L17.5419 7.68789L16.8193 8.37916ZM17.2509 9.40228H18.2509V9.37982L18.2498 9.35738L17.2509 9.40228ZM16.8124 31.1268L16.0921 30.4331L16.0865 30.439L16.8124 31.1268ZM15.7554 31.585V32.585L15.7599 32.5849L15.7554 31.585ZM14.6972 31.1279L13.9728 31.8173L13.9756 31.8202L14.6972 31.1279ZM14.2588 30.0259L15.2588 30.0281V30.0259H14.2588ZM22.2392 7.52772L22.9581 8.22291L22.9658 8.21478L22.2392 7.52772ZM23.2962 7.06952V6.06951L23.2926 6.06953L23.2962 7.06952ZM24.3543 32.158L23.6327 31.4658L23.6292 31.4694L24.3543 32.158ZM23.2962 32.615V33.615L23.2992 33.615L23.2962 32.615ZM22.2392 32.1592L21.5148 32.8485L21.5175 32.8514L22.2392 32.1592ZM21.8007 31.056L22.8007 31.0589V31.056H21.8007ZM29.2192 9.40228L28.5099 10.1072L30.2192 11.8271V9.40228H29.2192ZM29.6577 8.30028L30.378 8.99402L30.3836 8.98814L29.6577 8.30028ZM30.7147 7.84324V6.84324L30.7119 6.84324L30.7147 7.84324ZM31.7728 31.1268L31.0525 30.4331L31.0469 30.439L31.7728 31.1268ZM30.7147 31.585V32.585L30.7185 32.585L30.7147 31.585ZM29.6566 31.1279L28.9321 31.8173L28.9349 31.8202L29.6566 31.1279ZM29.2181 30.0259L30.2181 30.0281V30.0259H29.2181ZM29.2181 9.40112L29.9274 8.69621L28.2181 6.97625V9.40112H29.2181ZM6.40755 0.896L6.40071 1.896H6.40755V0.896ZM4.26358 1.3252L3.87248 0.404852L3.87185 0.405117L4.26358 1.3252ZM2.4404 2.57916L1.7216 1.88394L1.72115 1.88441L2.4404 2.57916ZM1.21956 4.46532L2.14711 4.83902L2.14779 4.83733L1.21956 4.46532ZM0.782227 6.696L-0.217773 6.69165V6.696H0.782227ZM0.782227 41.496H-0.217784L-0.217763 41.5005L0.782227 41.496ZM1.21841 43.7267L2.14637 43.354L2.1463 43.3538L1.21841 43.7267ZM2.44155 45.6128L1.72301 46.3083L1.72418 46.3095L2.44155 45.6128ZM4.26473 46.8656L4.65662 45.9456L4.6553 45.9451L4.26473 46.8656ZM6.40755 47.2948V46.2948L6.39966 46.2949L6.40755 47.2948ZM40.1364 47.2948L40.143 46.2948H40.1364V47.2948ZM42.2769 46.8668L42.6674 47.7874L42.6682 47.7871L42.2769 46.8668ZM44.0978 45.6163L43.3799 44.9202L43.3796 44.9204L44.0978 45.6163ZM45.3209 43.736L44.3943 43.36L44.3936 43.3616L45.3209 43.736ZM45.7617 41.5088L46.7617 41.5163V41.5088H45.7617ZM45.7617 6.69716H46.7617L46.7617 6.69338L45.7617 6.69716ZM45.3267 4.4688L44.3984 4.8408L44.3987 4.84154L45.3267 4.4688ZM44.107 2.5838L44.8264 1.88926L44.8263 1.88912L44.107 2.5838ZM42.2884 1.32984L42.6816 0.410393L42.6814 0.410286L42.2884 1.32984ZM39.7279 26.4288H38.7279C38.7279 26.5906 38.6656 26.7369 38.5691 26.8371L39.2894 27.5308L40.0097 28.2244C40.474 27.7423 40.7279 27.0951 40.7279 26.4288H39.7279ZM39.2894 27.5308L38.5637 26.8427C38.5198 26.8891 38.4673 26.9257 38.4095 26.9507L38.8069 27.8684L39.2042 28.7861C39.5101 28.6536 39.7858 28.4606 40.0151 28.2188L39.2894 27.5308ZM38.8069 27.8684L38.4095 26.9507C38.3517 26.9758 38.2897 26.9887 38.2272 26.989L38.2313 27.989L38.2354 28.989C38.5688 28.9876 38.8983 28.9185 39.2042 28.7861L38.8069 27.8684ZM38.2313 27.989V26.989C38.1152 26.989 37.9929 26.9407 37.896 26.8397L37.1743 27.5319L36.4526 28.2242C36.9165 28.7078 37.5558 28.989 38.2313 28.989V27.989ZM37.1743 27.5319L37.8987 26.8426C37.7944 26.7329 37.7355 26.5859 37.7358 26.4321L36.7358 26.4299L35.7358 26.4277C35.7344 27.0949 35.9897 27.7377 36.4499 28.2213L37.1743 27.5319ZM36.7358 26.4299H37.7358V12.496H36.7358H35.7358V26.4299H36.7358ZM36.7358 12.496H37.7358C37.7358 12.3335 37.7973 12.1887 37.8945 12.0877L37.1743 11.394L36.454 10.7003C35.9882 11.184 35.7358 11.8302 35.7358 12.496H36.7358ZM37.1743 11.394L37.9001 12.0819C37.9437 12.0358 37.9959 11.9995 38.0532 11.9747L37.6563 11.0568L37.2594 10.139C36.9534 10.2713 36.6776 10.4643 36.4484 10.7061L37.1743 11.394ZM37.6563 11.0568L38.0532 11.9747C38.1105 11.9499 38.172 11.9371 38.2341 11.937L38.2313 10.937L38.2285 9.93696C37.8951 9.93789 37.5654 10.0067 37.2594 10.139L37.6563 11.0568ZM38.2313 10.937V11.937C38.3509 11.937 38.4725 11.9858 38.5677 12.0851L39.2894 11.3928L40.0111 10.7006C39.5455 10.2152 38.9056 9.93696 38.2313 9.93696V10.937ZM39.2894 11.3928L38.5664 12.0837C38.6663 12.1882 38.7279 12.3364 38.7279 12.496H39.7279H40.7279C40.7279 11.8297 40.4733 11.1844 40.0124 10.702L39.2894 11.3928ZM39.7279 12.496H38.7279V26.4288H39.7279H40.7279V12.496H39.7279ZM39.2086 36.0823L38.4877 35.3893C38.4934 35.3834 37.1644 36.5768 34.5615 37.7709C31.9839 38.9532 28.1847 40.1225 23.2466 40.1225V41.1225V42.1225C33.7578 42.1225 39.5711 37.1483 39.9296 36.7753L39.2086 36.0823ZM23.2466 41.1225V40.1225C13.3793 40.1225 8.07847 35.4735 7.94299 35.3553L7.28567 36.109L6.62835 36.8626C6.96367 37.155 12.715 42.1225 23.2466 42.1225V41.1225ZM7.28567 36.109L7.94888 35.3605C7.89798 35.3154 7.85605 35.2605 7.82569 35.1986L6.92796 35.6392L6.03023 36.0797C6.17512 36.375 6.37622 36.6392 6.62247 36.8574L7.28567 36.109ZM6.92796 35.6392L7.82414 35.1955C7.77478 35.0958 7.75479 34.9835 7.7669 34.8722L6.77278 34.764L5.77865 34.6557C5.72531 35.1457 5.81304 35.641 6.03178 36.0828L6.92796 35.6392ZM6.77278 34.764L7.7669 34.8722C7.77902 34.7609 7.82263 34.656 7.89189 34.5699L7.11259 33.9432L6.33328 33.3166C6.02427 33.7009 5.83199 34.1657 5.77865 34.6557L6.77278 34.764ZM7.11259 33.9432L7.888 34.5747C7.9277 34.5259 7.97651 34.4861 8.03132 34.4573L7.56598 33.5722L7.10064 32.687C6.80652 32.8416 6.5469 33.0542 6.33717 33.3118L7.11259 33.9432ZM7.56598 33.5722L8.03132 34.4573C8.0861 34.4285 8.14587 34.4112 8.20705 34.4064L8.12781 33.4095L8.04856 32.4127C7.71721 32.439 7.39478 32.5324 7.10064 32.687L7.56598 33.5722ZM8.12781 33.4095L8.20705 34.4064C8.26824 34.4015 8.32983 34.4091 8.38819 34.4288L8.70808 33.4814L9.02798 32.5339C8.71308 32.4276 8.37991 32.3863 8.04856 32.4127L8.12781 33.4095ZM8.70808 33.4814L8.38819 34.4288C8.44656 34.4485 8.50073 34.48 8.5473 34.5217L9.21386 33.7762L9.88042 33.0307C9.63278 32.8093 9.34287 32.6402 9.02798 32.5339L8.70808 33.4814ZM9.21386 33.7762L8.62557 34.5848C8.58775 34.5573 8.99193 34.8883 9.63523 35.3074C10.2924 35.7356 11.2481 36.293 12.4886 36.8461C14.9712 37.953 18.5926 39.0415 23.2339 39.0415V38.0415V37.0415C14.606 37.0415 9.85683 33.0073 9.80215 32.9676L9.21386 33.7762ZM23.2339 38.0415V39.0415C27.8771 39.0415 31.5085 37.9462 33.9953 36.8362C35.2379 36.2815 36.1947 35.7232 36.8501 35.2961C37.1778 35.0824 37.4305 34.9014 37.606 34.7697C37.7801 34.6391 37.888 34.5493 37.8773 34.5579L37.2551 33.775L36.6328 32.9922C36.6214 33.0013 36.3313 33.2468 35.7579 33.6206C35.1804 33.9971 34.3159 34.5029 33.18 35.0099C30.9098 36.0233 27.5554 37.0415 23.2339 37.0415V38.0415ZM37.2551 33.775L37.9135 34.5277C37.9623 34.485 38.0188 34.4527 38.0796 34.4326L37.7648 33.4834L37.4501 32.5342C37.1358 32.6384 36.8457 32.8045 36.5966 33.0224L37.2551 33.775ZM37.7648 33.4834L38.0796 34.4326C38.1403 34.4125 38.2043 34.4047 38.2679 34.4098L38.3472 33.4129L38.4265 32.4161C38.0964 32.3898 37.7644 32.43 37.4501 32.5342L37.7648 33.4834ZM38.3472 33.4129L38.2679 34.4098C38.3314 34.4148 38.3936 34.4326 38.4506 34.4622L38.9112 33.5746L39.3719 32.687C39.078 32.5345 38.7566 32.4424 38.4265 32.4161L38.3472 33.4129ZM38.9112 33.5746L38.4506 34.4622C38.5077 34.4918 38.5587 34.5328 38.6004 34.5829L39.369 33.9432L40.1377 33.3036C39.926 33.0492 39.6657 32.8395 39.3719 32.687L38.9112 33.5746ZM39.369 33.9432L38.5949 34.5762C38.6868 34.6887 38.7331 34.8332 38.723 34.9802L39.7207 35.0487L40.7184 35.1171C40.7632 34.4639 40.5579 33.8175 40.1432 33.3103L39.369 33.9432ZM39.7207 35.0487L38.723 34.9802C38.713 35.1271 38.6474 35.2635 38.5414 35.3618L39.2213 36.095L39.9013 36.8283C40.3818 36.3828 40.6735 35.7704 40.7184 35.1171L39.7207 35.0487ZM39.2213 36.095L39.9304 35.3899L39.9177 35.3772L39.2086 36.0823L38.4996 36.7874L38.5122 36.8002L39.2213 36.095ZM6.75372 12.496L7.75218 12.5515C7.7614 12.3856 7.83244 12.2414 7.93513 12.1454L7.25221 11.4149L6.56929 10.6844C6.07887 11.1429 5.7922 11.7758 5.75526 12.4405L6.75372 12.496ZM7.25221 11.4149L7.93665 12.144C8.03818 12.0486 8.16338 12.0058 8.28451 12.0121L8.33689 11.0135L8.38926 10.0149C7.71419 9.97949 7.05935 10.2243 6.56777 10.6858L7.25221 11.4149ZM8.33689 11.0135L8.27418 12.0116C8.38956 12.0188 8.50173 12.0694 8.58867 12.161L9.31425 11.4729L10.0398 10.7847C9.6075 10.3289 9.02272 10.0546 8.39959 10.0155L8.33689 11.0135ZM9.31425 11.4729L8.59019 12.1626C8.68066 12.2576 8.74009 12.3912 8.74682 12.5409L9.74581 12.496L10.7448 12.4511C10.7169 11.8306 10.4694 11.2357 10.0383 10.7831L9.31425 11.4729ZM9.74581 12.496H8.74581V26.4044H9.74581H10.7458V12.496H9.74581ZM9.74581 26.4044H8.74581C8.74581 26.5669 8.6843 26.7117 8.58708 26.8127L9.30733 27.5064L10.0276 28.2001C10.4935 27.7164 10.7458 27.0702 10.7458 26.4044H9.74581ZM9.30733 27.5064L8.58217 26.8178C8.53831 26.864 8.48593 26.9005 8.42831 26.9254L8.8252 27.8433L9.22209 28.7612C9.52772 28.629 9.8033 28.4363 10.0325 28.195L9.30733 27.5064ZM8.8252 27.8433L8.42831 26.9254C8.37071 26.9503 8.3089 26.9632 8.24654 26.9634L8.25034 27.9634L8.25415 28.9634C8.5872 28.9622 8.91644 28.8933 9.22209 28.7612L8.8252 27.8433ZM8.25034 27.9634V26.9634C8.13075 26.9634 8.00911 26.9146 7.91387 26.8153L7.19221 27.5076L6.47054 28.1998C6.9361 28.6852 7.57605 28.9634 8.25034 28.9634V27.9634ZM7.19221 27.5076L7.91664 26.8182C7.81221 26.7085 7.75327 26.5613 7.75372 26.4073L6.75372 26.4044L5.75372 26.4015C5.75179 27.0693 6.00715 27.7128 6.46777 28.1969L7.19221 27.5076ZM6.75372 26.4044H7.75372V12.496H6.75372H5.75372V26.4044H6.75372ZM14.2588 9.40228L15.2572 9.45792C15.2664 9.29261 15.3378 9.14733 15.4402 9.05166L14.7572 8.32116L14.0743 7.59066C13.5836 8.04947 13.2973 8.68371 13.2603 9.34664L14.2588 9.40228ZM14.7572 8.32116L15.4434 9.04857C15.4904 9.00428 15.5455 8.97023 15.6052 8.94819L15.259 8.01001L14.9129 7.07183C14.5999 7.18731 14.3136 7.36491 14.0711 7.59375L14.7572 8.32116ZM15.259 8.01001L15.6052 8.94819C15.6649 8.92616 15.7283 8.9165 15.7916 8.91969L15.8419 7.92096L15.8923 6.92223C15.559 6.90543 15.2259 6.95635 14.9129 7.07183L15.259 8.01001ZM15.8419 7.92096L15.7855 8.91936C15.8911 8.92534 16.0035 8.97301 16.0967 9.07043L16.8193 8.37916L17.5419 7.68789C17.1135 7.24011 16.5313 6.95834 15.8984 6.92255L15.8419 7.92096ZM16.8193 8.37916L16.0937 9.06729C16.1857 9.1643 16.2452 9.29932 16.2519 9.44718L17.2509 9.40228L18.2498 9.35738C18.2219 8.735 17.9721 8.14154 17.5449 7.69103L16.8193 8.37916ZM17.2509 9.40228H16.2509V30.0248H17.2509H18.2509V9.40228H17.2509ZM17.2509 30.0248H16.2509C16.2509 30.1866 16.1886 30.3329 16.0921 30.4331L16.8124 31.1268L17.5327 31.8204C17.9969 31.3383 18.2509 30.6911 18.2509 30.0248H17.2509ZM16.8124 31.1268L16.0865 30.439C16.0426 30.4852 15.9903 30.5218 15.9326 30.5468L16.3304 31.4643L16.7281 32.3818C17.0338 32.2493 17.3093 32.0563 17.5383 31.8146L16.8124 31.1268ZM16.3304 31.4643L15.9326 30.5468C15.875 30.5717 15.8132 30.5847 15.7508 30.585L15.7554 31.585L15.7599 32.5849C16.0931 32.5834 16.4225 32.5143 16.7281 32.3818L16.3304 31.4643ZM15.7554 31.585V30.585C15.6377 30.585 15.5155 30.5364 15.4189 30.4357L14.6972 31.1279L13.9756 31.8202C14.4398 32.3041 15.0791 32.585 15.7554 32.585V31.585ZM14.6972 31.1279L15.4217 30.4386C15.3174 30.3289 15.2584 30.1819 15.2588 30.0281L14.2588 30.0259L13.2588 30.0237C13.2573 30.6909 13.5126 31.3337 13.9728 31.8173L14.6972 31.1279ZM14.2588 30.0259H15.2588V9.40112H14.2588H13.2588V30.0259H14.2588ZM14.2588 9.40112H13.2588V9.40228H14.2588H15.2588V9.40112H14.2588ZM21.8007 8.62972H22.8007C22.8007 8.4661 22.863 8.32124 22.9581 8.22287L22.2392 7.52772L21.5203 6.83257C21.0524 7.31652 20.8007 7.9651 20.8007 8.62972H21.8007ZM22.2392 7.52772L22.9658 8.21478C23.0094 8.16871 23.0615 8.13228 23.1188 8.10743L22.7211 7.18993L22.3233 6.27243C22.0174 6.40507 21.7416 6.59846 21.5126 6.84066L22.2392 7.52772ZM22.7211 7.18993L23.1188 8.10743C23.1761 8.08258 23.2377 8.06973 23.2997 8.06951L23.2962 7.06952L23.2926 6.06953C22.9591 6.07071 22.6293 6.13978 22.3233 6.27243L22.7211 7.18993ZM23.2962 7.06952V8.06952C23.4138 8.06952 23.536 8.11807 23.6327 8.2188L24.3543 7.52656L25.076 6.83432C24.6118 6.3504 23.9724 6.06952 23.2962 6.06952V7.06952ZM24.3543 7.52656L23.6327 8.2188C23.731 8.32134 23.7928 8.46861 23.7928 8.62856H24.7928H25.7928C25.7928 7.96259 25.5384 7.31642 25.076 6.83432L24.3543 7.52656ZM24.7928 8.62856H23.7928V31.056H24.7928H25.7928V8.62856H24.7928ZM24.7928 31.056H23.7928C23.7928 31.2167 23.7313 31.3629 23.6327 31.4658L24.3543 32.158L25.076 32.8502C25.5382 32.3684 25.7928 31.7235 25.7928 31.056H24.7928ZM24.3543 32.158L23.6292 31.4694C23.5853 31.5156 23.5328 31.5522 23.4752 31.5771L23.8717 32.4951L24.2682 33.4131C24.5742 33.281 24.8501 33.0882 25.0795 32.8466L24.3543 32.158ZM23.8717 32.4951L23.4752 31.5771C23.4175 31.602 23.3556 31.6149 23.2932 31.615L23.2962 32.615L23.2992 33.615C23.6326 33.614 23.9622 33.5453 24.2682 33.4131L23.8717 32.4951ZM23.2962 32.615V31.615C23.1774 31.615 23.0567 31.5668 22.9609 31.4669L22.2392 32.1592L21.5175 32.8514C21.9825 33.3361 22.6211 33.615 23.2962 33.615V32.615ZM22.2392 32.1592L22.9637 31.4698C22.8592 31.3601 22.8003 31.2129 22.8007 31.0589L21.8007 31.056L20.8007 31.0531C20.7988 31.7209 21.0542 32.3644 21.5148 32.8485L22.2392 32.1592ZM21.8007 31.056H22.8007V8.62972H21.8007H20.8007V31.056H21.8007ZM29.2192 9.40228H30.2192C30.2192 9.24058 30.281 9.09467 30.378 8.994L29.6577 8.30028L28.9375 7.60656C28.4713 8.09053 28.2192 8.73806 28.2192 9.40228H29.2192ZM29.6577 8.30028L30.3836 8.98814C30.4272 8.94213 30.4793 8.90577 30.5366 8.88098L30.1397 7.96311L29.7428 7.04525C29.4369 7.17755 29.1611 7.37058 28.9319 7.61243L29.6577 8.30028ZM30.1397 7.96311L30.5366 8.88098C30.5939 8.8562 30.6554 8.84341 30.7175 8.84324L30.7147 7.84324L30.7119 6.84324C30.3785 6.84418 30.0488 6.91294 29.7428 7.04525L30.1397 7.96311ZM30.7147 7.84324V8.84324C30.8323 8.84324 30.9545 8.8918 31.0512 8.99252L31.7728 8.30028L32.4945 7.60804C32.0303 7.12412 31.3909 6.84324 30.7147 6.84324V7.84324ZM31.7728 8.30028L31.0512 8.99252C31.1495 9.09506 31.2113 9.24232 31.2113 9.40228H32.2113H33.2113C33.2113 8.73632 32.9569 8.09014 32.4945 7.60804L31.7728 8.30028ZM32.2113 9.40228H31.2113V30.0248H32.2113H33.2113V9.40228H32.2113ZM32.2113 30.0248H31.2113C31.2113 30.1866 31.1491 30.3329 31.0525 30.4331L31.7728 31.1268L32.4931 31.8204C32.9574 31.3383 33.2113 30.6911 33.2113 30.0248H32.2113ZM31.7728 31.1268L31.0469 30.439C31.0031 30.4853 30.9506 30.5219 30.8929 30.5468L31.2903 31.4645L31.6877 32.3822C31.9937 32.2497 32.2695 32.0565 32.4987 31.8146L31.7728 31.1268ZM31.2903 31.4645L30.8929 30.5468C30.8353 30.5718 30.7734 30.5847 30.7109 30.585L30.7147 31.585L30.7185 32.585C31.052 32.5837 31.3817 32.5147 31.6877 32.3822L31.2903 31.4645ZM30.7147 31.585V30.585C30.597 30.585 30.4748 30.5364 30.3782 30.4357L29.6566 31.1279L28.9349 31.8202C29.3991 32.3041 30.0384 32.585 30.7147 32.585V31.585ZM29.6566 31.1279L30.381 30.4386C30.2767 30.3289 30.2177 30.1819 30.2181 30.0281L29.2181 30.0259L28.2181 30.0237C28.2166 30.6909 28.4719 31.3337 28.9321 31.8173L29.6566 31.1279ZM29.2181 30.0259H30.2181V9.40112H29.2181H28.2181V30.0259H29.2181ZM29.2181 9.40112L28.5088 10.106L28.5099 10.1072L29.2192 9.40228L29.9285 8.69737L29.9274 8.69621L29.2181 9.40112ZM40.1352 0.896V-0.104H6.40755V0.896V1.896H40.1352V0.896ZM6.40755 0.896L6.41438 -0.103977C5.54132 -0.109947 4.67636 0.0632448 3.87248 0.404852L4.26358 1.3252L4.65468 2.24555C5.20715 2.01078 5.80126 1.89188 6.40071 1.89598L6.40755 0.896ZM4.26358 1.3252L3.87185 0.405117C3.06382 0.749136 2.33277 1.25204 1.7216 1.88394L2.4404 2.57916L3.1592 3.27438C3.58493 2.83421 4.09366 2.4844 4.6553 2.24528L4.26358 1.3252ZM2.4404 2.57916L1.72115 1.88441C1.10638 2.52085 0.620846 3.27112 0.291331 4.09331L1.21956 4.46532L2.14779 4.83733C2.38123 4.25486 2.72497 3.72391 3.15965 3.27391L2.4404 2.57916ZM1.21956 4.46532L0.292008 4.09162C-0.0409123 4.91797 -0.21389 5.8004 -0.217764 6.69165L0.782227 6.696L1.78222 6.70035C1.78499 6.06209 1.90888 5.43034 2.14711 4.83902L1.21956 4.46532ZM0.782227 6.696H-0.217773V41.496H0.782227H1.78223V6.696H0.782227ZM0.782227 41.496L-0.217763 41.5005C-0.213731 42.3923 -0.0404296 43.2759 0.290512 44.0995L1.21841 43.7267L2.1463 43.3538C1.90952 42.7646 1.78511 42.1309 1.78222 41.4915L0.782227 41.496ZM1.21841 43.7267L0.290443 44.0993C0.620742 44.9218 1.10722 45.6721 1.72301 46.3083L2.44155 45.6128L3.1601 44.9174C2.72474 44.4676 2.38035 43.9366 2.14637 43.354L1.21841 43.7267ZM2.44155 45.6128L1.72418 46.3095C2.33849 46.9421 3.06884 47.4445 3.87417 47.7862L4.26473 46.8656L4.6553 45.9451C4.09901 45.7091 3.59006 45.3601 3.15892 44.9161L2.44155 45.6128ZM4.26473 46.8656L3.87284 47.7856C4.67991 48.1294 5.54295 48.3017 6.41544 48.2948L6.40755 47.2948L6.39966 46.2949C5.80206 46.2996 5.21117 46.1818 4.65662 45.9456L4.26473 46.8656ZM6.40755 47.2948V48.2948H40.1364V47.2948V46.2948H6.40755V47.2948ZM40.1364 47.2948L40.1298 48.2948C41.0013 48.3005 41.8647 48.1279 42.6674 47.7874L42.2769 46.8668L41.8864 45.9462C41.3347 46.1802 40.7415 46.2988 40.143 46.2949L40.1364 47.2948ZM42.2769 46.8668L42.6682 47.7871C43.475 47.444 44.2051 46.9425 44.8159 46.3122L44.0978 45.6163L43.3796 44.9204C42.9543 45.3593 42.4463 45.7081 41.8856 45.9465L42.2769 46.8668ZM44.0978 45.6163L44.8156 46.3125C45.4307 45.6783 45.9171 44.9304 46.2482 44.1104L45.3209 43.736L44.3936 43.3616C44.1591 43.9425 43.8147 44.4717 43.3799 44.9202L44.0978 45.6163ZM45.3209 43.736L46.2475 44.1119C46.5819 43.2879 46.755 42.4064 46.7617 41.5163L45.7617 41.5088L44.7617 41.5012C44.7569 42.1423 44.6322 42.7735 44.3943 43.36L45.3209 43.736ZM45.7617 41.5088H46.7617V6.69716H45.7617H44.7617V41.5088H45.7617ZM45.7617 6.69716L46.7617 6.69338C46.7583 5.80322 46.5863 4.92174 46.2546 4.09606L45.3267 4.4688L44.3987 4.84154C44.6361 5.43239 44.7593 6.06345 44.7617 6.70094L45.7617 6.69716ZM45.3267 4.4688L46.2549 4.0968C45.9256 3.2752 45.4406 2.52542 44.8264 1.88926L44.107 2.5838L43.3875 3.27834C43.8218 3.72814 44.1652 4.25875 44.3984 4.8408L45.3267 4.4688ZM44.107 2.5838L44.8263 1.88912C44.2167 1.25791 43.4876 0.755089 42.6816 0.410393L42.2884 1.32984L41.8952 2.24929C42.4555 2.48891 42.963 2.83872 43.3877 3.27848L44.107 2.5838ZM42.2884 1.32984L42.6814 0.410286C41.8792 0.0674886 41.0158 -0.107545 40.1438 -0.103992L40.1479 0.896L40.152 1.89599C40.7508 1.89355 41.344 2.01375 41.8955 2.24939L42.2884 1.32984Z" fill="#18181B" mask="url(#path-1-inside-1_0_5187)"/>
</g>
<defs>
<clipPath id="clip0_0_5187">
<rect width="46" height="48" fill="white"/>
</clipPath>
</defs>
</svg>
