<svg width="45" height="48" viewBox="0 0 45 48" fill="none" xmlns="http://www.w3.org/2000/svg">
<path d="M44.5004 22.7L24.3941 2L22.4514 0L7.29885 15.5L0.499607 22.7C0.178641 23.0522 0 23.517 0 24C0 24.483 0.178641 24.9478 0.499607 25.3L14.1952 39.5L22.4514 48L37.604 32.5L37.7983 32.2L44.5004 25.3C44.8214 24.9478 45 24.483 45 24C45 23.517 44.8214 23.0522 44.5004 22.7ZM22.4514 31L15.5551 24L22.4514 16.9L29.3478 24L22.4514 31.1V31Z" fill="#2684FF"/>
<path d="M22.4514 16.9021C20.3158 14.659 19.1195 11.6431 19.1195 8.50211C19.1195 5.36108 20.3158 2.34526 22.4514 0.102112L7.29883 15.6021L15.555 24.0021L22.4514 16.9021Z" fill="url(#paint0_linear_0_5021)"/>
<path d="M29.4451 23.9997L22.3545 30.9997C24.5195 33.2472 25.7343 36.2843 25.7343 39.4497C25.7343 42.615 24.5195 45.6522 22.3545 47.8997L37.5071 32.2997L29.2509 23.8997L29.4451 23.9997Z" fill="url(#paint1_linear_0_5021)"/>
<defs>
<linearGradient id="paint0_linear_0_5021" x1="21.1887" y1="9.70211" x2="9.52769" y2="14.5564" gradientUnits="userSpaceOnUse">
<stop offset="0.2" stop-color="#0052CC"/>
<stop offset="1" stop-color="#2684FF"/>
</linearGradient>
<linearGradient id="paint1_linear_0_5021" x1="23.8115" y1="38.1997" x2="35.4691" y2="33.442" gradientUnits="userSpaceOnUse">
<stop offset="0.2" stop-color="#0052CC"/>
<stop offset="1" stop-color="#2684FF"/>
</linearGradient>
</defs>
</svg>
