<svg width="180" height="48" viewBox="0 0 180 48" fill="none" xmlns="http://www.w3.org/2000/svg">
<g clip-path="url(#clip0_0_4601)">
<mask id="mask0_0_4601" style="mask-type:luminance" maskUnits="userSpaceOnUse" x="0" y="0" width="180" height="48">
<path d="M0 0H180V48H0V0Z" fill="white"/>
</mask>
<g mask="url(#mask0_0_4601)">
<path d="M14.7297 6.94089e-06C14.164 0.0007752 13.6042 0.116111 13.0842 0.33906C12.5643 0.562009 12.0948 0.887953 11.7042 1.29724C11.3136 1.70652 11.01 2.19067 10.8116 2.72049C10.6131 3.25032 10.5241 3.81483 10.5497 4.38001C10.5897 5.14001 10.8397 5.87001 11.2497 6.50001L13.0497 4.72001C12.9624 4.4669 12.935 4.19697 12.9697 3.93147C13.0044 3.66598 13.1003 3.41216 13.2497 3.19001C13.3949 2.97548 13.5857 2.79565 13.8084 2.66335C14.0311 2.53106 14.2803 2.44956 14.5382 2.42467C14.796 2.39979 15.0562 2.43213 15.3001 2.51939C15.544 2.60665 15.7657 2.74668 15.9492 2.92948C16.1328 3.11228 16.2737 3.33335 16.3619 3.5769C16.4502 3.82045 16.4836 4.08049 16.4598 4.33844C16.4359 4.59639 16.3555 4.8459 16.2241 5.06916C16.0927 5.29242 15.9137 5.48393 15.6997 5.63001C15.4763 5.77668 15.2226 5.87087 14.9577 5.90551C14.6927 5.94014 14.4233 5.91433 14.1697 5.83001L12.3897 7.62001C13.2065 8.1472 14.1812 8.37395 15.1469 8.26143C16.1125 8.1489 17.009 7.70409 17.6827 7.00321C18.3564 6.30232 18.7654 5.38898 18.8397 4.41965C18.9139 3.45032 18.6488 2.48534 18.0897 1.69001C17.7012 1.1648 17.1947 0.738235 16.6111 0.444684C16.0274 0.151134 15.383 -0.00118491 14.7297 6.94089e-06Z" fill="#34A853"/>
<path d="M13.0596 12.15C13.0596 10.74 12.6096 9.37 11.7596 8.25L9.43957 10.55C9.79388 11.192 9.92429 11.9337 9.81021 12.658C9.69613 13.3823 9.34405 14.048 8.80957 14.55L10.0696 17.62C10.9869 17.0316 11.7422 16.2227 12.2663 15.2671C12.7903 14.3115 13.0665 13.2398 13.0696 12.15H13.0596Z" fill="#FBBC04"/>
<path d="M6.58976 15.4599H6.52976C6.01251 15.4592 5.50254 15.338 5.04027 15.1059C4.57801 14.8738 4.17616 14.5373 3.86659 14.1229C3.55701 13.7085 3.34823 13.2277 3.25678 12.7186C3.16534 12.2095 3.19375 11.6861 3.33976 11.1899C3.48628 10.6923 3.74769 10.2361 4.10292 9.85808C4.45815 9.48008 4.89725 9.19086 5.3848 9.01375C5.87235 8.83663 6.3947 8.77658 6.90973 8.83845C7.42475 8.90031 7.91802 9.08235 8.34976 9.36989L10.6498 7.07989C9.63207 6.25873 8.39158 5.76152 7.08848 5.65244C5.78537 5.54336 4.47948 5.82742 3.33944 6.46796C2.19939 7.10849 1.27754 8.07608 0.692923 9.24578C0.108301 10.4155 -0.112247 11.7336 0.0597584 13.0299C0.178061 13.9173 0.478421 14.7708 0.942007 15.5367C1.40559 16.3026 2.02241 16.9645 2.75379 17.4809C3.48516 17.9973 4.31533 18.357 5.19224 18.5375C6.06915 18.718 6.9739 18.7154 7.84976 18.5299L6.58976 15.4599Z" fill="#EA4335"/>
<path d="M14.8099 18.11C13.3599 18.11 11.9199 18.32 10.5299 18.74L12.3699 23.21C13.8878 22.8396 15.4707 22.8247 16.9954 23.1664C18.52 23.5081 19.9452 24.1972 21.1599 25.18C22.9628 26.6404 24.1999 28.6839 24.658 30.9584C25.1162 33.2329 24.7667 35.596 23.6698 37.6406C22.5729 39.6851 20.7973 41.2831 18.6488 42.1591C16.5004 43.0352 14.1137 43.1345 11.8999 42.44C9.68937 41.767 7.78013 40.3493 6.49672 38.4278C5.21331 36.5063 4.63492 34.1997 4.85987 31.9C5.02131 30.2618 5.58626 28.6892 6.50417 27.3228C7.42209 25.9564 8.66435 24.8388 10.1199 24.07L8.30987 19.61C5.04562 21.2057 2.48242 23.9464 1.10856 27.3101C-0.265298 30.6737 -0.353818 34.4253 0.859866 37.85C2.07774 41.2811 4.51763 44.1429 7.71295 45.8882C10.9083 47.6334 14.6348 48.1396 18.1799 47.31C21.7201 46.4871 24.8348 44.3929 26.9327 41.4249C29.0306 38.4569 29.9655 34.8218 29.5599 31.21C29.1486 27.5958 27.4181 24.2604 24.7 21.8431C21.9819 19.4258 18.4674 18.0965 14.8299 18.11H14.8099Z" fill="#4285F4"/>
<path d="M44 6.1101H48.17V37.5001H63.52V41.4501H44V6.1001V6.1101ZM69.56 39.7501C67.6783 38.6375 66.1389 37.0288 65.11 35.1001C64.0354 33.1037 63.4848 30.8672 63.51 28.6001C63.4848 26.333 64.0354 24.0965 65.11 22.1001C66.1408 20.1754 67.68 18.5704 69.56 17.4601C71.5142 16.34 73.7275 15.7506 75.98 15.7506C78.2325 15.7506 80.4458 16.34 82.4 17.4601C84.2804 18.5744 85.8194 20.1826 86.85 22.1101C87.9246 24.1065 88.4752 26.343 88.45 28.6101C88.47 30.8701 87.93 33.1101 86.85 35.1101C85.8222 37.0363 84.2867 38.6444 82.41 39.7601C80.4546 40.8821 78.2394 41.4724 75.985 41.4724C73.7306 41.4724 71.5154 40.8821 69.56 39.7601V39.7501ZM80.14 36.6901C81.4473 35.9279 82.5197 34.8209 83.24 33.4901C84.04 31.9901 84.44 30.2901 84.4 28.5901C84.4405 26.8906 84.0409 25.2096 83.24 23.7101C82.7116 22.7283 81.9897 21.8639 81.1179 21.1689C80.2461 20.4739 79.2425 19.9629 78.1677 19.6666C77.0929 19.3703 75.9692 19.295 74.8644 19.4451C73.7596 19.5952 72.6968 19.9677 71.74 20.5401C70.4518 21.3002 69.3942 22.3959 68.68 23.7101C67.8753 25.2121 67.4722 26.8965 67.51 28.6001C67.4735 30.3004 67.8765 31.9812 68.68 33.4801C69.2111 34.4539 69.9321 35.3113 70.8002 36.0017C71.6683 36.6921 72.666 37.2016 73.7343 37.4999C74.8027 37.7982 75.9199 37.8793 77.0202 37.7385C78.1204 37.5977 79.1812 37.2378 80.14 36.6801V36.6901ZM96.65 39.7501C94.7733 38.6344 93.2378 37.0263 92.21 35.1001C91.13 33.1001 90.59 30.8601 90.61 28.6001C90.59 26.3301 91.14 24.1001 92.21 22.1001C93.2393 20.1776 94.7747 18.5731 96.65 17.4601C98.6054 16.3381 100.821 15.7478 103.075 15.7478C105.329 15.7478 107.545 16.3381 109.5 17.4601C111.381 18.5735 112.92 20.182 113.95 22.1101C115.02 24.1101 115.57 26.3401 115.55 28.6101C115.57 30.8701 115.02 33.1101 113.95 35.1101C112.92 37.0382 111.381 38.6466 109.5 39.7601C107.546 40.8802 105.332 41.4696 103.08 41.4696C100.828 41.4696 98.6142 40.8802 96.66 39.7601V39.7501H96.65ZM107.23 36.6901C108.537 35.9271 109.609 34.8203 110.33 33.4901C111.13 31.9901 111.53 30.2901 111.49 28.5901C111.529 26.8908 111.13 25.2101 110.33 23.7101C109.623 22.3936 108.572 21.2933 107.289 20.5264C106.006 19.7594 104.54 19.3544 103.045 19.3544C101.55 19.3544 100.084 19.7594 98.8011 20.5264C97.5183 21.2933 96.4674 22.3936 95.76 23.7101C94.9574 25.2125 94.5578 26.8973 94.6 28.6001C94.5591 30.2996 94.9587 31.9808 95.76 33.4801C96.4674 34.7972 97.5214 35.8959 98.808 36.6574C100.095 37.4188 101.565 37.8139 103.06 37.8001C104.528 37.8143 105.972 37.4307 107.24 36.6901H107.23ZM118.54 6.1101H122.7V28.4501L135.25 15.7501H140.54V15.9401L129.96 26.5901L140.06 41.2601V41.4501H135.06L127.02 29.4701L122.71 33.7701V41.4501H118.54V6.1001V6.1101Z" fill="#52525B"/>
<path d="M145.44 39.7999C143.607 38.7017 142.115 37.1162 141.13 35.2199C140.08 33.188 139.55 30.927 139.59 28.6399C139.57 26.4133 140.066 24.2123 141.04 22.2099C141.961 20.2868 143.393 18.654 145.18 17.4899C147.014 16.3073 149.158 15.6948 151.34 15.7299C153.72 15.7299 155.78 16.2599 157.53 17.3299C159.264 18.3747 160.663 19.8947 161.56 21.7099C162.701 24.0915 163.151 26.7453 162.86 29.3699H143.63C143.669 31.008 144.127 32.6089 144.96 34.0199C145.689 35.2263 146.733 36.2115 147.98 36.8699C149.16 37.4899 150.48 37.8099 151.81 37.8199C154.98 37.8199 157.38 36.3599 159 33.4499L162.42 35.1099C161.443 36.9996 159.984 38.597 158.19 39.7399C156.224 40.9192 153.961 41.5093 151.67 41.4399C149.47 41.4799 147.32 40.9099 145.44 39.7899V39.7999ZM158.67 26.0299C158.594 24.9729 158.305 23.9422 157.82 22.9999C157.274 21.9437 156.451 21.0554 155.44 20.4299C154.204 19.6917 152.779 19.3303 151.34 19.3899C149.548 19.3506 147.81 20.0064 146.49 21.2199C145.123 22.5007 144.205 24.1871 143.87 26.0299H158.67ZM165.64 15.7499H169.61V20.5199H169.81C170.347 19.094 171.347 17.8896 172.65 17.0999C173.717 16.3795 174.943 15.9277 176.223 15.7832C177.503 15.6387 178.799 15.8057 180 16.2699V20.7199C178.9 20.1899 177.7 19.9199 176.47 19.9399C175.28 19.9399 174.12 20.2899 173.14 20.9699C172.111 21.6715 171.276 22.6206 170.71 23.7299C170.109 24.888 169.8 26.1753 169.81 27.4799V41.4499H165.64V15.7499Z" fill="#52525B"/>
</g>
</g>
<defs>
<clipPath id="clip0_0_4601">
<rect width="180" height="48" fill="white"/>
</clipPath>
</defs>
</svg>
