<svg width="57" height="48" viewBox="0 0 57 48" fill="none" xmlns="http://www.w3.org/2000/svg">
<path d="M28.5 48C20.9413 48 13.6922 45.4714 8.34746 40.9706C3.00267 36.4697 0 30.3652 0 24C0 17.6348 3.00267 11.5303 8.34746 7.02944C13.6922 2.52856 20.9413 0 28.5 0C36.0587 0 43.3078 2.52856 48.6525 7.02944C53.9973 11.5303 57 17.6348 57 24C57 30.3652 53.9973 36.4697 48.6525 40.9706C43.3078 45.4714 36.0587 48 28.5 48ZM28.5 10.7324C24.2948 10.7324 20.2619 12.1391 17.2884 14.6431C14.3149 17.1471 12.6444 20.5433 12.6444 24.0845C12.6444 27.6257 14.3149 31.0219 17.2884 33.5259C20.2619 36.0299 24.2948 37.4366 28.5 37.4366C32.7052 37.4366 36.7381 36.0299 39.7116 33.5259C42.6851 31.0219 44.3556 27.6257 44.3556 24.0845C44.3556 20.5433 42.6851 17.1471 39.7116 14.6431C36.7381 12.1391 32.7052 10.7324 28.5 10.7324Z" fill="#2B33FF"/>
</svg>
