<svg width="46" height="48" viewBox="0 0 46 48" fill="none" xmlns="http://www.w3.org/2000/svg">
<g clip-path="url(#clip0_0_4491)">
<mask id="mask0_0_4491" style="mask-type:luminance" maskUnits="userSpaceOnUse" x="0" y="0" width="46" height="49">
<path d="M0 0.000366211H45.18V48.0004H0V0.000366211Z" fill="white"/>
</mask>
<g mask="url(#mask0_0_4491)">
<mask id="path-2-inside-1_0_4491" fill="white">
<path d="M21.1299 0.000356445C12.1899 -0.0296436 -5.01007 20.4704 1.39993 25.9004L2.99993 27.2304C2.57374 28.3725 2.42299 29.599 2.55993 30.8104C2.77351 32.5738 3.64494 34.1917 4.99993 35.3404C6.31286 36.5306 8.00844 37.2117 9.77993 37.2604C12.5799 43.7404 18.9999 47.7104 26.5299 47.9304C34.5999 48.1704 41.3699 44.3804 44.2099 37.5804C44.3999 37.1004 45.1899 34.9504 45.1899 33.0504C45.1899 31.1504 44.1099 30.3504 43.4199 30.3504C43.3137 29.9583 43.2003 29.5683 43.0799 29.1804C42.8899 28.5804 42.6999 28.1604 42.6999 28.1604C43.2625 27.3803 43.4992 26.4119 43.3599 25.4604C43.2599 24.7604 42.9599 24.1604 42.3599 23.5404C41.7799 22.9204 40.5599 22.2804 38.8599 21.8004L37.9799 21.5604C37.9799 21.5204 37.9299 19.4604 37.8899 18.5604C37.8741 17.6731 37.7396 16.7919 37.4899 15.9404C37.1884 14.7145 36.5634 13.5921 35.6799 12.6904C37.8999 10.3904 39.2799 7.85036 39.2799 5.68036C39.2799 1.49036 34.1399 0.230356 27.7999 2.85036L26.4599 3.42036L23.9999 1.00036C23.1999 0.300356 22.2399 0.000356445 21.1399 -0.00964355L21.1299 0.000356445ZM21.2699 1.74036C21.5999 1.74036 21.9199 1.78036 22.1999 1.86036C22.7999 2.03036 24.7599 4.30036 24.7599 4.30036C24.7599 4.30036 21.1099 6.33036 17.7299 9.15036C13.1699 12.6604 9.72993 17.7604 7.66993 23.3004C6.08884 23.5947 4.68358 24.4909 3.74993 25.8004C3.21993 25.3604 2.24993 24.5204 2.07993 24.2004C0.679928 21.5504 3.59993 16.4004 5.63993 13.5004C10.2799 6.87036 17.3399 1.73036 21.2699 1.74036ZM27.8399 8.28036C27.9199 8.28036 27.9599 8.38036 27.8899 8.43036C27.5715 8.6806 27.2888 8.97332 27.0499 9.30036C27.0499 9.32157 27.0584 9.34192 27.0734 9.35693C27.0884 9.37193 27.1087 9.38036 27.1299 9.38036C28.4499 9.39036 30.2999 9.85036 31.5099 10.5304C31.5899 10.5804 31.5299 10.7304 31.4399 10.7104C28.9764 10.1698 26.4275 10.1458 23.9542 10.6397C21.4809 11.1337 19.1368 12.135 17.0699 13.5804C16.9899 13.6404 16.8999 13.5404 16.9699 13.4604C18.6419 11.486 20.662 9.83531 22.9299 8.59036C22.9999 8.55036 23.0699 8.63036 23.0299 8.69036C22.8699 8.98036 22.5699 9.59036 22.4799 10.0504C22.4599 10.1204 22.5399 10.1704 22.5999 10.1304C24.1711 9.09861 25.9693 8.46376 27.8399 8.28036ZM33.8799 14.6804H33.9799C34.3099 14.7004 34.6299 14.8004 34.8999 14.9804C35.9699 15.6804 36.1199 17.4104 36.1699 18.6604L36.3199 21.6104C36.3899 22.7604 36.6899 22.9104 37.2899 23.1104C37.6299 23.2304 37.9499 23.3104 38.4199 23.4404C39.8199 23.8404 40.6699 24.2404 41.1899 24.7604C41.5099 25.0804 41.6499 25.4204 41.6999 25.7504C41.8699 26.9604 40.7599 28.4704 37.8199 29.8304C34.7398 31.1776 31.3662 31.7147 28.0199 31.3904L27.0799 31.2904C24.9299 30.9904 23.6999 33.7804 24.9899 35.6904C25.8299 36.9104 28.0899 37.7104 30.3599 37.7104C35.5599 37.7104 39.5599 35.4904 41.0599 33.5704L41.1699 33.4004C41.2399 33.3004 41.1799 33.2304 41.0899 33.3004C39.8799 34.1304 34.4799 37.4304 28.7099 36.4304C28.7099 36.4304 28.0099 36.3304 27.3599 36.0704C26.8599 35.8704 25.7899 35.3804 25.6599 34.2904C30.3199 35.7304 33.2599 34.3704 33.2599 34.3704C33.2861 34.3581 33.3078 34.3381 33.3221 34.313C33.3364 34.288 33.3427 34.2591 33.3399 34.2304C33.3371 34.2027 33.326 34.1765 33.3082 34.1551C33.2904 34.1337 33.2666 34.1182 33.2399 34.1104H33.1899C33.1899 34.1104 29.3699 34.6704 25.7599 33.3504C26.1599 32.0704 27.1999 32.5404 28.7799 32.6604C31.2299 32.8104 33.6999 32.5404 36.0599 31.8704C38.0275 31.3141 39.8753 30.3987 41.5099 29.1704C42.0699 30.4004 42.2699 31.7604 42.2699 31.7604C42.2699 31.7604 42.7099 31.6804 43.0699 31.9104C43.4099 32.1104 43.6699 32.5604 43.4899 33.6904C43.1614 35.7498 42.1921 37.6533 40.7199 39.1304C39.7739 40.1527 38.6487 40.9933 37.3999 41.6104C36.7199 41.9704 35.9899 42.2804 35.2199 42.5304C29.5099 44.4004 23.6499 42.3504 21.7599 37.9304C21.6097 37.5938 21.486 37.2461 21.3899 36.8904C20.5799 33.9904 21.2699 30.5004 23.3899 28.3104C23.5299 28.1704 23.6599 28.0104 23.6599 27.8004C23.6599 27.6204 23.5599 27.4404 23.4599 27.3104C22.7099 26.2304 20.1199 24.3804 20.6399 20.8104C21.0199 18.2504 23.2599 16.4404 25.3499 16.5504C25.5299 16.5504 25.7099 16.5704 25.8799 16.5804C26.7799 16.6304 27.5799 16.7504 28.3299 16.7804C28.9988 16.8399 29.6728 16.7605 30.3096 16.5472C30.9463 16.3338 31.532 15.991 32.0299 15.5404C32.4799 15.1704 32.8299 14.8404 33.4499 14.7404C33.4999 14.7304 33.6299 14.6804 33.8799 14.6804ZM33.9199 19.0404H33.7999C33.1299 19.1604 33.0999 19.9804 33.3399 21.1304C33.4799 21.7604 33.7199 22.3104 33.9799 22.6504C34.3299 22.6104 34.6699 22.6104 34.9799 22.6504C35.1599 22.2504 35.1799 21.5504 35.0299 20.7704C34.7999 19.7004 34.4999 19.0304 33.9199 19.0404ZM26.6099 22.1304C25.8799 22.1304 25.1699 22.3504 24.5799 22.7804C24.2599 23.0104 23.9599 23.3404 23.9999 23.5304C24.0199 23.6004 24.0599 23.6404 24.1799 23.6604C24.4399 23.6904 25.3599 23.2304 26.4199 23.1604C27.1599 23.1104 27.7799 23.3504 28.2599 23.5604C28.7399 23.7604 29.0299 23.9004 29.1499 23.7804C29.2199 23.7104 29.1999 23.5604 29.0799 23.3804C28.7744 22.9359 28.3474 22.5887 27.8499 22.3804C27.4573 22.2153 27.0358 22.1304 26.6099 22.1304ZM34.7599 23.7404C34.4199 23.7404 34.1399 24.1204 34.1299 24.5804C34.1299 25.0504 34.3899 25.4404 34.7299 25.4504C35.0799 25.4504 35.3599 25.0804 35.3699 24.6104C35.3699 24.1404 35.1099 23.7504 34.7699 23.7404H34.7599ZM27.6099 24.0904L27.3099 24.1004C26.6799 24.2004 26.3399 24.4004 26.1099 24.6004C25.9299 24.7604 25.8099 24.9404 25.8099 25.0704C25.8099 25.1101 25.8257 25.1483 25.8539 25.1764C25.882 25.2046 25.9201 25.2204 25.9599 25.2204C26.0999 25.2204 26.4199 25.1004 26.4199 25.1004C27.0574 24.8594 27.7463 24.7871 28.4199 24.8904C28.7299 24.9204 28.8799 24.9404 28.9499 24.8404C28.9699 24.8004 28.9899 24.7404 28.9299 24.6404C28.7999 24.4404 28.3099 24.1004 27.6099 24.0904ZM32.1299 24.8904C31.8699 24.8904 31.6599 24.9904 31.5599 25.1904C31.4099 25.4904 31.6299 25.9104 32.0599 26.1104C32.4699 26.3204 32.9399 26.2404 33.0899 25.9304C33.2399 25.6304 33.0199 25.2104 32.5899 25.0004C32.4499 24.9304 32.2899 24.8904 32.1299 24.8904ZM8.87993 24.9304L9.17993 24.9404C10.6399 25.0204 12.7899 26.1404 13.2799 29.3204C13.7099 32.1304 13.0299 34.9904 10.3799 35.4504C10.1399 35.4904 9.88993 35.5004 9.63993 35.5004C7.19993 35.4304 4.56993 33.2404 4.30993 30.6304C4.00993 27.7604 5.48993 25.5404 8.08993 25.0204C8.31993 24.9704 8.58993 24.9404 8.88993 24.9304H8.87993ZM8.74993 26.7904C8.43203 26.7852 8.11656 26.8466 7.82379 26.9706C7.53103 27.0946 7.26743 27.2784 7.04993 27.5104C6.28993 28.3504 6.17993 29.4904 6.31993 29.8904C6.37993 30.0404 6.45993 30.0804 6.51993 30.0904C6.64993 30.1004 6.83993 30.0104 6.95993 29.6904L6.99993 29.5904C7.06993 29.3204 7.16993 29.0804 7.29993 28.8404C7.39912 28.6873 7.52766 28.5555 7.67812 28.4524C7.82858 28.3493 7.99797 28.2771 8.17651 28.2399C8.35504 28.2027 8.53918 28.2013 8.71828 28.2357C8.89738 28.2701 9.06788 28.3397 9.21993 28.4404C9.74993 28.7904 9.94993 29.4404 9.71993 30.0604C9.60993 30.3904 9.41993 31.0004 9.45993 31.5004C9.54993 32.5304 10.1699 32.9404 10.7399 32.9804C11.2899 33.0004 11.6699 32.6904 11.7699 32.4704C11.8299 32.3304 11.7699 32.2504 11.7499 32.2204C11.6499 32.1204 11.5199 32.1404 11.3899 32.1804C11.2899 32.2004 11.1699 32.2204 11.0699 32.2204C10.9528 32.2246 10.8365 32.1993 10.7317 32.1469C10.6268 32.0945 10.5368 32.0166 10.4699 31.9204C10.3199 31.6804 10.3299 31.3204 10.4999 30.9204L10.5799 30.7304C10.8599 30.1204 11.3199 29.0904 10.7999 28.1004C10.6118 27.7117 10.3198 27.3827 9.95619 27.1497C9.59261 26.9167 9.17166 26.7889 8.73993 26.7804L8.74993 26.7904Z"/>
</mask>
<path d="M21.1299 0.000356445C12.1899 -0.0296436 -5.01007 20.4704 1.39993 25.9004L2.99993 27.2304C2.57374 28.3725 2.42299 29.599 2.55993 30.8104C2.77351 32.5738 3.64494 34.1917 4.99993 35.3404C6.31286 36.5306 8.00844 37.2117 9.77993 37.2604C12.5799 43.7404 18.9999 47.7104 26.5299 47.9304C34.5999 48.1704 41.3699 44.3804 44.2099 37.5804C44.3999 37.1004 45.1899 34.9504 45.1899 33.0504C45.1899 31.1504 44.1099 30.3504 43.4199 30.3504C43.3137 29.9583 43.2003 29.5683 43.0799 29.1804C42.8899 28.5804 42.6999 28.1604 42.6999 28.1604C43.2625 27.3803 43.4992 26.4119 43.3599 25.4604C43.2599 24.7604 42.9599 24.1604 42.3599 23.5404C41.7799 22.9204 40.5599 22.2804 38.8599 21.8004L37.9799 21.5604C37.9799 21.5204 37.9299 19.4604 37.8899 18.5604C37.8741 17.6731 37.7396 16.7919 37.4899 15.9404C37.1884 14.7145 36.5634 13.5921 35.6799 12.6904C37.8999 10.3904 39.2799 7.85036 39.2799 5.68036C39.2799 1.49036 34.1399 0.230356 27.7999 2.85036L26.4599 3.42036L23.9999 1.00036C23.1999 0.300356 22.2399 0.000356445 21.1399 -0.00964355L21.1299 0.000356445ZM21.2699 1.74036C21.5999 1.74036 21.9199 1.78036 22.1999 1.86036C22.7999 2.03036 24.7599 4.30036 24.7599 4.30036C24.7599 4.30036 21.1099 6.33036 17.7299 9.15036C13.1699 12.6604 9.72993 17.7604 7.66993 23.3004C6.08884 23.5947 4.68358 24.4909 3.74993 25.8004C3.21993 25.3604 2.24993 24.5204 2.07993 24.2004C0.679928 21.5504 3.59993 16.4004 5.63993 13.5004C10.2799 6.87036 17.3399 1.73036 21.2699 1.74036ZM27.8399 8.28036C27.9199 8.28036 27.9599 8.38036 27.8899 8.43036C27.5715 8.6806 27.2888 8.97332 27.0499 9.30036C27.0499 9.32157 27.0584 9.34192 27.0734 9.35693C27.0884 9.37193 27.1087 9.38036 27.1299 9.38036C28.4499 9.39036 30.2999 9.85036 31.5099 10.5304C31.5899 10.5804 31.5299 10.7304 31.4399 10.7104C28.9764 10.1698 26.4275 10.1458 23.9542 10.6397C21.4809 11.1337 19.1368 12.135 17.0699 13.5804C16.9899 13.6404 16.8999 13.5404 16.9699 13.4604C18.6419 11.486 20.662 9.83531 22.9299 8.59036C22.9999 8.55036 23.0699 8.63036 23.0299 8.69036C22.8699 8.98036 22.5699 9.59036 22.4799 10.0504C22.4599 10.1204 22.5399 10.1704 22.5999 10.1304C24.1711 9.09861 25.9693 8.46376 27.8399 8.28036ZM33.8799 14.6804H33.9799C34.3099 14.7004 34.6299 14.8004 34.8999 14.9804C35.9699 15.6804 36.1199 17.4104 36.1699 18.6604L36.3199 21.6104C36.3899 22.7604 36.6899 22.9104 37.2899 23.1104C37.6299 23.2304 37.9499 23.3104 38.4199 23.4404C39.8199 23.8404 40.6699 24.2404 41.1899 24.7604C41.5099 25.0804 41.6499 25.4204 41.6999 25.7504C41.8699 26.9604 40.7599 28.4704 37.8199 29.8304C34.7398 31.1776 31.3662 31.7147 28.0199 31.3904L27.0799 31.2904C24.9299 30.9904 23.6999 33.7804 24.9899 35.6904C25.8299 36.9104 28.0899 37.7104 30.3599 37.7104C35.5599 37.7104 39.5599 35.4904 41.0599 33.5704L41.1699 33.4004C41.2399 33.3004 41.1799 33.2304 41.0899 33.3004C39.8799 34.1304 34.4799 37.4304 28.7099 36.4304C28.7099 36.4304 28.0099 36.3304 27.3599 36.0704C26.8599 35.8704 25.7899 35.3804 25.6599 34.2904C30.3199 35.7304 33.2599 34.3704 33.2599 34.3704C33.2861 34.3581 33.3078 34.3381 33.3221 34.313C33.3364 34.288 33.3427 34.2591 33.3399 34.2304C33.3371 34.2027 33.326 34.1765 33.3082 34.1551C33.2904 34.1337 33.2666 34.1182 33.2399 34.1104H33.1899C33.1899 34.1104 29.3699 34.6704 25.7599 33.3504C26.1599 32.0704 27.1999 32.5404 28.7799 32.6604C31.2299 32.8104 33.6999 32.5404 36.0599 31.8704C38.0275 31.3141 39.8753 30.3987 41.5099 29.1704C42.0699 30.4004 42.2699 31.7604 42.2699 31.7604C42.2699 31.7604 42.7099 31.6804 43.0699 31.9104C43.4099 32.1104 43.6699 32.5604 43.4899 33.6904C43.1614 35.7498 42.1921 37.6533 40.7199 39.1304C39.7739 40.1527 38.6487 40.9933 37.3999 41.6104C36.7199 41.9704 35.9899 42.2804 35.2199 42.5304C29.5099 44.4004 23.6499 42.3504 21.7599 37.9304C21.6097 37.5938 21.486 37.2461 21.3899 36.8904C20.5799 33.9904 21.2699 30.5004 23.3899 28.3104C23.5299 28.1704 23.6599 28.0104 23.6599 27.8004C23.6599 27.6204 23.5599 27.4404 23.4599 27.3104C22.7099 26.2304 20.1199 24.3804 20.6399 20.8104C21.0199 18.2504 23.2599 16.4404 25.3499 16.5504C25.5299 16.5504 25.7099 16.5704 25.8799 16.5804C26.7799 16.6304 27.5799 16.7504 28.3299 16.7804C28.9988 16.8399 29.6728 16.7605 30.3096 16.5472C30.9463 16.3338 31.532 15.991 32.0299 15.5404C32.4799 15.1704 32.8299 14.8404 33.4499 14.7404C33.4999 14.7304 33.6299 14.6804 33.8799 14.6804ZM33.9199 19.0404H33.7999C33.1299 19.1604 33.0999 19.9804 33.3399 21.1304C33.4799 21.7604 33.7199 22.3104 33.9799 22.6504C34.3299 22.6104 34.6699 22.6104 34.9799 22.6504C35.1599 22.2504 35.1799 21.5504 35.0299 20.7704C34.7999 19.7004 34.4999 19.0304 33.9199 19.0404ZM26.6099 22.1304C25.8799 22.1304 25.1699 22.3504 24.5799 22.7804C24.2599 23.0104 23.9599 23.3404 23.9999 23.5304C24.0199 23.6004 24.0599 23.6404 24.1799 23.6604C24.4399 23.6904 25.3599 23.2304 26.4199 23.1604C27.1599 23.1104 27.7799 23.3504 28.2599 23.5604C28.7399 23.7604 29.0299 23.9004 29.1499 23.7804C29.2199 23.7104 29.1999 23.5604 29.0799 23.3804C28.7744 22.9359 28.3474 22.5887 27.8499 22.3804C27.4573 22.2153 27.0358 22.1304 26.6099 22.1304ZM34.7599 23.7404C34.4199 23.7404 34.1399 24.1204 34.1299 24.5804C34.1299 25.0504 34.3899 25.4404 34.7299 25.4504C35.0799 25.4504 35.3599 25.0804 35.3699 24.6104C35.3699 24.1404 35.1099 23.7504 34.7699 23.7404H34.7599ZM27.6099 24.0904L27.3099 24.1004C26.6799 24.2004 26.3399 24.4004 26.1099 24.6004C25.9299 24.7604 25.8099 24.9404 25.8099 25.0704C25.8099 25.1101 25.8257 25.1483 25.8539 25.1764C25.882 25.2046 25.9201 25.2204 25.9599 25.2204C26.0999 25.2204 26.4199 25.1004 26.4199 25.1004C27.0574 24.8594 27.7463 24.7871 28.4199 24.8904C28.7299 24.9204 28.8799 24.9404 28.9499 24.8404C28.9699 24.8004 28.9899 24.7404 28.9299 24.6404C28.7999 24.4404 28.3099 24.1004 27.6099 24.0904ZM32.1299 24.8904C31.8699 24.8904 31.6599 24.9904 31.5599 25.1904C31.4099 25.4904 31.6299 25.9104 32.0599 26.1104C32.4699 26.3204 32.9399 26.2404 33.0899 25.9304C33.2399 25.6304 33.0199 25.2104 32.5899 25.0004C32.4499 24.9304 32.2899 24.8904 32.1299 24.8904ZM8.87993 24.9304L9.17993 24.9404C10.6399 25.0204 12.7899 26.1404 13.2799 29.3204C13.7099 32.1304 13.0299 34.9904 10.3799 35.4504C10.1399 35.4904 9.88993 35.5004 9.63993 35.5004C7.19993 35.4304 4.56993 33.2404 4.30993 30.6304C4.00993 27.7604 5.48993 25.5404 8.08993 25.0204C8.31993 24.9704 8.58993 24.9404 8.88993 24.9304H8.87993ZM8.74993 26.7904C8.43203 26.7852 8.11656 26.8466 7.82379 26.9706C7.53103 27.0946 7.26743 27.2784 7.04993 27.5104C6.28993 28.3504 6.17993 29.4904 6.31993 29.8904C6.37993 30.0404 6.45993 30.0804 6.51993 30.0904C6.64993 30.1004 6.83993 30.0104 6.95993 29.6904L6.99993 29.5904C7.06993 29.3204 7.16993 29.0804 7.29993 28.8404C7.39912 28.6873 7.52766 28.5555 7.67812 28.4524C7.82858 28.3493 7.99797 28.2771 8.17651 28.2399C8.35504 28.2027 8.53918 28.2013 8.71828 28.2357C8.89738 28.2701 9.06788 28.3397 9.21993 28.4404C9.74993 28.7904 9.94993 29.4404 9.71993 30.0604C9.60993 30.3904 9.41993 31.0004 9.45993 31.5004C9.54993 32.5304 10.1699 32.9404 10.7399 32.9804C11.2899 33.0004 11.6699 32.6904 11.7699 32.4704C11.8299 32.3304 11.7699 32.2504 11.7499 32.2204C11.6499 32.1204 11.5199 32.1404 11.3899 32.1804C11.2899 32.2004 11.1699 32.2204 11.0699 32.2204C10.9528 32.2246 10.8365 32.1993 10.7317 32.1469C10.6268 32.0945 10.5368 32.0166 10.4699 31.9204C10.3199 31.6804 10.3299 31.3204 10.4999 30.9204L10.5799 30.7304C10.8599 30.1204 11.3199 29.0904 10.7999 28.1004C10.6118 27.7117 10.3198 27.3827 9.95619 27.1497C9.59261 26.9167 9.17166 26.7889 8.73993 26.7804L8.74993 26.7904Z" fill="#18181B" stroke="#18181B" stroke-width="2" mask="url(#path-2-inside-1_0_4491)"/>
</g>
</g>
<defs>
<clipPath id="clip0_0_4491">
<rect width="46" height="48" fill="white" transform="translate(0 0.000366211)"/>
</clipPath>
</defs>
</svg>
