<svg width="98" height="48" viewBox="0 0 98 48" fill="none" xmlns="http://www.w3.org/2000/svg">
<mask id="mask0_0_3440" style="mask-type:luminance" maskUnits="userSpaceOnUse" x="0" y="0" width="98" height="48">
<path d="M0.52002 0H97.87V48H0.52002V0Z" fill="white"/>
</mask>
<g mask="url(#mask0_0_3440)">
<path d="M19.7199 15.5607C23.1799 10.0007 29.3199 4.90067 35.6299 2.26067C26.6099 -3.19933 11.1799 5.50067 4.7999 15.7507C-1.6401 26.1207 0.429899 39.1707 9.4199 44.9407C14.6099 48.2607 20.9799 48.4307 26.6599 45.9807C25.8599 45.6307 25.0799 45.2207 24.3299 44.7307C15.3399 38.9807 13.2799 25.9307 19.7199 15.5707V15.5607Z" fill="url(#paint0_radial_0_3440)"/>
<path d="M35.9201 38.7004C32.1101 32.1304 32.2501 23.0804 36.9801 15.4804C38.2158 13.526 39.6647 11.7149 41.3001 10.0804C44.5629 6.77528 48.425 4.12139 52.6801 2.26036H52.6701C50.3214 0.825366 47.5695 0.193562 44.8301 0.460361C41.9128 0.719025 39.0667 1.5051 36.4301 2.78036C30.9329 5.36209 26.1659 9.27331 22.5601 14.1604C22.2301 14.6204 21.9201 15.0804 21.6401 15.5404C15.2001 25.8904 17.2601 38.9404 26.2601 44.7104C28.8264 46.3538 31.7849 47.2824 34.8301 47.4004L34.1201 47.4304L34.7701 47.4704C37.8095 47.5801 40.8336 46.9917 43.6101 45.7504C40.3857 44.238 37.702 41.7741 35.9201 38.6904V38.7004Z" fill="url(#paint1_radial_0_3440)"/>
<path d="M69.9801 2.12034C67.7101 0.640342 65.0101 0.120342 62.1401 0.320342C59.1048 0.59259 56.1472 1.43034 53.4201 2.79034C48.9699 4.94943 44.9956 7.97523 41.7301 11.6903C40.6885 12.8737 39.7423 14.1377 38.9001 15.4703C34.5301 22.4903 34.0801 30.7403 37.0401 37.1303C38.6196 40.5915 41.2747 43.45 44.6101 45.2803C46.9143 46.5241 49.4734 47.222 52.0901 47.3203C59.3101 47.6403 66.8901 43.6403 71.4501 36.3203C77.9001 25.9703 78.9701 7.87034 69.9801 2.12034Z" fill="url(#paint2_radial_0_3440)"/>
<path d="M39.85 18.9403L39.5 20.0203C39.834 19.6204 40.2413 19.2878 40.7 19.0403C41.12 18.8303 41.57 18.7103 42.06 18.7103C42.66 18.7103 43.12 18.8603 43.43 19.1403C43.73 19.4403 43.89 19.8003 43.89 20.2403C43.89 20.6703 43.75 21.4103 43.49 22.4503L41.37 30.7403L37.83 30.7603L39.92 22.5603C40.12 21.7603 40.23 21.2603 40.22 21.0703C40.22 20.9003 40.09 20.8103 39.86 20.8203C39.7512 20.8167 39.6435 20.8426 39.5484 20.8955C39.4533 20.9483 39.3743 21.0261 39.32 21.1203C39.2 21.3203 39.02 21.8803 38.8 22.7703L36.76 30.7703L33.21 30.8003L36.23 18.9703L39.85 18.9403ZM49.03 23.0703L49.25 22.1903C49.4 21.5803 49.47 21.1903 49.45 21.0103C49.43 20.8303 49.33 20.7403 49.14 20.7403C48.89 20.7403 48.71 20.8203 48.63 20.9703C48.53 21.1203 48.4 21.5403 48.23 22.2103L48.01 23.0803L49.03 23.0703ZM52.08 24.9503L47.51 24.9903L46.86 27.5503C46.73 28.0803 46.67 28.4303 46.71 28.5803C46.74 28.7403 46.87 28.8103 47.08 28.8103C47.34 28.8103 47.54 28.7103 47.68 28.5003C47.83 28.3003 47.98 27.9003 48.13 27.3003L48.53 25.7403L51.89 25.7203L51.67 26.5903C51.5322 27.1667 51.3414 27.7291 51.1 28.2703C50.91 28.6703 50.59 29.0903 50.15 29.5303C49.71 29.9803 49.2 30.3303 48.63 30.5503C47.9902 30.7879 47.3124 30.9065 46.63 30.9003C45.88 30.9003 45.25 30.8003 44.73 30.6003C44.2715 30.4344 43.8834 30.1169 43.63 29.7003C43.41 29.3103 43.3 28.9003 43.29 28.4303C43.29 27.9803 43.39 27.3003 43.62 26.4303L44.5 22.9703C44.76 21.9403 45.1 21.1303 45.53 20.5303C45.96 19.9303 46.53 19.4603 47.23 19.1303C47.9472 18.8099 48.7245 18.6463 49.51 18.6503C50.5 18.6303 51.27 18.8103 51.81 19.2103C52.37 19.5903 52.68 20.0803 52.78 20.7103C52.88 21.3403 52.78 22.2303 52.49 23.3803L52.09 24.9503H52.08ZM66.22 18.7103L61.78 30.5603H58.02C58.03 30.5103 57.98 30.4903 57.99 30.4303C58.15 29.0103 58.39 27.1503 58.7 24.8603C58.3026 25.9212 57.8858 26.9747 57.45 28.0203L56.44 30.6003L52.63 30.6403L54.14 18.8203L57.17 18.7903L56.22 25.5903L58.76 18.7703L61.66 18.7503L60.66 25.5503C61.28 23.5503 62.13 21.2803 63.19 18.7403L66.22 18.7103ZM70.66 22.8503L70.88 21.9803C71.03 21.3603 71.11 20.9603 71.08 20.7803C71.08 20.6103 70.96 20.5203 70.77 20.5203C70.52 20.5203 70.35 20.6003 70.25 20.7503C70.15 20.9103 70.02 21.3203 69.85 21.9903L69.63 22.8603H70.66V22.8503ZM73.71 24.7403L69.14 24.7803L68.49 27.3303C68.35 27.8703 68.3 28.2103 68.33 28.3703C68.37 28.5203 68.5 28.5903 68.71 28.5903C68.98 28.5903 69.17 28.4903 69.31 28.2803C69.46 28.0803 69.61 27.6803 69.75 27.1003L70.15 25.5303L73.52 25.5003L73.29 26.3703C73.1 27.1003 72.92 27.6703 72.73 28.0603C72.53 28.4503 72.21 28.8603 71.77 29.3103C71.33 29.7703 70.82 30.1103 70.25 30.3303C69.69 30.5603 69.02 30.6803 68.25 30.6803C67.5 30.6903 66.87 30.5803 66.35 30.3703C65.8907 30.2058 65.5021 29.888 65.25 29.4703C65.03 29.0903 64.91 28.6703 64.91 28.2103C64.91 27.7503 65.01 27.0903 65.23 26.2103L66.12 22.7603C66.37 21.7303 66.72 20.9103 67.15 20.3203C67.582 19.7108 68.1689 19.2275 68.85 18.9203C69.55 18.6003 70.31 18.4403 71.12 18.4203C72.11 18.4203 72.87 18.6203 73.42 18.9803C73.96 19.3603 74.3 19.8603 74.39 20.4903C74.49 21.1303 74.39 22.0103 74.1 23.1603L73.7 24.7403H73.71ZM80.15 21.7003C80.29 21.1603 80.34 20.8203 80.31 20.6703C80.29 20.5203 80.18 20.4403 79.97 20.4403C79.8708 20.4405 79.7732 20.4653 79.686 20.5124C79.5987 20.5595 79.5245 20.6275 79.47 20.7103C79.33 20.8803 79.2 21.2103 79.08 21.7103L78.07 25.6903C77.93 26.2203 77.88 26.5603 77.9 26.7203C77.92 26.8803 78.04 26.9603 78.24 26.9603C78.47 26.9603 78.66 26.8603 78.78 26.6703C78.89 26.4703 79.05 26.0503 79.21 25.3703L80.15 21.7003ZM84.49 18.5303L82.17 27.6403C81.9849 28.4503 81.7511 29.2484 81.47 30.0303C81.31 30.3903 81.02 30.7703 80.57 31.1803C80.14 31.5803 79.59 31.9003 78.93 32.1103C78.27 32.3403 77.48 32.4403 76.57 32.4403C75.6771 32.5066 74.7843 32.3121 74 31.8803C73.62 31.6303 73.5 31.3403 73.47 30.7903V29.5703L76.97 29.5603C76.83 30.0903 76.95 30.3603 77.33 30.3503C77.6 30.3503 77.8 30.2603 77.93 30.1003C78.06 29.9403 78.19 29.6003 78.32 29.0803L78.56 28.1803C78.18 28.4603 77.81 28.6803 77.43 28.8103C77.06 28.9603 76.69 29.0403 76.32 29.0403C75.68 29.0403 75.19 28.9203 74.84 28.6603C74.674 28.5413 74.5361 28.3875 74.4359 28.2095C74.3357 28.0316 74.2757 27.8339 74.26 27.6303C74.22 27.2003 74.28 26.6003 74.49 25.8203L75.59 21.5203C75.88 20.4103 76.28 19.6003 76.8 19.1003C77.33 18.6003 78 18.3503 78.8 18.3503C79.25 18.3503 79.63 18.4403 79.95 18.6203C80.2835 18.8129 80.5543 19.0976 80.73 19.4403L81.21 18.5403H84.49V18.5303ZM89.47 21.6203C89.6 21.0803 89.66 20.7303 89.64 20.5903C89.61 20.4403 89.49 20.3703 89.28 20.3703C89.1817 20.3694 89.0847 20.3926 88.9975 20.438C88.9104 20.4833 88.8356 20.5494 88.78 20.6303C88.66 20.8003 88.53 21.1303 88.4 21.6303L87.38 25.6103C87.24 26.1403 87.2 26.4903 87.22 26.6403C87.24 26.8003 87.35 26.8703 87.56 26.8703C87.79 26.8603 87.96 26.7703 88.08 26.5803C88.21 26.3803 88.35 25.9603 88.53 25.2803L89.47 21.6203ZM93.81 18.4503L91.48 27.5703C91.2859 28.378 91.0523 29.1756 90.78 29.9603C90.64 30.3103 90.35 30.6903 89.9 31.1003C89.46 31.5003 88.9 31.8203 88.25 32.0203C87.59 32.2403 86.8 32.3603 85.89 32.3603C84.9999 32.433 84.1084 32.238 83.33 31.8003C82.74 31.4203 82.58 30.6503 82.86 29.5003L86.29 29.4703C86.16 30.0003 86.28 30.2703 86.65 30.2703C86.92 30.2603 87.12 30.1703 87.25 30.0203C87.38 29.8503 87.51 29.5103 87.65 29.0003L87.88 28.0803C87.51 28.3803 87.13 28.5803 86.76 28.7303C86.39 28.8703 86.01 28.9603 85.65 28.9603C85 28.9603 84.51 28.8403 84.17 28.5803C83.83 28.3203 83.63 27.9803 83.57 27.5603C83.54 27.1403 83.61 26.5403 83.82 25.7603L84.9 21.4603C85.19 20.3403 85.6 19.5203 86.12 19.0303C86.65 18.5303 87.32 18.2803 88.12 18.2703C88.57 18.2703 88.95 18.3703 89.26 18.5403C89.58 18.7103 89.84 19.0003 90.03 19.3603L90.51 18.4603L93.81 18.4503ZM96.07 18.4703C96.46 18.4703 96.77 18.6003 97.02 18.8603C97.27 19.1103 97.39 19.4103 97.39 19.7603C97.39 20.1103 97.26 20.4203 97.01 20.6703C96.76 20.9203 96.46 21.0503 96.1 21.0503C95.74 21.0503 95.44 20.9203 95.19 20.6703C95.0481 20.5258 94.942 20.3502 94.88 20.1574C94.818 19.9647 94.8019 19.7601 94.833 19.56C94.8641 19.3599 94.9415 19.1699 95.059 19.005C95.1765 18.8401 95.331 18.705 95.51 18.6103C95.71 18.5203 95.91 18.4703 96.07 18.4703ZM96.13 18.7303C95.9922 18.7263 95.855 18.75 95.7266 18.7999C95.5981 18.8499 95.481 18.9251 95.3822 19.0212C95.2833 19.1172 95.2048 19.2321 95.1511 19.3591C95.0975 19.4861 95.0699 19.6225 95.07 19.7603C95.07 20.0503 95.17 20.2903 95.37 20.4903C95.57 20.6903 95.82 20.7903 96.11 20.7903C96.2456 20.7925 96.3803 20.767 96.5058 20.7154C96.6313 20.6638 96.745 20.5872 96.84 20.4903C96.9369 20.3954 97.0135 20.2817 97.065 20.1562C97.1166 20.0307 97.1421 19.896 97.14 19.7603C97.1395 19.5687 97.0839 19.3813 96.98 19.2203C96.8914 19.0725 96.7672 18.9493 96.6187 18.862C96.4702 18.7746 96.3022 18.7259 96.13 18.7203V18.7303ZM95.53 20.4503V19.1003H96.19C96.35 19.1003 96.46 19.1403 96.54 19.2103C96.61 19.2803 96.64 19.3803 96.64 19.4903C96.64 19.5903 96.62 19.6803 96.55 19.7403C96.4727 19.8121 96.3747 19.8576 96.27 19.8703C96.33 19.8903 96.37 19.9203 96.41 19.9703C96.44 19.9903 96.5 20.0703 96.57 20.2003L96.73 20.4703H96.38L96.27 20.2503C96.2248 20.1513 96.164 20.0601 96.09 19.9803C96.034 19.9334 95.9629 19.9086 95.89 19.9103H95.81V20.4703H95.54L95.53 20.4503ZM95.81 19.6703H96.04C96.15 19.6703 96.24 19.6603 96.28 19.6303C96.33 19.6003 96.36 19.5403 96.36 19.4803C96.36 19.4203 96.34 19.3703 96.29 19.3403C96.2221 19.3052 96.1464 19.288 96.07 19.2903H95.81V19.6703Z" fill="#09144F"/>
</g>
<defs>
<radialGradient id="paint0_radial_0_3440" cx="0" cy="0" r="1" gradientUnits="userSpaceOnUse" gradientTransform="translate(18.3499 24.1007) scale(20.6482 20.6482)">
<stop offset="0.27" stop-color="white"/>
<stop offset="0.48" stop-color="#FBFBFB"/>
<stop offset="0.68" stop-color="#F0F0F0"/>
<stop offset="0.87" stop-color="#DEDDDC"/>
<stop offset="1" stop-color="#CDCCCB"/>
</radialGradient>
<radialGradient id="paint1_radial_0_3440" cx="0" cy="0" r="1" gradientUnits="userSpaceOnUse" gradientTransform="translate(35.2801 23.9604) scale(20.6907)">
<stop offset="0.19" stop-color="#FFE72E"/>
<stop offset="0.48" stop-color="#FAB82B"/>
<stop offset="1" stop-color="#F05B24"/>
</radialGradient>
<radialGradient id="paint2_radial_0_3440" cx="0" cy="0" r="1" gradientUnits="userSpaceOnUse" gradientTransform="translate(55.8301 23.8103) scale(22.1477)">
<stop offset="0.27" stop-color="white"/>
<stop offset="0.48" stop-color="#FBFBFB"/>
<stop offset="0.68" stop-color="#F0F0F0"/>
<stop offset="0.87" stop-color="#DEDDDC"/>
<stop offset="1" stop-color="#CDCCCB"/>
</radialGradient>
</defs>
</svg>
