<svg width="48" height="48" viewBox="0 0 48 48" fill="none" xmlns="http://www.w3.org/2000/svg">
<g clip-path="url(#clip0_0_3305)">
<mask id="mask0_0_3305" style="mask-type:luminance" maskUnits="userSpaceOnUse" x="0" y="0" width="48" height="48">
<path d="M0.519531 0.0743408H47.7695V48H0.519531V0.0743408Z" fill="white"/>
</mask>
<g mask="url(#mask0_0_3305)">
<mask id="path-2-inside-1_0_3305" fill="white">
<path fill-rule="evenodd" clip-rule="evenodd" d="M26.4695 0.373876L25.4995 12.3553C25.0495 12.2754 24.5995 12.2754 24.0695 12.2754C23.4695 12.2754 22.8695 12.3553 22.3495 12.4252L21.8195 6.66412C21.8195 6.51435 21.9695 6.2847 22.1195 6.2847H23.0995L22.6495 0.453752C22.6495 0.303984 22.7995 0.0743408 22.9495 0.0743408H26.1695C26.3995 0.0743408 26.5495 0.224108 26.4695 0.373876ZM18.3695 0.972946C18.2995 0.823179 18.1495 0.673411 17.9995 0.753287L14.9995 1.87155C14.7695 1.94144 14.6995 2.17109 14.7695 2.32086L17.2495 7.6426L16.3495 8.01202C16.1995 8.0919 16.1195 8.24167 16.1995 8.46133L18.6695 13.7032C19.5695 13.174 20.5495 12.8046 21.5995 12.5749L18.3695 0.972946ZM11.0195 4.34771L17.9995 14.1525C17.0995 14.7516 16.3495 15.4305 15.6695 16.1793L11.3995 12.0557C11.2495 11.906 11.2495 11.6763 11.3995 11.6064L12.1495 11.0074L8.01953 6.81388C7.86953 6.66412 7.86953 6.43447 8.01953 6.36458L10.4995 4.34771C10.6495 4.11807 10.8695 4.18796 11.0195 4.34771ZM5.16953 9.959C5.01953 9.87913 4.79953 9.87913 4.71953 10.0289L3.14953 12.8046C3.06953 12.9544 3.14953 13.184 3.29953 13.2539L8.61953 15.7999L8.09953 16.6187C8.01953 16.7784 8.09953 16.9981 8.24953 17.068L13.5695 19.4643C13.9495 18.4958 14.4695 17.5972 15.0695 16.7684L5.16953 9.959ZM1.19953 17.5273C1.19953 17.3675 1.41953 17.2277 1.56953 17.2976L13.1995 20.293C12.8995 21.2715 12.7495 22.3098 12.6695 23.3582L6.81953 22.9089C6.66953 22.9089 6.51953 22.7691 6.51953 22.5395L6.66953 21.561L0.969531 21.0418C0.819531 21.0418 0.669531 20.892 0.669531 20.6624L1.19953 17.5273ZM0.819531 25.3851C0.599531 25.3851 0.519531 25.5348 0.519531 25.7645L1.11953 28.8996C1.11953 29.0494 1.34953 29.1992 1.49953 29.1293L7.19953 27.6316L7.34953 28.6001C7.34953 28.7598 7.56953 28.8996 7.71953 28.8297L13.3495 27.2622C13.0495 26.2837 12.8195 25.2353 12.7495 24.1869L0.819531 25.3851ZM2.69953 33.6922C2.66576 33.6119 2.66235 33.522 2.68994 33.4394C2.71753 33.3567 2.77424 33.2869 2.84953 33.2429L13.7195 28.0809C14.0995 29.0494 14.6995 29.958 15.3695 30.7767L10.6495 34.1515C10.4995 34.2214 10.2695 34.2214 10.1995 34.0716L9.51953 33.2529L4.64953 36.6176C4.49953 36.6875 4.26953 36.6875 4.19953 36.5378L2.69953 33.6922ZM15.8195 31.4457L7.34953 39.9824C7.19953 40.1422 7.19953 40.3618 7.34953 40.4317L9.81953 42.4586C9.96953 42.6083 10.1995 42.5285 10.2695 42.3787L13.7195 37.5861L14.4695 38.2651C14.6195 38.4148 14.8495 38.345 14.9195 38.1852L18.2195 33.3926C17.3195 32.8734 16.4995 32.1945 15.8195 31.4556V31.4457ZM14.1695 45.0845C14.0195 45.0046 13.9495 44.8549 14.0195 44.6352L18.9695 33.7721C19.8695 34.2214 20.9195 34.6008 21.8995 34.8204L20.3995 40.4417C20.3195 40.5915 20.1695 40.7412 20.0195 40.6614L19.1195 40.282L17.5495 45.9731C17.4695 46.1329 17.3195 46.2727 17.1695 46.2028L14.1695 45.0745V45.0845ZM22.7195 34.9702L21.7495 46.9516C21.7495 47.1014 21.8995 47.331 22.0495 47.331H25.2695C25.4195 47.331 25.5695 47.1713 25.5695 46.9516L25.1195 41.1107H26.0995C26.2495 41.1107 26.3995 40.9609 26.3995 40.7313L25.8695 34.9702C25.2695 35.0401 24.7495 35.12 24.1495 35.12C23.6995 35.0401 23.1695 35.0401 22.7195 34.9702ZM34.3495 2.62039C34.3833 2.54007 34.3867 2.45023 34.3591 2.36758C34.3315 2.28494 34.2748 2.21511 34.1995 2.17109L31.1995 1.04284C31.0495 0.972947 30.8195 1.12271 30.8195 1.27248L29.2495 6.96365L28.3495 6.58424C28.1995 6.51435 27.9695 6.66412 27.9695 6.81388L26.4695 12.4352C27.5195 12.6548 28.4995 13.0342 29.3995 13.4735L34.3495 2.62039ZM40.9495 7.34306L32.4695 15.8698C31.7995 15.121 30.9695 14.452 30.0695 13.9229L33.3695 9.13029C33.4495 8.99051 33.6695 8.99051 33.8195 9.0604L34.5695 9.73934L38.0195 4.94678C38.0995 4.78703 38.3195 4.78703 38.4695 4.8669L40.9495 6.89376C41.0195 7.03354 41.0195 7.26319 40.9495 7.34306ZM45.4495 14.0826C45.5995 14.0027 45.6695 13.7831 45.5995 13.6233L44.0195 10.8576C43.9495 10.7078 43.7195 10.628 43.5695 10.7777L38.6995 14.1525L38.1695 13.3338C38.0995 13.184 37.8695 13.1041 37.7195 13.2539L32.9995 16.5488C33.6695 17.3675 34.1995 18.2761 34.6495 19.2446L45.4495 14.0826ZM47.1695 18.4259L47.6995 21.561C47.6995 21.7208 47.6195 21.9404 47.3995 21.9404L35.4695 23.0687C35.3995 22.0203 35.1695 20.9719 34.8695 19.9934L40.4995 18.4259C40.6495 18.346 40.8695 18.4958 40.8695 18.6455L41.0195 19.614L46.7195 18.1163C46.8154 18.1179 46.9088 18.147 46.9886 18.2001C47.0684 18.2532 47.1312 18.3281 47.1695 18.4159V18.4259ZM46.6495 30.0279C46.7995 30.0978 47.0195 29.958 47.0195 29.7982L47.5495 26.6631C47.5495 26.5133 47.4695 26.2837 47.2495 26.2837L41.3995 25.7645L41.5495 24.786C41.5495 24.6362 41.4695 24.4066 41.2495 24.4066L35.3995 23.9573C35.3995 25.0057 35.1695 26.054 34.8695 27.0325L46.6495 30.0279ZM43.5695 37.2167C43.4995 37.3665 43.2695 37.4364 43.1195 37.2866L33.2195 30.4772C33.8195 29.6584 34.3495 28.7598 34.7195 27.7813L40.0495 30.1776C40.1995 30.2575 40.2695 30.4772 40.1995 30.6269L39.6695 31.5255L44.9995 34.0716C45.1495 34.1515 45.2195 34.3711 45.1495 34.5209L43.5695 37.2167ZM30.2995 33.173L37.2695 42.9878C37.3495 43.1375 37.5695 43.1375 37.7195 43.0576L40.1995 41.0408C40.3495 40.881 40.3495 40.7412 40.1995 40.5915L36.0695 36.398L36.8195 35.7989C36.9695 35.6392 36.9695 35.4994 36.8195 35.3496L32.6995 31.226C32.0195 31.9748 31.1995 32.6538 30.2995 33.173ZM30.2995 46.5023C30.1495 46.5822 29.9195 46.4224 29.9195 46.2727L26.7695 34.7406C27.7997 34.5261 28.7888 34.1486 29.6995 33.6223L32.1695 38.8642C32.2495 39.0139 32.1695 39.2436 32.0195 39.3135L31.1195 39.6929L33.5995 45.0046C33.6695 45.1544 33.5995 45.384 33.4495 45.4539L30.2995 46.5023Z"/>
</mask>
<path fill-rule="evenodd" clip-rule="evenodd" d="M26.4695 0.373876L25.4995 12.3553C25.0495 12.2754 24.5995 12.2754 24.0695 12.2754C23.4695 12.2754 22.8695 12.3553 22.3495 12.4252L21.8195 6.66412C21.8195 6.51435 21.9695 6.2847 22.1195 6.2847H23.0995L22.6495 0.453752C22.6495 0.303984 22.7995 0.0743408 22.9495 0.0743408H26.1695C26.3995 0.0743408 26.5495 0.224108 26.4695 0.373876ZM18.3695 0.972946C18.2995 0.823179 18.1495 0.673411 17.9995 0.753287L14.9995 1.87155C14.7695 1.94144 14.6995 2.17109 14.7695 2.32086L17.2495 7.6426L16.3495 8.01202C16.1995 8.0919 16.1195 8.24167 16.1995 8.46133L18.6695 13.7032C19.5695 13.174 20.5495 12.8046 21.5995 12.5749L18.3695 0.972946ZM11.0195 4.34771L17.9995 14.1525C17.0995 14.7516 16.3495 15.4305 15.6695 16.1793L11.3995 12.0557C11.2495 11.906 11.2495 11.6763 11.3995 11.6064L12.1495 11.0074L8.01953 6.81388C7.86953 6.66412 7.86953 6.43447 8.01953 6.36458L10.4995 4.34771C10.6495 4.11807 10.8695 4.18796 11.0195 4.34771ZM5.16953 9.959C5.01953 9.87913 4.79953 9.87913 4.71953 10.0289L3.14953 12.8046C3.06953 12.9544 3.14953 13.184 3.29953 13.2539L8.61953 15.7999L8.09953 16.6187C8.01953 16.7784 8.09953 16.9981 8.24953 17.068L13.5695 19.4643C13.9495 18.4958 14.4695 17.5972 15.0695 16.7684L5.16953 9.959ZM1.19953 17.5273C1.19953 17.3675 1.41953 17.2277 1.56953 17.2976L13.1995 20.293C12.8995 21.2715 12.7495 22.3098 12.6695 23.3582L6.81953 22.9089C6.66953 22.9089 6.51953 22.7691 6.51953 22.5395L6.66953 21.561L0.969531 21.0418C0.819531 21.0418 0.669531 20.892 0.669531 20.6624L1.19953 17.5273ZM0.819531 25.3851C0.599531 25.3851 0.519531 25.5348 0.519531 25.7645L1.11953 28.8996C1.11953 29.0494 1.34953 29.1992 1.49953 29.1293L7.19953 27.6316L7.34953 28.6001C7.34953 28.7598 7.56953 28.8996 7.71953 28.8297L13.3495 27.2622C13.0495 26.2837 12.8195 25.2353 12.7495 24.1869L0.819531 25.3851ZM2.69953 33.6922C2.66576 33.6119 2.66235 33.522 2.68994 33.4394C2.71753 33.3567 2.77424 33.2869 2.84953 33.2429L13.7195 28.0809C14.0995 29.0494 14.6995 29.958 15.3695 30.7767L10.6495 34.1515C10.4995 34.2214 10.2695 34.2214 10.1995 34.0716L9.51953 33.2529L4.64953 36.6176C4.49953 36.6875 4.26953 36.6875 4.19953 36.5378L2.69953 33.6922ZM15.8195 31.4457L7.34953 39.9824C7.19953 40.1422 7.19953 40.3618 7.34953 40.4317L9.81953 42.4586C9.96953 42.6083 10.1995 42.5285 10.2695 42.3787L13.7195 37.5861L14.4695 38.2651C14.6195 38.4148 14.8495 38.345 14.9195 38.1852L18.2195 33.3926C17.3195 32.8734 16.4995 32.1945 15.8195 31.4556V31.4457ZM14.1695 45.0845C14.0195 45.0046 13.9495 44.8549 14.0195 44.6352L18.9695 33.7721C19.8695 34.2214 20.9195 34.6008 21.8995 34.8204L20.3995 40.4417C20.3195 40.5915 20.1695 40.7412 20.0195 40.6614L19.1195 40.282L17.5495 45.9731C17.4695 46.1329 17.3195 46.2727 17.1695 46.2028L14.1695 45.0745V45.0845ZM22.7195 34.9702L21.7495 46.9516C21.7495 47.1014 21.8995 47.331 22.0495 47.331H25.2695C25.4195 47.331 25.5695 47.1713 25.5695 46.9516L25.1195 41.1107H26.0995C26.2495 41.1107 26.3995 40.9609 26.3995 40.7313L25.8695 34.9702C25.2695 35.0401 24.7495 35.12 24.1495 35.12C23.6995 35.0401 23.1695 35.0401 22.7195 34.9702ZM34.3495 2.62039C34.3833 2.54007 34.3867 2.45023 34.3591 2.36758C34.3315 2.28494 34.2748 2.21511 34.1995 2.17109L31.1995 1.04284C31.0495 0.972947 30.8195 1.12271 30.8195 1.27248L29.2495 6.96365L28.3495 6.58424C28.1995 6.51435 27.9695 6.66412 27.9695 6.81388L26.4695 12.4352C27.5195 12.6548 28.4995 13.0342 29.3995 13.4735L34.3495 2.62039ZM40.9495 7.34306L32.4695 15.8698C31.7995 15.121 30.9695 14.452 30.0695 13.9229L33.3695 9.13029C33.4495 8.99051 33.6695 8.99051 33.8195 9.0604L34.5695 9.73934L38.0195 4.94678C38.0995 4.78703 38.3195 4.78703 38.4695 4.8669L40.9495 6.89376C41.0195 7.03354 41.0195 7.26319 40.9495 7.34306ZM45.4495 14.0826C45.5995 14.0027 45.6695 13.7831 45.5995 13.6233L44.0195 10.8576C43.9495 10.7078 43.7195 10.628 43.5695 10.7777L38.6995 14.1525L38.1695 13.3338C38.0995 13.184 37.8695 13.1041 37.7195 13.2539L32.9995 16.5488C33.6695 17.3675 34.1995 18.2761 34.6495 19.2446L45.4495 14.0826ZM47.1695 18.4259L47.6995 21.561C47.6995 21.7208 47.6195 21.9404 47.3995 21.9404L35.4695 23.0687C35.3995 22.0203 35.1695 20.9719 34.8695 19.9934L40.4995 18.4259C40.6495 18.346 40.8695 18.4958 40.8695 18.6455L41.0195 19.614L46.7195 18.1163C46.8154 18.1179 46.9088 18.147 46.9886 18.2001C47.0684 18.2532 47.1312 18.3281 47.1695 18.4159V18.4259ZM46.6495 30.0279C46.7995 30.0978 47.0195 29.958 47.0195 29.7982L47.5495 26.6631C47.5495 26.5133 47.4695 26.2837 47.2495 26.2837L41.3995 25.7645L41.5495 24.786C41.5495 24.6362 41.4695 24.4066 41.2495 24.4066L35.3995 23.9573C35.3995 25.0057 35.1695 26.054 34.8695 27.0325L46.6495 30.0279ZM43.5695 37.2167C43.4995 37.3665 43.2695 37.4364 43.1195 37.2866L33.2195 30.4772C33.8195 29.6584 34.3495 28.7598 34.7195 27.7813L40.0495 30.1776C40.1995 30.2575 40.2695 30.4772 40.1995 30.6269L39.6695 31.5255L44.9995 34.0716C45.1495 34.1515 45.2195 34.3711 45.1495 34.5209L43.5695 37.2167ZM30.2995 33.173L37.2695 42.9878C37.3495 43.1375 37.5695 43.1375 37.7195 43.0576L40.1995 41.0408C40.3495 40.881 40.3495 40.7412 40.1995 40.5915L36.0695 36.398L36.8195 35.7989C36.9695 35.6392 36.9695 35.4994 36.8195 35.3496L32.6995 31.226C32.0195 31.9748 31.1995 32.6538 30.2995 33.173ZM30.2995 46.5023C30.1495 46.5822 29.9195 46.4224 29.9195 46.2727L26.7695 34.7406C27.7997 34.5261 28.7888 34.1486 29.6995 33.6223L32.1695 38.8642C32.2495 39.0139 32.1695 39.2436 32.0195 39.3135L31.1195 39.6929L33.5995 45.0046C33.6695 45.1544 33.5995 45.384 33.4495 45.4539L30.2995 46.5023Z" fill="#18181B" stroke="#18181B" stroke-width="2" mask="url(#path-2-inside-1_0_3305)"/>
</g>
</g>
<defs>
<clipPath id="clip0_0_3305">
<rect width="48" height="48" fill="white"/>
</clipPath>
</defs>
</svg>
