<svg width="48" height="48" viewBox="0 0 48 48" fill="none" xmlns="http://www.w3.org/2000/svg">
<g clip-path="url(#clip0_0_3097)">
<mask id="mask0_0_3097" style="mask-type:luminance" maskUnits="userSpaceOnUse" x="0" y="0" width="48" height="48">
<path d="M0.499023 0H47.9326V48H0.508623L0.499023 0Z" fill="white"/>
</mask>
<g mask="url(#mask0_0_3097)">
<path d="M45.2254 1.77321e-05H3.21582C2.8595 -0.00129848 2.50644 0.0706716 2.17687 0.2118C1.84731 0.352929 1.54774 0.56044 1.29534 0.822433C1.04293 1.08442 0.842661 1.39574 0.706011 1.73854C0.569362 2.08133 0.499021 2.44885 0.499023 2.82002V45.18C0.499021 45.5512 0.569362 45.9187 0.706011 46.2615C0.842661 46.6043 1.04293 46.9156 1.29534 47.1776C1.54774 47.4396 1.84731 47.6471 2.17687 47.7882C2.50644 47.9294 2.8595 48.0013 3.21582 48H45.2158C45.5721 48.0013 45.9252 47.9294 46.2548 47.7882C46.5843 47.6471 46.8839 47.4396 47.1363 47.1776C47.3887 46.9156 47.589 46.6043 47.7256 46.2615C47.8623 45.9187 47.9326 45.5512 47.9326 45.18V2.82002C47.9326 2.44885 47.8623 2.08133 47.7256 1.73854C47.589 1.39574 47.3887 1.08442 47.1363 0.822433C46.8839 0.56044 46.5843 0.352929 46.2548 0.2118C45.9252 0.0706716 45.5721 -0.00129848 45.2158 1.77321e-05H45.2254Z" fill="#F32B09"/>
<path d="M37.0651 22.1996L28.3003 21.5196L32.0443 13.1596L28.9723 11.2896L24.2107 18.8096L19.4587 11.2896L16.3771 13.1596L20.1211 21.5196L11.3467 22.2095V25.9696L19.9867 26.6496L16.2427 35.0095L19.3147 36.8695L24.2107 29.1395L29.1067 36.8695L32.1787 35.0095L28.4251 26.6496L37.0651 25.9696V22.1996Z" fill="white"/>
</g>
</g>
<defs>
<clipPath id="clip0_0_3097">
<rect width="48" height="48" fill="white"/>
</clipPath>
</defs>
</svg>
