<svg width="41" height="48" viewBox="0 0 41 48" fill="none" xmlns="http://www.w3.org/2000/svg">
<path d="M11.4446 45.5887L12.2646 40.4375L10.4489 40.3907H1.81543L7.81314 2.3536C7.83657 2.23653 7.89514 2.13116 7.98886 2.06092C8.07086 1.97897 8.188 1.94385 8.30514 1.94385H22.866C27.704 1.94385 31.0426 2.95068 32.788 4.92921C33.608 5.8658 34.1234 6.83751 34.3694 7.90287C34.6389 9.02677 34.6389 10.3614 34.3811 12.0004L34.3694 12.1175V13.1712L35.1894 13.6395C35.8083 13.958 36.364 14.3865 36.8294 14.9038C37.5323 15.6999 37.9891 16.7068 38.1766 17.9126C38.3757 19.1419 38.3054 20.6053 37.9891 22.2677C37.6801 24.0052 37.0738 25.6765 36.1969 27.2082C35.4785 28.4285 34.5129 29.4852 33.362 30.3107C32.2053 31.1133 30.9109 31.6967 29.5431 32.0317C28.1374 32.4063 26.5326 32.5819 24.7754 32.5819H23.6391C22.827 32.5885 22.0435 32.8826 21.428 33.4121C20.8124 33.9415 20.4046 34.672 20.2771 35.4736L20.1834 35.9419L18.7543 45.0268L18.684 45.3546C18.6723 45.4717 18.6371 45.5185 18.602 45.5536C18.5583 45.5865 18.5044 45.6031 18.4497 45.6004H11.4446V45.5887Z" fill="#253B80"/>
<path d="M35.9633 12.2458C35.9173 12.5316 35.8666 12.8165 35.811 13.1005C33.8899 22.958 27.3181 26.3649 18.919 26.3649H14.6433C13.6241 26.3649 12.7573 27.1024 12.5933 28.121L10.4261 41.9824L9.80528 45.9161C9.77977 46.0721 9.78855 46.2317 9.831 46.384C9.87346 46.5362 9.94857 46.6774 10.0511 46.7977C10.1537 46.9181 10.2812 47.0146 10.4249 47.0807C10.5685 47.1468 10.7248 47.1809 10.883 47.1805H18.4621C19.3524 47.1805 20.1139 46.5249 20.2661 45.6468L20.3364 45.2605L21.7656 36.2107L21.8593 35.7073C21.9881 34.8293 22.7613 34.1737 23.6516 34.1737H24.7879C32.1327 34.1737 37.8844 31.1883 39.5596 22.5717C40.2624 18.9658 39.8993 15.9571 38.0367 13.8498C37.4744 13.2058 36.7833 12.679 35.9633 12.2458Z" fill="#179BD7"/>
<path d="M33.9479 11.4494C33.3327 11.2695 32.7067 11.1288 32.0736 11.0279C30.9256 10.8523 29.6605 10.7587 28.3133 10.7587H16.8919C16.4593 10.759 16.0411 10.9137 15.7125 11.1949C15.384 11.4761 15.1666 11.8652 15.0996 12.2923L12.6513 27.6757L12.5811 28.1206C12.7451 27.1021 13.6119 26.3645 14.6311 26.3645H18.9068C27.3059 26.3645 33.8776 22.9577 35.7988 13.1001L35.9393 12.2455C35.3015 11.9105 34.6301 11.6437 33.9362 11.4494H33.9479Z" fill="#222D65"/>
<path d="M15.1001 12.2928C15.1696 11.8678 15.388 11.4814 15.7164 11.2026C16.0447 10.9238 16.4615 10.7707 16.8924 10.7708H28.3138C29.8984 10.7612 31.4799 10.9102 33.0347 11.2157C33.4891 11.3159 33.9386 11.437 34.3818 11.5786C34.9441 11.766 35.4712 11.9884 35.9515 12.246C36.5372 8.61668 35.9515 6.12303 33.9835 3.88693C31.8047 1.40498 27.8804 0.351318 22.8667 0.351318H8.31753C7.29839 0.351318 6.41982 1.10059 6.25582 2.10742L0.187815 40.5425C0.0706719 41.3035 0.656386 41.9825 1.41781 41.9825H10.4144L12.6635 27.6762L15.1118 12.2928H15.1001Z" fill="#253B80"/>
</svg>
