<svg width="46" height="48" viewBox="0 0 46 48" fill="none" xmlns="http://www.w3.org/2000/svg">
<g clip-path="url(#clip0_0_2638)">
<path d="M33.7562 34.5141C34.0416 32.0993 33.9558 31.747 35.7244 32.1367L36.1744 32.1776C37.535 32.2399 39.3141 31.9552 40.377 31.4622C42.6271 30.4017 43.9614 28.6293 41.7428 29.0955C36.6822 30.1561 36.3145 28.414 36.3145 28.414C41.6605 20.3528 43.8967 10.1207 41.9652 7.61695C36.705 0.783676 27.5976 4.01525 27.4453 4.10066L27.3962 4.10956C26.3981 3.89602 25.2949 3.77145 24.0167 3.75366C21.7262 3.71807 19.9892 4.36403 18.6689 5.38012C18.6689 5.38012 2.42411 -1.42112 3.17883 13.9342C3.33993 17.2013 7.78416 38.6692 13.0899 32.174C15.0319 29.8002 16.9055 27.7947 16.9055 27.7947C17.8336 28.4228 18.949 28.7432 20.117 28.6275L20.2081 28.5492C20.1811 28.8568 20.1935 29.1666 20.2448 29.471C18.879 31.0227 19.2817 31.295 16.5501 31.8662C13.7869 32.4445 15.4119 33.4748 16.4695 33.7453C17.7548 34.0728 20.7281 34.5354 22.7384 31.6776L22.6578 32.0032C23.1937 32.4392 23.1569 35.1351 23.2357 37.0605C23.3145 38.986 23.4388 40.785 23.8258 41.8438C24.2128 42.9026 24.6663 45.6342 28.256 44.869C31.2556 44.2159 33.5495 43.2745 33.7597 34.5301" fill="#18181B"/>
<path d="M33.7562 34.5141C34.0416 32.0993 33.9558 31.747 35.7244 32.1367L36.1744 32.1776C37.535 32.2399 39.3141 31.9552 40.377 31.4622C42.6271 30.4017 43.9614 28.6293 41.7428 29.0955C36.6822 30.1561 36.3145 28.414 36.3145 28.414C41.6605 20.3528 43.8967 10.1207 41.9652 7.61695C36.705 0.783676 27.5976 4.01525 27.4453 4.10066L27.3962 4.10956C26.3981 3.89602 25.2949 3.77145 24.0167 3.75366C21.7262 3.71807 19.9892 4.36403 18.6689 5.38012C18.6689 5.38012 2.42411 -1.42112 3.17883 13.9342C3.33993 17.2013 7.78416 38.6692 13.0899 32.174C15.0319 29.8002 16.9055 27.7947 16.9055 27.7947C17.8336 28.4228 18.949 28.7432 20.117 28.6275L20.2081 28.5492C20.1811 28.8568 20.1935 29.1666 20.2448 29.471C18.879 31.0227 19.2817 31.295 16.5501 31.8662C13.7869 32.4445 15.4119 33.4748 16.4695 33.7453C17.7548 34.0728 20.7281 34.5354 22.7384 31.6776L22.6578 32.0032C23.1937 32.4392 23.1569 35.1351 23.2357 37.0605C23.3145 38.986 23.4388 40.785 23.8258 41.8438C24.2128 42.9026 24.6663 45.6342 28.256 44.869C31.2556 44.2159 33.5495 43.2745 33.7597 34.5301" stroke="#18181B" stroke-width="5.3725"/>
<path d="M41.741 29.1014C36.6802 30.1623 36.3125 28.4197 36.3125 28.4197C41.6587 20.3565 43.8949 10.1218 41.9652 7.61738C36.7047 0.782361 27.597 4.01654 27.4446 4.10019L27.3956 4.10909C26.2832 3.88221 25.1522 3.76243 24.0176 3.75132C21.7271 3.71572 19.99 4.36185 18.6696 5.3782C18.6696 5.3782 2.42244 -1.42478 3.17894 13.9344C3.34005 17.2024 7.78447 38.6758 13.0905 32.179C15.0447 29.7903 16.9185 27.7843 16.9185 27.7843C17.8466 28.4126 18.9621 28.733 20.1301 28.6173L20.2211 28.539C20.1944 28.8466 20.2067 29.1565 20.2579 29.461C18.892 31.0131 19.2948 31.2854 16.563 31.8568C13.7997 32.4353 15.4247 33.4659 16.4824 33.7364C17.7678 34.0639 20.7412 34.5267 22.7516 31.6681L22.671 31.9938C23.2069 32.4299 23.5816 34.8293 23.5186 37.0044C23.4555 39.1795 23.4135 40.6711 23.8338 41.8388C24.254 43.0064 24.6743 45.6301 28.2642 44.8647C31.2639 44.2114 32.8172 42.5151 33.0361 39.6921C33.1902 37.6844 33.5369 37.9798 33.5614 36.1856L33.8416 35.3348C34.1621 32.6115 33.8941 31.734 35.7416 32.1434L36.1916 32.1843C37.5523 32.2466 39.3332 31.9618 40.3769 31.4688C42.6271 30.4079 43.9597 28.6351 41.741 29.1014Z" fill="#336791"/>
<path d="M23.0494 30.6377C22.9072 35.6864 23.085 40.7706 23.5791 41.991C24.0732 43.2115 25.1342 45.6277 28.7795 44.8507C31.8241 44.1996 32.9331 42.9383 33.413 40.155L34.5381 31.255M18.6808 5.32848C18.6808 5.32848 2.18006 -1.40549 2.94786 13.9021C3.11138 17.1591 7.62223 38.5602 13.0075 32.0852C14.9733 29.7205 16.7506 27.8703 16.7506 27.8703M27.5923 4.09912C27.0235 4.27652 36.7704 0.54232 42.3121 7.60803C44.2671 10.104 42.001 20.3043 36.5749 28.3404" stroke="white" stroke-width="1.79" stroke-linecap="round" stroke-linejoin="round"/>
<path d="M36.5768 28.3367C36.5768 28.3367 36.9322 30.0752 42.0865 29.0143C44.3384 28.5495 42.9823 30.3164 40.7002 31.3737C38.8269 32.2429 34.6253 32.4647 34.556 31.2673C34.3782 28.1717 36.7669 29.1119 36.5945 28.3367C36.4381 27.6377 35.3682 26.953 34.6644 25.2429C34.0476 23.7527 26.2043 12.3107 36.8398 14.0083C37.2308 13.9285 34.0672 3.89674 24.1142 3.75127C14.1611 3.60581 14.4757 15.965 14.4757 15.965" stroke="white" stroke-width="1.79" stroke-linecap="round" stroke-linejoin="bevel"/>
<path d="M20.2642 29.3987C18.8779 30.9456 19.2867 31.217 16.5141 31.7864C13.7095 32.363 15.3588 33.3901 16.4323 33.6598C17.7369 33.9862 20.7548 34.4474 22.7951 31.5966C23.4172 30.7274 22.7916 29.3437 21.9385 28.9924C21.5261 28.8221 20.9752 28.6093 20.2678 29.4005L20.2642 29.3987Z" stroke="white" stroke-width="1.79" stroke-linejoin="round"/>
<path d="M20.1735 29.3719C20.0313 28.4618 20.4721 27.3815 20.943 26.1149C21.6504 24.2167 23.282 22.3186 21.9774 16.2924C21.0053 11.8043 14.4771 15.3576 14.4771 15.966C14.4771 16.5745 14.7722 19.0527 14.3705 21.9354C13.8426 25.6998 16.7699 28.8823 20.1397 28.5576" stroke="white" stroke-width="1.79" stroke-linecap="round" stroke-linejoin="round"/>
<path d="M18.6207 15.8752C18.5905 16.0828 19.0028 16.638 19.5378 16.7125C20.0728 16.787 20.5295 16.3542 20.5598 16.1449C20.59 15.9355 20.1776 15.7085 19.6427 15.634C19.1077 15.5594 18.6474 15.6694 18.6207 15.8752Z" fill="white" stroke="white" stroke-width="0.5975"/>
<path d="M34.9081 15.4521C34.9365 15.6597 34.5259 16.2149 33.991 16.2894C33.456 16.3639 32.9957 15.9311 32.969 15.7218C32.9423 15.5124 33.3511 15.2854 33.8861 15.2109C34.4211 15.1363 34.8814 15.2463 34.9081 15.4521Z" fill="white" stroke="white" stroke-width="0.2975"/>
<path d="M36.5973 13.698C36.6777 15.4304 36.2786 16.6073 36.2271 18.4507C36.1531 21.1284 37.3182 24.1939 35.5625 27.2632" stroke="white" stroke-width="1.79" stroke-linecap="round" stroke-linejoin="round"/>
</g>
<defs>
<clipPath id="clip0_0_2638">
<rect width="46" height="48" fill="white"/>
</clipPath>
</defs>
</svg>
