<svg width="44" height="48" viewBox="0 0 44 48" fill="none" xmlns="http://www.w3.org/2000/svg">
<g clip-path="url(#clip0_0_2543)">
<path d="M40.8129 27.109V15.7751C40.8129 14.4527 40.2556 13.669 39.0725 13.2968C28.3561 9.92696 17.6592 6.51799 6.92316 3.18737C5.26094 2.6486 3.95072 3.67717 3.95072 5.48941V20.3792C3.99961 20.82 3.95072 21.2608 3.79427 21.6527C3.66716 21.8584 3.51072 22.0445 3.32494 22.1621C3.10983 22.2796 2.92405 22.3874 2.67961 22.407C2.31783 22.407 1.8485 21.9857 1.56494 21.6527C1.38841 21.3479 1.31951 20.9925 1.36938 20.6437C1.36938 15.6968 1.3205 10.7988 1.36938 5.85186C1.41827 1.89431 4.27338 -0.221606 7.90094 0.885332C9.45561 1.34574 10.9809 1.88452 12.5356 2.36452L39.1116 10.7792C42.0449 11.6608 43.2378 13.1596 43.2378 16.3629C43.2769 23.651 43.2769 30.9 43.2378 38.1784C43.2378 41.558 41.1356 43.9482 38.2805 43.5759C36.6672 43.38 35.0832 42.6747 33.5383 42.1359C32.8929 41.9204 32.7365 41.2543 32.9516 40.6176C32.9907 40.4804 33.0494 40.3433 33.1472 40.2257C33.3465 39.9973 33.6274 39.8566 33.9294 39.8339C34.0956 39.8143 34.2227 39.8143 34.3694 39.9025C35.3569 40.1866 36.3543 40.4804 37.3418 40.8429C39.444 41.5776 40.7347 40.6372 40.7347 38.3939V27.1384H40.7836L40.8032 27.109H40.8129Z" fill="#18181B"/>
<path d="M24.2786 32.0367V19.5959C24.2395 18.9689 24.396 18.342 24.7284 17.8228C25.0804 17.284 25.5595 16.902 26.1168 16.6669C27.2902 16.2163 28.62 16.5004 29.3044 17.5485C29.7151 18.1853 29.9791 18.9395 29.9889 19.7232C30.0866 27.9224 30.0475 36.151 30.0475 44.2816C30.0475 45.604 29.6173 46.7306 28.3951 47.2987C27.9135 47.5493 27.3686 47.6514 26.8292 47.5921C26.2897 47.5329 25.7799 47.3149 25.364 46.9657C24.5329 46.3093 24.2786 45.3689 24.2786 44.2816V32.0171V32.0367ZM22.0004 32.2424V41.5093C22.0385 42.1213 21.8846 42.7299 21.5602 43.2498C21.2359 43.7698 20.7573 44.1751 20.1915 44.4089C19.0769 44.8595 17.9329 44.7714 17.1311 43.782C16.6087 43.1257 16.3105 42.3188 16.2804 41.48C16.1826 35.2791 16.2217 29.0391 16.2804 22.8383C16.2804 20.9085 17.4929 19.6155 19.1942 19.6644C20.8369 19.7036 22.0004 21.0065 22.0004 22.8971V32.262V32.2424ZM13.9337 32.1248V38.1493C13.9337 39.9616 12.6724 41.3232 11.0786 41.3232C9.47507 41.3232 8.22352 39.9616 8.22352 38.1493V26.0024C8.22352 24.2195 9.39685 22.9657 10.9906 22.9265C11.5877 22.9114 12.1743 23.085 12.6675 23.4225C13.1606 23.7601 13.5352 24.2446 13.7382 24.8073C13.8751 25.1991 13.9435 25.591 13.9337 25.9828C13.9826 28.0693 13.9337 30.1167 13.9337 32.1738V32.1248ZM5.86707 32.213V35.4457C5.90844 36.2242 5.64937 36.9888 5.14352 37.5812C4.64203 38.148 3.94146 38.4989 3.18796 38.5608C2.43507 38.5608 1.70174 38.2865 1.16396 37.7477C0.610821 37.2078 0.27649 36.4821 0.225297 35.7102C0.138443 33.3371 0.138443 30.9616 0.225297 28.5885C0.260867 27.8194 0.596315 27.0949 1.1595 26.571C1.72268 26.0471 2.46861 25.7655 3.23685 25.7869C4.82085 25.8653 5.87685 27.1387 5.92574 28.8628V32.213H5.86707Z" fill="#18181B"/>
</g>
<defs>
<clipPath id="clip0_0_2543">
<rect width="44" height="48" fill="white"/>
</clipPath>
</defs>
</svg>
