<svg width="42" height="49" viewBox="0 0 42 49" fill="none" xmlns="http://www.w3.org/2000/svg">
<g clip-path="url(#clip0_0_8924)">
<path d="M20.7394 37.2526L38.1599 41.5976V7.41357L20.7394 11.7596V37.2526Z" fill="#205B97"/>
<path d="M38.1598 7.41357L41.4778 9.15257V39.8586L38.1589 41.5966L38.1598 7.41357ZM20.7394 37.2526L3.31891 41.5976V7.41357L20.7394 11.7596V37.2526Z" fill="#5193CE"/>
<path d="M3.318 7.41357L0 9.15257V39.8586L3.318 41.5966V7.41357Z" fill="#205B97"/>
<path d="M25.1637 48.5511L31.8007 45.0751V4.03508L25.1637 0.559082L23.1353 23.3491L25.1637 48.5511Z" fill="#5193CE"/>
<path d="M16.3132 48.5511L9.67719 45.0751V4.03508L16.3141 0.559082L18.3425 23.3491L16.3132 48.5511Z" fill="#205B97"/>
<path d="M16.3132 0.559082H25.2544V48.4541H16.3132V0.559082Z" fill="#2E73B7"/>
</g>
<defs>
<clipPath id="clip0_0_8924">
<rect width="42" height="48" fill="white" transform="translate(0 0.559082)"/>
</clipPath>
</defs>
</svg>
