<svg width="49" height="48" viewBox="0 0 49 48" fill="none" xmlns="http://www.w3.org/2000/svg">
<g clip-path="url(#clip0_0_2262)">
<path d="M34.7405 47.9997L13.9405 38.5097C12.5768 37.8929 11.4212 36.8939 10.6136 35.6337C9.80608 34.3736 9.3812 32.9063 9.39046 31.4097C9.3812 29.913 9.80608 28.4458 10.6136 27.1856C11.4212 25.9255 12.5768 24.9265 13.9405 24.3097L32.2805 15.9397C32.5535 15.815 32.7842 15.6132 32.9441 15.3591C33.104 15.1051 33.1861 14.8098 33.1805 14.5097C33.1805 14.2197 33.1105 13.9097 32.9505 13.6697C32.7891 13.417 32.5557 13.2185 32.2805 13.0997L17.5605 6.39968C17.3205 6.28968 17.0605 6.23968 16.8205 6.26968C16.5605 6.28968 16.3205 6.36968 16.0905 6.50968C15.8805 6.63968 15.7005 6.84968 15.5705 7.05968C15.4405 7.28968 15.3705 7.54968 15.3705 7.80968V14.8697H9.15046V7.80968C9.1449 6.50293 9.47028 5.21605 10.0963 4.06898C10.7223 2.92192 11.6285 1.95201 12.7305 1.24968C13.822 0.549782 15.0683 0.127511 16.3605 0.019684C17.6605 -0.080316 18.9605 0.169684 20.1605 0.699684L34.8705 7.39968C36.2273 8.02833 37.3764 9.03147 38.1825 10.2911C38.9885 11.5506 39.418 13.0143 39.4205 14.5097C39.4297 16.0064 39.0048 17.4736 38.1973 18.7337C37.3897 19.9939 36.2341 20.9929 34.8705 21.6097L16.5305 29.9997C16.2505 30.1297 16.0305 30.3297 15.8605 30.5697C15.7036 30.8218 15.6205 31.1128 15.6205 31.4097C15.6205 31.7066 15.7036 31.9976 15.8605 32.2497C16.0205 32.4997 16.2605 32.7097 16.5305 32.8197L37.3305 42.3097L34.7605 48.0097H34.7405V47.9997Z" fill="#234BA2"/>
</g>
<defs>
<clipPath id="clip0_0_2262">
<rect width="49" height="48" fill="white"/>
</clipPath>
</defs>
</svg>
