<svg width="48" height="48" viewBox="0 0 48 48" fill="none" xmlns="http://www.w3.org/2000/svg">
<path d="M22.8285 30.7552C20.8795 30.7383 19.0152 29.9727 17.6365 28.6231C16.2579 27.2735 15.4751 25.4477 15.4565 23.5385C15.4539 22.5896 15.6428 21.6496 16.0124 20.7725C16.382 19.8954 16.925 19.0985 17.6101 18.4277C18.2952 17.7569 19.109 17.2255 20.0046 16.8639C20.9002 16.5023 21.8599 16.3178 22.8285 16.3209C23.7826 16.3024 24.7304 16.4752 25.6138 16.8286C26.4971 17.182 27.2975 17.7086 27.9655 18.3761L31.7635 14.6585C30.579 13.5018 29.1705 12.5887 27.6206 11.9729C26.0708 11.357 24.4109 11.0508 22.7385 11.0722C19.3741 11.0721 16.1473 12.3807 13.7675 14.7104C11.9933 16.4478 10.7849 18.6616 10.2955 21.0718C9.80599 23.4821 10.0574 25.9804 11.0178 28.2507C11.9782 30.5209 13.6044 32.4611 15.6908 33.8257C17.7772 35.1903 20.2299 35.9179 22.7385 35.9166C26.1043 35.8945 29.3337 34.6109 31.7635 32.3294L27.9655 28.6118C26.6035 29.9544 24.7605 30.7234 22.8285 30.7552Z" fill="#F0AB00"/>
<path d="M33.5061 20.388C33.0307 20.3884 32.5613 20.4919 32.1317 20.6912C31.702 20.8905 31.3227 21.1805 31.0211 21.5404C30.7194 21.9003 30.5029 22.3212 30.3871 22.7729C30.2712 23.2245 30.2589 23.6957 30.3511 24.1525C30.476 24.7631 30.7826 25.3238 31.2323 25.764C31.682 26.2042 32.2547 26.5041 32.8781 26.626C33.502 26.7472 34.1485 26.6847 34.7362 26.4464C35.3238 26.2081 35.8263 25.8046 36.1801 25.2869C36.5337 24.7692 36.7223 24.1602 36.7221 23.5373C36.7253 22.9136 36.5383 22.3032 36.185 21.7843C35.8316 21.2654 35.3282 20.8617 34.7391 20.625C34.3481 20.4671 33.929 20.3865 33.5061 20.388Z" fill="#F0AB00"/>
<path d="M0 47.0263H47.98V0.00585938H0V47.0263ZM5.36099 41.6904V5.25451H42.575V41.6464C42.53 41.6904 5.36099 41.6904 5.36099 41.6904Z" fill="#F0AB00"/>
</svg>
