<svg width="70" height="48" viewBox="0 0 70 48" fill="none" xmlns="http://www.w3.org/2000/svg">
<path d="M61.3202 45.3502L37.043 0.00348906H42.4079C42.8985 -0.022536 43.3859 0.0974749 43.8096 0.348631C44.2333 0.599788 44.5746 0.971035 44.7912 1.41631L69.0588 46.7727H63.6939C63.203 46.7805 62.7197 46.6496 62.2986 46.3948C61.8775 46.14 61.5353 45.7714 61.3105 45.3307M15.786 46.7727H21.1509C21.644 46.7996 22.134 46.6778 22.5584 46.4228C22.9828 46.1677 23.3224 45.791 23.5342 45.3404L30.2018 32.9855L26.7667 26.4573L15.7763 46.7727H15.786ZM5.37457 46.7727C5.86667 46.7922 6.35877 46.6753 6.78333 46.422C7.19824 46.1589 7.53596 45.7886 7.74824 45.3404L26.6605 10.0686L45.5535 45.3404C45.7734 45.7823 46.1135 46.1517 46.5339 46.4054C46.9543 46.6591 47.4376 46.7865 47.9272 46.7727H53.2921L29.0149 1.42605C28.8375 1.10621 28.5988 0.825167 28.3129 0.599248C28.0269 0.373328 27.6994 0.207038 27.3493 0.110037C26.9991 0.0130357 26.6334 -0.012742 26.2733 0.0342014C25.9133 0.0811447 25.566 0.199873 25.2518 0.383489C24.8272 0.627079 24.4798 0.987592 24.2579 1.42605L0 46.7727L5.36492 46.763L5.37457 46.7727Z" fill="#FBA900"/>
</svg>
