<svg width="48" height="48" viewBox="0 0 48 48" fill="none" xmlns="http://www.w3.org/2000/svg">
<path d="M47.9018 19.9748C46.2603 19.9894 44.6801 19.3519 43.5081 18.2025C42.3361 17.053 41.6682 15.4854 41.6509 13.8439C41.6509 12.153 42.36 10.6148 43.4836 9.50212L38.2909 4.41848C37.4137 5.26732 36.3086 5.84279 35.1102 6.07481C33.9118 6.30683 32.6717 6.18539 31.5411 5.72527C30.4105 5.26516 29.438 4.48622 28.7421 3.48332C28.0463 2.48042 27.657 1.29682 27.6218 0.0766602L20.2909 0.0766602C20.2909 3.45848 17.4982 6.20757 14.04 6.20757C12.3897 6.21345 10.8031 5.57097 9.62182 4.41848L4.41818 9.51302C4.99709 10.0762 5.45746 10.7495 5.77221 11.4933C6.08696 12.2371 6.24972 13.0363 6.25091 13.8439C6.25091 17.2258 3.45818 19.9748 0 19.9748V27.1748C1.64152 27.1603 3.22174 27.7977 4.39371 28.9472C5.56569 30.0967 6.23363 31.6643 6.25091 33.3058C6.25091 34.9967 5.55273 36.5348 4.41818 37.6367L9.61091 42.7312C10.4881 41.8824 11.5932 41.3069 12.7916 41.0749C13.9901 40.8429 15.2301 40.9643 16.3607 41.4244C17.4914 41.8845 18.4638 42.6635 19.1597 43.6664C19.8555 44.6693 20.2448 45.8529 20.28 47.073H27.6218C27.6523 45.8506 28.0387 44.6637 28.7338 43.6576C29.4289 42.6516 30.4024 41.8703 31.535 41.4094C32.6676 40.9485 33.91 40.828 35.1101 41.0628C36.3101 41.2976 37.4155 41.8774 38.2909 42.7312L43.4836 37.6367C42.9047 37.0735 42.4444 36.4002 42.1296 35.6564C41.8149 34.9126 41.6521 34.1134 41.6509 33.3058C41.6509 29.9239 44.4545 27.1748 47.9018 27.1748V19.9748ZM35.9782 30.3821L23.9564 37.2003L11.9236 30.3821V16.7676L23.9564 9.9603L35.9782 16.7676V30.4039V30.3821Z" fill="#013311"/>
</svg>
