<svg width="43" height="48" viewBox="0 0 43 48" fill="none" xmlns="http://www.w3.org/2000/svg">
<mask id="mask0_0_1641" style="mask-type:luminance" maskUnits="userSpaceOnUse" x="0" y="0" width="43" height="48">
<path d="M0 0.0839844H42.367V47.9998H0V0.0839844Z" fill="white"/>
</mask>
<g mask="url(#mask0_0_1641)">
<path d="M18.9707 0.978516C19.4424 0.953212 19.9141 1.0329 20.3516 1.21191C20.7344 1.36864 21.0836 1.59767 21.3789 1.88672L21.502 2.01465L21.6475 2.18359L21.7969 2.35645H22.0547L22.0713 2.35547L22.3994 2.33301C23.9231 2.33419 25.23 3.19319 26.1572 4.97461V4.97559C26.4197 5.47763 26.6364 6.00243 26.8037 6.54395L26.9512 7.02148L27.4287 6.87402L28.8135 6.44727C28.8862 6.42702 29.0224 6.40124 29.1533 6.40527C29.1681 6.40573 29.1817 6.40716 29.1943 6.4082L29.3125 46.9043L29.1914 46.9912L0.999023 42.1016L4.50879 14.9248C4.55465 14.6059 4.58666 14.3998 4.62695 14.2471C4.66483 14.1035 4.69981 14.0513 4.72559 14.0225C4.75405 13.9906 4.81201 13.9425 4.9707 13.875C5.13377 13.8056 5.35655 13.7334 5.69043 13.6299L10.1699 12.2402L10.4619 12.1504L10.5146 11.8486C10.9149 9.55069 11.7593 7.35326 13.001 5.38086L13.002 5.37988C14.7879 2.52345 16.9296 1.0429 18.96 0.978516H18.9707ZM18.9648 1.50098C16.9665 1.56254 15.1997 3.1365 13.8779 5.00781C12.5372 6.90601 11.5479 9.25648 11.1455 11.1562L10.9688 11.9893L11.7822 11.7373L15.1504 10.6953L15.1553 10.6943L15.7529 10.502L16.0352 10.4111L16.0908 10.1191C16.5189 7.86872 17.5956 5.55221 18.9541 4.07617L18.9561 4.07422C19.4195 3.56519 19.9717 3.13241 20.5908 2.7998L21.3291 2.40332L20.6289 1.94238C20.1431 1.62263 19.5853 1.50004 18.9805 1.5H18.9727L18.9648 1.50098ZM21.1426 3.11914C20.3849 3.43129 19.7523 3.96482 19.3232 4.44727L19.3174 4.45312C18.0949 5.87617 17.2238 7.56841 16.7744 9.3916L17.168 9.48828L17.248 10.0107H17.6523L17.6787 9.90039L22.2217 8.49121L22.5664 8.38379L22.5732 8.02344C22.5975 6.74478 22.4566 4.79273 21.7852 3.36816L21.583 2.9375L21.1426 3.11914ZM22.4316 3.58203C22.9378 4.89062 23.0791 6.42718 23.0908 7.55176L23.5029 7.54688L23.5791 8.04688H24.0957L24.0938 7.91016L25.9834 7.33008L26.46 7.18262L26.3145 6.70605C26.1271 6.09238 25.8032 5.25821 25.2861 4.52441C24.7692 3.79082 24.0255 3.11245 22.9932 2.91113L22.1045 2.7373L22.4316 3.58203Z" fill="#18181B" stroke="#18181B"/>
<path d="M32.4268 9.4375L32.5684 9.5752L32.7666 9.5791L36.2051 9.64941L41.2695 44.0293L29.8125 46.8799V6.88574L32.4268 9.4375Z" fill="#18181B" stroke="#18181B"/>
<path d="M22.3845 15.608L20.9273 21.0704C20.9273 21.0704 19.3028 20.3277 17.3798 20.4475C14.5609 20.6272 14.537 22.412 14.5609 22.8552C14.7162 25.287 21.1184 25.826 21.4767 31.54C21.7514 36.0321 19.0878 39.1107 15.2656 39.3502C10.667 39.6377 8.13477 36.9185 8.13477 36.9185L9.11421 32.7618C9.11421 32.7618 11.6584 34.6904 13.7009 34.5587C13.9457 34.5545 14.1871 34.5001 14.4101 34.3988C14.6331 34.2975 14.8331 34.1514 14.9976 33.9695C15.1622 33.7877 15.2878 33.5739 15.3668 33.3415C15.4457 33.1091 15.4763 32.8628 15.4567 32.6181C15.2537 29.4437 10.0459 29.6233 9.72338 24.4005C9.44865 20.0043 12.3273 15.5361 18.6817 15.1408C21.1303 14.9851 22.3845 15.62 22.3845 15.62" fill="white"/>
</g>
</svg>
