<svg width="46" height="48" viewBox="0 0 46 48" fill="none" xmlns="http://www.w3.org/2000/svg">
<g clip-path="url(#clip0_0_1475)">
<path d="M16.9433 1.12012C15.7272 1.12012 14.5609 1.60175 13.701 2.45906C12.841 3.31637 12.358 4.47913 12.358 5.69155C12.358 6.90396 12.841 8.06673 13.701 8.92403C14.5609 9.78134 15.7272 10.263 16.9433 10.263H21.5287V5.69155C21.5287 4.47913 21.0456 3.31637 20.1857 2.45906C19.3257 1.60175 18.1594 1.12012 16.9433 1.12012ZM16.9433 13.3144H4.73478C3.51867 13.3144 2.35236 13.796 1.49244 14.6533C0.632514 15.5107 0.149414 16.6734 0.149414 17.8858C0.149414 19.0983 0.632514 20.261 1.49244 21.1183C2.35236 21.9756 3.51867 22.4573 4.73478 22.4573H16.9433C18.1594 22.4573 19.3257 21.9756 20.1857 21.1183C21.0456 20.261 21.5287 19.0983 21.5287 17.8858C21.5287 16.6734 21.0456 15.5107 20.1857 14.6533C19.3257 13.796 18.1594 13.3144 16.9433 13.3144Z" fill="#36C5F0"/>
<path d="M45.9226 17.8863C45.9671 17.2603 45.8818 16.6319 45.6721 16.0402C45.4624 15.4485 45.1327 14.9062 44.7037 14.4471C44.2746 13.9879 43.7553 13.6218 43.1781 13.3714C42.6009 13.121 41.9782 12.9918 41.3487 12.9918C40.7193 12.9918 40.0965 13.121 39.5193 13.3714C38.9422 13.6218 38.4228 13.9879 37.9938 14.4471C37.5647 14.9062 37.235 15.4485 37.0253 16.0402C36.8156 16.6319 36.7303 17.2603 36.7748 17.8863V22.4577H41.3602C42.5723 22.4517 43.7327 21.9674 44.5877 21.1107C45.4427 20.2541 45.9226 19.0948 45.9226 17.8863ZM33.7255 17.8863V5.69202C33.7566 5.07322 33.6612 4.45459 33.4451 3.8737C33.2289 3.2928 32.8966 2.76177 32.4683 2.31285C32.04 1.86394 31.5246 1.5065 30.9535 1.26227C30.3823 1.01803 29.7674 0.89209 29.1459 0.89209C28.5245 0.89209 27.9095 1.01803 27.3383 1.26227C26.7672 1.5065 26.2518 1.86394 25.8235 2.31285C25.3952 2.76177 25.0629 3.2928 24.8468 3.8737C24.6306 4.45459 24.5352 5.07322 24.5663 5.69202V17.8863C24.5352 18.5051 24.6306 19.1237 24.8468 19.7046C25.0629 20.2855 25.3952 20.8166 25.8235 21.2655C26.2518 21.7144 26.7672 22.0718 27.3383 22.3161C27.9095 22.5603 28.5245 22.6862 29.1459 22.6862C29.7674 22.6862 30.3823 22.5603 30.9535 22.3161C31.5246 22.0718 32.04 21.7144 32.4683 21.2655C32.8966 20.8166 33.2289 20.2855 33.4451 19.7046C33.6612 19.1237 33.7566 18.5051 33.7255 17.8863Z" fill="#2EB67D"/>
<path d="M29.1518 46.8345C30.3679 46.8345 31.5342 46.3529 32.3941 45.4956C33.254 44.6383 33.7371 43.4755 33.7371 42.2631C33.7371 41.0507 33.254 39.8879 32.3941 39.0306C31.5342 38.1733 30.3679 37.6916 29.1518 37.6916H24.5664V42.2631C24.5664 43.4755 25.0495 44.6383 25.9094 45.4956C26.7694 46.3529 27.9357 46.8345 29.1518 46.8345ZM29.1518 34.6516H41.3488C42.565 34.6516 43.7313 34.17 44.5912 33.3127C45.4511 32.4554 45.9342 31.2926 45.9342 30.0802C45.9342 28.8678 45.4511 27.705 44.5912 26.8477C43.7313 25.9904 42.565 25.5088 41.3488 25.5088H29.1518C27.9357 25.5088 26.7694 25.9904 25.9094 26.8477C25.0495 27.705 24.5664 28.8678 24.5664 30.0802C24.5664 31.2926 25.0495 32.4554 25.9094 33.3127C26.7694 34.17 27.9357 34.6516 29.1518 34.6516Z" fill="#ECB22E"/>
<path d="M0.160029 30.081C0.128966 30.6998 0.224396 31.3184 0.440522 31.8993C0.656649 32.4802 0.988961 33.0112 1.41727 33.4602C1.84559 33.9091 2.36096 34.2665 2.9321 34.5107C3.50323 34.755 4.11821 34.8809 4.73966 34.8809C5.36112 34.8809 5.97609 34.755 6.54723 34.5107C7.11836 34.2665 7.63374 33.9091 8.06205 33.4602C8.49037 33.0112 8.82268 32.4802 9.0388 31.8993C9.25493 31.3184 9.35036 30.6998 9.3193 30.081V25.5096H4.73393C3.5198 25.5126 2.35644 25.9956 1.499 26.8525C0.641551 27.7095 0.160025 28.8706 0.160029 30.081ZM12.3686 30.081V42.2524C12.3241 42.8784 12.4094 43.5068 12.6191 44.0985C12.8288 44.6902 13.1584 45.2325 13.5875 45.6917C14.0166 46.1508 14.5359 46.517 15.1131 46.7673C15.6903 47.0177 16.313 47.1469 16.9425 47.1469C17.5719 47.1469 18.1946 47.0177 18.7718 46.7673C19.349 46.517 19.8683 46.1508 20.2974 45.6917C20.7265 45.2325 21.0562 44.6902 21.2659 44.0985C21.4756 43.5068 21.5609 42.8784 21.5164 42.2524V30.081C21.5609 29.455 21.4756 28.8266 21.2659 28.2349C21.0562 27.6432 20.7265 27.1009 20.2974 26.6418C19.8683 26.1826 19.349 25.8165 18.7718 25.5661C18.1946 25.3157 17.5719 25.1865 16.9425 25.1865C16.313 25.1865 15.6903 25.3157 15.1131 25.5661C14.5359 25.8165 14.0166 26.1826 13.5875 26.6418C13.1584 27.1009 12.8288 27.6432 12.6191 28.2349C12.4094 28.8266 12.3241 29.455 12.3686 30.081Z" fill="#E01E5A"/>
</g>
<defs>
<clipPath id="clip0_0_1475">
<rect width="46" height="48" fill="white"/>
</clipPath>
</defs>
</svg>
