<svg width="41" height="48" viewBox="0 0 41 48" fill="none" xmlns="http://www.w3.org/2000/svg">
<g clip-path="url(#clip0_0_1436)">
<mask id="mask0_0_1436" style="mask-type:luminance" maskUnits="userSpaceOnUse" x="0" y="0" width="41" height="48">
<path d="M0.533203 0.0551758H40.6415V47.2683H0.533203V0.0551758Z" fill="white"/>
</mask>
<g mask="url(#mask0_0_1436)">
<path d="M8.06695 19.2945C8.06695 19.2945 10.1682 16.4421 12.987 16.3634C17.3227 16.2847 20.8385 23.7798 21.3715 24.8519C26.1685 14.5732 34.0712 5.84862 40.5185 0.0551758H0.994453L1.0252 42.547C1.0252 44.888 0.707453 46.5503 0.533203 47.2683C2.2757 46.9929 8.9382 45.9207 15.7032 43.5798C27.6957 39.4486 32.4107 35.0126 32.4517 34.9732L32.749 34.688L32.913 35.0519C32.913 35.0912 34.3992 38.2585 35.8855 39.9306C37.546 41.7994 38.489 42.0355 38.9912 41.8683C39.6472 41.6716 40.1085 40.6388 40.3135 38.8585C40.4775 37.147 40.6415 33.2617 40.6415 28.5798V3.27157C28.9872 16.9929 20.4285 37.5503 20.4285 37.5503C20.4285 37.5503 14.8012 19.1765 8.06695 19.2945Z" fill="#003059"/>
</g>
</g>
<defs>
<clipPath id="clip0_0_1436">
<rect width="41" height="48" fill="white"/>
</clipPath>
</defs>
</svg>
