<svg width="50" height="48" viewBox="0 0 50 48" fill="none" xmlns="http://www.w3.org/2000/svg">
<g clip-path="url(#clip0_0_1381)">
<mask id="mask0_0_1381" style="mask-type:luminance" maskUnits="userSpaceOnUse" x="0" y="0" width="50" height="48">
<path d="M0 0.0888672H50V48.0002H0V0.0888672Z" fill="white"/>
</mask>
<g mask="url(#mask0_0_1381)">
<path fill-rule="evenodd" clip-rule="evenodd" d="M46.0539 20.7793L40.4289 24.047L46.0539 27.2869C46.5599 27.5821 46.968 28.022 47.2267 28.551C47.4854 29.0799 47.5832 29.6744 47.5077 30.2593C47.4315 30.8449 47.1844 31.3943 46.798 31.8378C46.4116 32.2813 45.9033 32.5987 45.3377 32.7499C44.5796 32.9542 43.7723 32.8466 43.0927 32.4508L33.0114 26.598C32.5496 26.3289 32.1684 25.9389 31.9079 25.4692C31.6474 24.9996 31.5173 24.4677 31.5314 23.9296C31.5499 23.4251 31.6946 22.9335 31.952 22.5007C32.2095 22.0678 32.5714 21.7078 33.0039 21.4543L43.0852 15.6229C43.423 15.4257 43.796 15.2976 44.183 15.246C44.5699 15.1944 44.9631 15.2204 45.34 15.3223C45.717 15.4243 46.0704 15.6002 46.3799 15.8401C46.6894 16.0801 46.9491 16.3792 47.1439 16.7205C47.3394 17.0585 47.4663 17.4324 47.5173 17.8203C47.5682 18.2082 47.5422 18.6025 47.4408 18.9802C47.3394 19.3579 47.1645 19.7115 46.9264 20.0204C46.6883 20.3292 46.3917 20.5872 46.0539 20.7793ZM40.7289 36.6168L30.6502 30.7754C29.9691 30.3817 29.1618 30.2748 28.4032 30.4779C27.6446 30.681 26.9958 31.1777 26.5977 31.8604C26.3352 32.3121 26.1939 32.8256 26.1889 33.3491V45.0207C26.2146 45.7972 26.5387 46.5331 27.0926 47.0726C27.6465 47.6122 28.3867 47.9129 29.1564 47.9111C29.9251 47.9104 30.6636 47.6089 31.2167 47.0702C31.7698 46.5314 32.0945 45.7973 32.1227 45.022V38.479L37.7627 41.7467C38.1839 41.9922 38.6586 42.1293 39.1448 42.1458C39.631 42.1622 40.1137 42.0576 40.5504 41.8411C40.987 41.6246 41.3641 41.303 41.6483 40.9045C41.9326 40.5061 42.1152 40.0431 42.1802 39.5565C42.2574 38.9715 42.1606 38.3765 41.9022 37.847C41.6439 37.3176 41.2355 36.8776 40.7289 36.5828V36.6168ZM29.1139 25.2001L24.9114 29.3838C24.7675 29.5183 24.5811 29.5973 24.3852 29.6071H23.1514C22.9563 29.5951 22.7711 29.5163 22.6264 29.3838L18.4477 25.1862C18.3169 25.0425 18.2396 24.8575 18.2289 24.6627V23.4237C18.2404 23.2283 18.3176 23.0428 18.4477 22.8976L22.6264 18.7001C22.7715 18.5686 22.9567 18.4912 23.1514 18.4805H24.3852C24.5802 18.4897 24.7659 18.5674 24.9102 18.7001L29.0989 22.8976C29.2283 23.0429 29.3047 23.2286 29.3152 23.4237V24.6639C29.3052 24.8581 29.2288 25.0427 29.0989 25.1862L29.1139 25.2001ZM25.7652 24.0369C25.7493 23.8361 25.6665 23.6466 25.5302 23.4994L24.3177 22.2907C24.1718 22.1589 23.9857 22.0815 23.7902 22.0712H23.7464C23.5524 22.0813 23.3677 22.1589 23.2239 22.2907L22.0114 23.4994C21.8808 23.647 21.8045 23.8354 21.7952 24.0331V24.0785C21.8043 24.2728 21.8808 24.4577 22.0114 24.6008L23.2302 25.807C23.3743 25.9384 23.5587 26.0159 23.7527 26.0265H23.7977C23.9924 26.0152 24.1776 25.9374 24.3227 25.8057L25.5364 24.5907C25.6676 24.4469 25.7461 24.2622 25.7589 24.0672L25.7652 24.0369ZM6.80892 11.4771L16.8902 17.3022C17.3414 17.5626 17.8521 17.6996 18.3719 17.6996C18.8917 17.6996 19.4024 17.5625 19.8535 17.3019C20.3047 17.0413 20.6806 16.6664 20.9439 16.2141C21.2073 15.7618 21.3491 15.2479 21.3552 14.7233V3.06315C21.3295 2.28665 21.0054 1.55071 20.4515 1.0112C19.8976 0.471684 19.1574 0.170955 18.3877 0.172698C17.619 0.173484 16.8805 0.474913 16.3274 1.01367C15.7743 1.55242 15.4496 2.28656 15.4214 3.06188V9.60482L9.77392 6.33335C9.35266 6.08781 8.87797 5.95075 8.39178 5.93428C7.90559 5.91781 7.42286 6.02244 6.98623 6.23892C6.54961 6.45541 6.17252 6.77708 5.88827 7.17554C5.60402 7.574 5.42136 8.03698 5.35642 8.52358C5.27936 9.10873 5.37628 9.7038 5.63489 10.2333C5.8935 10.7627 6.30213 11.2027 6.80892 11.4973V11.4771ZM28.9327 17.7021C29.5277 17.7488 30.1227 17.6138 30.6402 17.3123L40.7177 11.4594C41.2238 11.1641 41.6318 10.724 41.8903 10.1947C42.1489 9.66548 42.2462 9.07079 42.1702 8.48573C42.0935 7.90016 41.8462 7.35077 41.4596 6.90734C41.0731 6.46391 40.5646 6.14644 39.9989 5.99523C39.2403 5.79108 38.4325 5.89907 37.7527 6.2955L32.1127 9.59346V3.05305C32.087 2.27655 31.7629 1.54062 31.209 1.00111C30.6551 0.461591 29.9149 0.160862 29.1452 0.162605C28.3765 0.163391 27.638 0.46482 27.0849 1.00357C26.5318 1.54232 26.2071 2.27647 26.1789 3.05179V14.7233C26.1776 15.4798 26.4614 16.2084 26.9728 16.7614C27.4842 17.3144 28.1849 17.6502 28.9327 17.7008V17.7021ZM18.6114 30.3855C18.0163 30.3367 17.4207 30.4722 16.9039 30.7741L6.80892 36.6029C6.13047 36.9998 5.63599 37.6524 5.43427 38.4172C5.23255 39.1821 5.34012 39.9965 5.7333 40.6812C6.12648 41.366 6.77308 41.8651 7.53084 42.0687C8.28861 42.2723 9.09547 42.1637 9.77392 41.7669L15.4214 38.4992V45.0421C15.4474 45.8182 15.7715 46.5536 16.325 47.0928C16.8786 47.632 17.6183 47.9328 18.3877 47.9313C19.1566 47.9309 19.8953 47.6296 20.4487 47.0908C21.0021 46.552 21.327 45.8177 21.3552 45.0421V33.3491C21.3541 32.5963 21.0705 31.8719 20.5614 31.3217C20.0522 30.7716 19.3555 30.4378 18.6114 30.3855ZM15.8789 24.9226C16.074 24.2772 16.045 23.584 15.7965 22.9577C15.548 22.3313 15.0951 21.8093 14.5127 21.4782L4.44142 15.6292C3.76125 15.2369 2.95516 15.1315 2.19839 15.3359C1.44163 15.5402 0.795387 16.0379 0.400174 16.7205C0.205072 17.0584 0.0783629 17.432 0.0273935 17.8197C-0.023576 18.2074 0.00220815 18.6014 0.10325 18.9789C0.204293 19.3565 0.378584 19.71 0.616017 20.0191C0.853451 20.3281 1.1493 20.5865 1.48642 20.7793L7.11267 24.047L1.48642 27.2869C0.980282 27.5814 0.57195 28.0207 0.312989 28.5493C0.0540278 29.0779 -0.043951 29.6721 0.0314239 30.2568C0.107283 30.8417 0.353561 31.3907 0.739013 31.8341C1.12446 32.2775 1.63172 32.5953 2.19642 32.7473C2.95413 32.9524 3.7615 32.8458 4.44142 32.4508L14.5127 26.598C15.1602 26.2321 15.6477 25.6341 15.8752 24.9213L15.8789 24.9226ZM47.7002 5.565H47.2452V6.12518H47.6952C47.9052 6.12518 48.0377 6.02929 48.0377 5.85014C48.0377 5.67098 47.9152 5.565 47.6964 5.565H47.7002ZM46.6952 5.04773H47.7202C48.2739 5.04773 48.6427 5.35431 48.6427 5.82995C48.6445 5.96217 48.6113 6.09248 48.5464 6.20738C48.4816 6.32229 48.3875 6.41761 48.2739 6.48349L48.6739 7.06259V7.17866H48.0964L47.6964 6.62858H47.2464V7.17866H46.6914L46.6952 5.04773ZM49.5314 6.15672C49.5483 5.89582 49.5112 5.63423 49.4225 5.38859C49.3338 5.14295 49.1953 4.91865 49.016 4.72995C48.8367 4.54126 48.6205 4.39231 48.381 4.29258C48.1415 4.19285 47.8841 4.14453 47.6252 4.15069C46.4952 4.15069 45.7439 4.97329 45.7439 6.15798C45.7439 7.28716 46.4939 8.16149 47.6252 8.16149C48.0155 8.1705 48.3988 8.05617 48.7215 7.83448C49.0443 7.61279 49.2903 7.29483 49.4252 6.92507C49.5152 6.68031 49.5527 6.41914 49.5352 6.15798H49.5327L49.5314 6.15672ZM50.0027 6.15672C50.0027 7.4966 49.1152 8.61442 47.6114 8.61442C46.1077 8.61442 45.2577 7.48524 45.2577 6.15672C45.2577 4.8282 46.1352 3.69902 47.6114 3.69902C49.0864 3.69902 49.9989 4.81432 49.9989 6.15672H50.0027Z" fill="#29B5E8"/>
</g>
</g>
<defs>
<clipPath id="clip0_0_1381">
<rect width="50" height="48" fill="white"/>
</clipPath>
</defs>
</svg>
