<svg width="190" height="48" viewBox="0 0 190 48" fill="none" xmlns="http://www.w3.org/2000/svg">
<g clip-path="url(#clip0_0_1264)">
<path d="M40.0875 0.101562H8.49284C6.39321 0.101563 4.37957 0.937033 2.89491 2.42418C1.41025 3.91133 0.576172 5.92833 0.576172 8.03148V39.6935C0.576172 41.7966 1.41025 43.8136 2.89491 45.3007C4.37957 46.7879 6.39321 47.6234 8.49284 47.6234H40.0875C42.1872 47.6234 44.2008 46.7879 45.6855 45.3007C47.1701 43.8136 48.0042 41.7966 48.0042 39.6935V8.03148C48.0042 5.93083 47.1721 3.916 45.6906 2.42927C44.209 0.942538 42.1991 0.105382 40.1019 0.101562H40.0875ZM39.3822 36.4782C39.3822 37.8624 38.2739 38.987 36.8777 38.987H11.6883C10.3065 38.987 9.18375 37.8624 9.18375 36.4782V11.2467C9.18375 9.86256 10.3065 8.73796 11.6883 8.73796H36.8777C38.2739 8.73796 39.3822 9.86256 39.3822 11.2467V36.4782ZM19.2595 30.3217C18.8778 30.3217 18.5116 30.1698 18.2417 29.8994C17.9718 29.6291 17.8201 29.2623 17.8201 28.8799V18.7873C17.8201 18.4049 17.9718 18.0382 18.2417 17.7678C18.5116 17.4974 18.8778 17.3455 19.2595 17.3455H29.3353C29.717 17.3455 30.0831 17.4974 30.3531 17.7678C30.623 18.0382 30.7747 18.4049 30.7747 18.7873V28.8799C30.7747 29.2623 30.623 29.6291 30.3531 29.8994C30.0831 30.1698 29.717 30.3217 29.3353 30.3217H19.2595ZM60.5989 29.6297H65.7807C66.0254 32.5709 68.0262 34.8634 72.0277 34.8634C75.6262 34.8634 77.814 33.09 77.814 30.3938C77.814 27.8995 76.0868 26.7749 72.9777 26.0396L68.9618 25.1745C64.6004 24.2229 61.333 21.4258 61.333 16.8265C61.333 11.7657 65.8095 8.30542 71.639 8.30542C77.814 8.30542 81.7868 11.5495 82.1322 16.3507H77.1231C76.533 14.1015 74.6762 12.7606 71.6534 12.7606C68.4436 12.7606 66.2557 14.4907 66.2557 16.6967C66.2557 18.9027 68.1557 20.2435 71.4375 20.9789L75.4103 21.8439C79.7716 22.7955 82.7512 25.4484 82.7512 30.0622C82.7512 35.9448 78.3322 39.4339 72.0421 39.4339C64.9459 39.4339 61.0307 35.5987 60.5989 29.6297ZM101.276 47.6234V39.0302L101.607 35.2671H101.276C100.081 37.9777 97.5913 39.4483 94.2087 39.4483C88.739 39.4483 84.68 35.0076 84.68 28.1735C84.68 21.3537 88.739 16.8986 94.2087 16.8986C95.647 16.8349 97.0739 17.1802 98.3246 17.8946C99.5752 18.609 100.598 19.6633 101.276 20.9356H101.607V17.3311H106.098V47.6378H101.276V47.6234ZM101.449 28.159C101.449 23.7904 98.7716 21.2384 95.5186 21.2384C92.2512 21.2384 89.5883 23.7904 89.5883 28.159C89.5883 32.5277 92.2512 35.0797 95.5186 35.0797C98.7716 35.0797 101.449 32.5277 101.449 28.159ZM109.682 30.4082V17.3023H114.519V29.9901C114.519 33.4216 116.16 35.0797 118.923 35.0797C122.306 35.0797 124.508 32.6575 124.508 28.8799V17.3023H129.33V39.0302H124.853V34.5318H124.508C124.039 36.0028 123.103 37.2803 121.843 38.1703C120.583 39.0602 119.068 39.514 117.527 39.4628C112.345 39.4628 109.682 36.1466 109.682 30.4227V30.4082ZM132.281 32.9602C132.281 28.8799 135.116 26.501 140.154 26.2126L146.113 25.8233V24.1364C146.113 22.1035 144.631 20.8635 142.011 20.8635C139.593 20.8635 138.153 22.1035 137.779 23.8336H132.943C133.461 19.4217 137.103 16.8841 142.011 16.8841C147.553 16.8841 150.935 19.2487 150.935 23.8336V39.0302H146.459V34.9932H146.113C145.106 37.6749 142.975 39.4628 138.916 39.4628C135.03 39.4628 132.281 36.8243 132.281 32.9747V32.9602ZM146.128 30.2785V29.125L141.248 29.4711C138.628 29.6441 137.448 30.6245 137.448 32.5709C137.448 34.229 138.801 35.4113 140.701 35.4113C144.141 35.4113 146.128 33.2053 146.128 30.2785ZM154.548 39.0158V17.3023H159.025V21.4547H159.37C160.003 18.6143 162.163 17.3023 165.387 17.3023H167.589V21.6709H164.825C161.702 21.6709 159.37 23.7039 159.37 27.5679V39.0158H154.548ZM189.669 29.0674H173.203C173.447 33.0323 176.254 35.296 179.334 35.296C181.969 35.296 183.61 34.229 184.545 32.4412H189.338C188.028 36.8531 184.156 39.4483 179.291 39.4483C172.9 39.4483 168.41 34.6471 168.41 28.159C168.41 21.6709 173.016 16.8841 179.349 16.8841C185.682 16.8841 189.842 21.2528 189.842 26.674C189.842 27.7409 189.756 28.2888 189.669 29.053V29.0674ZM185.063 25.708C184.891 22.6946 182.4 20.6617 179.349 20.6617C176.47 20.6617 174.052 22.4783 173.447 25.708H185.063Z" fill="#18181B"/>
</g>
<defs>
<clipPath id="clip0_0_1264">
<rect width="190" height="48" fill="white"/>
</clipPath>
</defs>
</svg>
