<svg width="47" height="48" viewBox="0 0 47 48" fill="none" xmlns="http://www.w3.org/2000/svg">
<g clip-path="url(#clip0_0_1007)">
<mask id="mask0_0_1007" style="mask-type:luminance" maskUnits="userSpaceOnUse" x="0" y="0" width="47" height="48">
<path d="M0.489258 0.0288086H47.0004V47.3124H0.489258V0.0288086Z" fill="white"/>
</mask>
<g mask="url(#mask0_0_1007)">
<path d="M30.7381 25.0202H24.4401V32.2605H21.9491V25.0202H15.5947V22.5082H21.9491V15.2778H24.4307V22.5082H30.7381V25.0202Z" fill="#E8762C"/>
<path d="M18.077 33.9445H12.4182V27.4332H10.3032V33.9445H4.54102V35.8753H10.3032V42.298H12.4182V35.8753H18.077V33.9445Z" fill="#C72035"/>
<path d="M42.2536 11.1309H36.5478V4.65894H34.4234V11.1309H28.7646V13.1503H34.4234V19.573H36.5478V13.1503H42.2536V11.1309Z" fill="#59879B"/>
<path d="M28.0213 40.9882H24.2049V36.5061H22.3625V40.9882H18.4521V42.7318H22.3625V47.3124H24.2049V42.7318H28.0213V40.9882Z" fill="#5B6591"/>
<path d="M18.039 11.0816H12.2768V4.65894H10.2088V11.0816H4.45605V13.0124H10.2088V19.573H12.2768V13.0124H18.039V11.0816Z" fill="#EB912C"/>
<path d="M46.6241 22.9027H42.8077V18.4108H40.9183V22.9027H37.0361V24.6365H40.9089V29.1186H42.7889V24.6365H46.6147V22.9027H46.6241Z" fill="#5B6591"/>
<path d="M41.8864 33.9445H36.2182V27.4332H34.1033V33.9445H28.3975V35.8753H34.1033V42.298H36.2182V35.8753H41.8864V33.9445Z" fill="#1F447E"/>
<path d="M27.7492 4.52075H23.9328V0.0288086H22.551V4.52075H18.7252V5.8703H22.5604V10.2539H23.9422V5.8703H27.7586V4.52075H27.7492ZM9.51324 23.0894H5.69685V18.7058H4.31505V23.0894H0.489258V24.439H4.32445V28.8324H5.70625V24.439H9.52264V23.0894H9.51324Z" fill="#7099A6"/>
</g>
</g>
<defs>
<clipPath id="clip0_0_1007">
<rect width="47" height="48" fill="white"/>
</clipPath>
</defs>
</svg>
