<svg width="49" height="49" viewBox="0 0 49 49" fill="none" xmlns="http://www.w3.org/2000/svg">
<g clip-path="url(#clip0_0_636)">
<path d="M23.0897 18.3644C23.0871 19.6756 22.5664 20.9327 21.6411 21.8617C20.7159 22.7908 19.4609 23.3165 18.1497 23.3244C16.8393 23.3139 15.5859 22.7873 14.6612 21.8589C13.7365 20.9304 13.2149 19.6748 13.2097 18.3644C13.2175 17.0539 13.7395 15.7988 14.6634 14.8693C15.5873 13.9397 16.8392 13.4101 18.1497 13.3944C20.8497 13.3944 23.0897 15.6444 23.0897 18.3644ZM18.1497 25.2544C16.8411 25.2649 15.5891 25.7901 14.6647 26.7164C13.7402 27.6428 13.2176 28.8958 13.2097 30.2044C13.2175 31.515 13.7395 32.7701 14.6634 33.6996C15.5873 34.6291 16.8392 35.1587 18.1497 35.1744C19.428 35.1171 20.6348 34.5689 21.5191 33.6441C22.4034 32.7192 22.8968 31.489 22.8968 30.2094C22.8968 28.9299 22.4034 27.6997 21.5191 26.7748C20.6348 25.85 19.428 25.3018 18.1497 25.2444V25.2544ZM47.9797 24.2944C47.9797 37.5744 37.2897 48.2944 24.0597 48.2944C20.9125 48.2918 17.7967 47.6687 14.8905 46.4606C11.9844 45.2526 9.34498 43.4834 7.12327 41.2543C4.90157 39.0252 3.14121 36.3798 1.94289 33.4697C0.744577 30.5595 0.131835 27.4416 0.139724 24.2944C0.139724 11.0344 10.8397 0.294434 24.0597 0.294434C27.2073 0.295735 30.3237 0.917986 33.2305 2.12554C36.1372 3.3331 38.7772 5.10224 40.9991 7.33164C43.2211 9.56103 44.9814 12.2069 46.1792 15.1176C47.3771 18.0284 47.9889 21.1469 47.9797 24.2944ZM41.5997 24.2944C41.5997 14.5244 33.7797 6.69443 24.0597 6.69443C21.7505 6.69177 19.4636 7.14563 17.3304 8.02992C15.1973 8.9142 13.2599 10.2115 11.6299 11.8471C9.99984 13.4827 8.70921 15.4244 7.83222 17.5606C6.95523 19.6968 6.50918 21.9853 6.51972 24.2944C6.51972 34.0644 14.3197 41.8944 24.0597 41.8944C33.7897 41.8944 41.5997 34.0644 41.5997 24.2944ZM29.9597 25.2544C28.6511 25.2649 27.3991 25.7901 26.4747 26.7164C25.5502 27.6428 25.0276 28.8958 25.0197 30.2044C25.0275 31.515 25.5495 32.7701 26.4734 33.6996C27.3973 34.6291 28.6492 35.1587 29.9597 35.1744C31.238 35.1171 32.4449 34.5689 33.3291 33.6441C34.2134 32.7192 34.7068 31.489 34.7068 30.2094C34.7068 28.9299 34.2134 27.6997 33.3291 26.7748C32.4449 25.85 31.238 25.3018 29.9597 25.2444V25.2544ZM29.9597 13.3944C28.6815 13.4518 27.4746 14 26.5903 14.9248C25.7061 15.8497 25.2126 17.0799 25.2126 18.3594C25.2126 19.639 25.7061 20.8692 26.5903 21.7941C27.4746 22.7189 28.6815 23.2671 29.9597 23.3244C32.6597 23.3244 34.8997 21.0744 34.8997 18.3644C34.892 17.0539 34.3699 15.7988 33.446 14.8693C32.5221 13.9397 31.2702 13.4101 29.9597 13.3944Z" fill="#F22F46"/>
</g>
<defs>
<clipPath id="clip0_0_636">
<rect width="49" height="48" fill="white" transform="translate(0 0.294434)"/>
</clipPath>
</defs>
</svg>
