<svg width="41" height="48" viewBox="0 0 41 48" fill="none" xmlns="http://www.w3.org/2000/svg">
<g clip-path="url(#clip0_0_591)">
<mask id="mask0_0_591" style="mask-type:luminance" maskUnits="userSpaceOnUse" x="0" y="0" width="41" height="48">
<path d="M0 0H40.32V48H0V0Z" fill="white"/>
</mask>
<g mask="url(#mask0_0_591)">
<path d="M5.99958 39.648C2.59158 36.864 0.767578 32.832 0.767578 28.032V5.23199C6.19158 2.39999 12.6716 0.959991 20.1596 0.959991C27.6476 0.959991 34.1276 2.39999 39.5516 5.27999V28.08C39.5516 32.88 37.7276 36.912 34.3196 39.696C31.1996 42.192 21.3116 46.56 20.1596 47.04C19.0076 46.56 9.11958 42.192 5.99958 39.648Z" fill="#330000"/>
<path d="M38.496 4.992C35.9276 4.74078 33.3487 4.61263 30.768 4.608C20.976 4.608 10.512 6.72 1.872 14.64V28.224C1.872 32.64 3.504 36.336 6.624 38.88C9.36 41.088 17.808 44.928 20.208 45.984C22.56 44.928 30.96 41.184 33.792 38.88C36.912 36.288 38.544 32.688 38.544 28.224V4.992M3.648 26.784V15.744H7.152V26.928C7.152 27.936 7.392 29.376 9.024 29.376C9.6 29.376 10.176 29.232 10.704 28.944V15.792H14.208V31.008C12.6366 32.0122 10.7902 32.499 8.928 32.4C5.424 32.4 3.648 30.528 3.648 26.784ZM19.488 39.552H15.984V16.656C17.4154 15.7926 19.0651 15.3594 20.736 15.408C24.912 15.408 27.216 18.576 27.216 23.712C27.216 28.848 24.96 32.352 21.072 32.352C20.5378 32.3592 20.005 32.2947 19.488 32.16V39.552ZM19.488 29.28C19.872 29.424 20.256 29.472 20.64 29.472C22.656 29.472 23.616 27.6 23.616 23.76C23.616 19.824 22.752 18.192 20.736 18.192C20.304 18.192 19.872 18.288 19.488 18.432V29.28ZM27.984 20.016C28.032 17.472 30.144 15.408 32.688 15.456C34.08 15.36 35.424 15.792 36.528 16.608V19.68C35.7112 18.8176 34.5942 18.302 33.408 18.24C32.4 18.24 31.392 18.672 31.344 19.92C31.296 21.216 32.352 21.696 33.648 22.464C36.576 24.192 37.152 25.728 37.056 27.792C37.008 30.048 35.424 32.496 31.968 32.496C30.6101 32.4932 29.28 32.1108 28.128 31.392V28.176C29.0619 29.0082 30.2413 29.5137 31.488 29.616C32.784 29.616 33.6 28.896 33.6 27.648C33.552 26.544 32.928 25.968 31.392 25.056C28.512 23.232 27.984 21.84 27.984 20.016ZM5.424 40.272C1.872 37.392 0 33.216 0 28.224V4.464C5.616 1.488 12.384 0 20.16 0C27.936 0 34.704 1.488 40.32 4.464V28.224C40.32 33.216 38.448 37.392 34.896 40.32C31.632 42.96 21.36 47.52 20.16 48C18.96 47.472 8.688 42.96 5.424 40.272ZM33.024 45.264V47.328H33.408V46.464H33.456C33.504 46.512 34.032 47.328 34.032 47.328H34.464C34.464 47.328 33.888 46.512 33.84 46.416C34.128 46.368 34.32 46.128 34.32 45.888C34.32 45.504 33.984 45.216 33.648 45.264H33.024ZM33.6 45.552C33.936 45.552 33.984 45.696 33.984 45.84C33.984 46.032 33.888 46.176 33.504 46.176H33.456V45.552H33.6ZM35.04 46.32C35.04 47.568 33.552 48.192 32.64 47.28C31.728 46.368 32.4 44.88 33.648 44.88C34.416 44.928 35.04 45.552 35.04 46.32ZM33.648 44.592C32.16 44.592 31.392 46.416 32.448 47.472C33.504 48.528 35.328 47.808 35.328 46.272C35.3228 45.828 35.1441 45.4037 34.8302 45.0898C34.5163 44.7759 34.0919 44.5972 33.648 44.592Z" fill="#FFBE00"/>
</g>
</g>
<defs>
<clipPath id="clip0_0_591">
<rect width="41" height="48" fill="white"/>
</clipPath>
</defs>
</svg>
