<svg width="43" height="48" viewBox="0 0 43 48" fill="none" xmlns="http://www.w3.org/2000/svg">
<g clip-path="url(#clip0_0_575)">
<path d="M21.1295 16.164C22.2403 16.164 23.1481 15.588 23.2675 14.832L24.3425 2.268C24.3425 1.008 22.9331 0 21.1175 0C19.3259 0 17.8925 1.008 17.8925 2.268L18.9914 14.832C19.1109 15.588 20.0187 16.152 21.1295 16.152V16.164ZM14.4764 20.076C15.0378 19.104 14.99 18.012 14.4048 17.532L4.27587 10.296C3.22476 9.684 1.64809 10.416 0.752261 12C-0.143572 13.596 0.0236495 15.348 1.06282 15.96L12.2906 21.288C13.0073 21.564 13.9509 21.048 14.5003 20.076H14.4764ZM27.7945 20.076C28.3439 21.048 29.2995 21.516 30.0042 21.276L41.232 15.96C42.2712 15.348 42.4264 13.572 41.5425 12C40.6587 10.44 39.0462 9.684 38.0189 10.296L27.89 17.556C27.3167 18.036 27.2809 19.116 27.8184 20.1L27.7945 20.076ZM21.1295 31.836C22.2403 31.836 23.1481 32.412 23.2675 33.168L24.3425 45.732C24.3425 46.992 22.9331 48 21.1175 48C19.3259 48 17.8925 46.992 17.8925 45.732L18.9914 33.168C19.1109 32.412 20.0187 31.848 21.1295 31.848V31.836ZM27.7945 27.9C28.3439 26.94 29.2995 26.436 30.0042 26.7L41.232 32.004C42.2712 32.64 42.4264 34.404 41.5425 35.976C40.6587 37.536 39.0462 38.304 38.0189 37.68L27.89 30.444C27.3167 29.964 27.2809 28.884 27.8184 27.9H27.7945ZM14.4764 27.9C15.0378 28.884 14.99 29.952 14.4048 30.456L4.27587 37.68C3.22476 38.304 1.64809 37.548 0.752261 35.976C-0.143572 34.416 0.0236495 32.64 1.06282 32.004L12.2906 26.688C13.0073 26.412 13.9509 26.928 14.5003 27.9H14.4764Z" fill="#FDB61C"/>
</g>
<defs>
<clipPath id="clip0_0_575">
<rect width="43" height="48" fill="white"/>
</clipPath>
</defs>
</svg>
