<svg width="49" height="48" viewBox="0 0 49 48" fill="none" xmlns="http://www.w3.org/2000/svg">
<path d="M47.8764 15.2882L44.8647 3.86427C44.8123 3.67328 44.7107 3.49952 44.5701 3.36049C44.4295 3.22146 44.255 3.12205 44.064 3.07227L32.6864 0.0482906C32.5088 -0.0105298 32.3179 -0.015733 32.1373 0.0333252C31.9567 0.0823835 31.7945 0.183548 31.6706 0.324289L24.1055 8.04024L40.0245 24.0241L47.6494 16.3802C47.7705 16.2316 47.8544 16.0559 47.8939 15.868C47.9334 15.68 47.9274 15.4853 47.8764 15.3002V15.2882Z" fill="#82D170"/>
<path d="M0.274734 32.7115L3.28644 44.1355C3.40595 44.5315 3.68083 44.8195 4.08717 44.9275L15.4528 47.9514C15.8591 48.0714 16.2535 47.9514 16.4806 47.6754L24.1055 40.0195L8.17449 24.0236L0.549612 31.6795C0.274734 31.9675 0.155222 32.3635 0.274734 32.7115Z" fill="#F8CF1C"/>
<path d="M15.4055 0.0962869L4.02793 3.13227C3.83695 3.18205 3.66239 3.28146 3.52182 3.42049C3.38126 3.55952 3.27964 3.73327 3.2272 3.92426L0.21549 15.3602C0.155724 15.5414 0.151091 15.7363 0.20218 15.9201C0.25327 16.1039 0.357764 16.2683 0.502319 16.3922L8.175 24.0361L24.106 8.04024L16.4811 0.384285C16.1943 0.0962871 15.7999 -0.0117125 15.4055 0.0962869Z" fill="#C6D636"/>
<path d="M47.5299 31.5595L40.0245 24.0236L24.1055 40.0195L31.6108 47.5554C31.9455 47.9034 32.4594 48.0114 32.9255 47.9034L43.9445 44.9275C44.4106 44.8075 44.805 44.4115 44.9125 43.9675L47.8764 32.8795C47.996 32.4235 47.8764 31.9195 47.5299 31.5595Z" fill="#D57DEA"/>
<path d="M24.1058 8.04025L8.1748 24.0242L24.1058 40.0201L40.0248 24.0242L24.1058 8.04025Z" fill="#7F187F"/>
</svg>
