<svg width="52" height="48" viewBox="0 0 52 48" fill="none" xmlns="http://www.w3.org/2000/svg">
<path fill-rule="evenodd" clip-rule="evenodd" d="M24.2427 20.1207C22.0917 23.7257 20.0247 27.2177 17.9227 30.6807C17.6234 31.0644 17.4312 31.5206 17.3657 32.0028C17.3001 32.4851 17.3636 32.976 17.5497 33.4257C17.9857 34.4726 18.0625 35.6344 17.7682 36.7296C17.4738 37.8247 16.8248 38.7915 15.9227 39.4787C15.3243 39.9351 14.6331 40.2546 13.8977 40.4147C12.8221 40.682 11.6895 40.6028 10.6615 40.1886C9.63353 39.7743 8.76253 39.0461 8.17273 38.1077C7.78205 37.4851 7.52653 36.7874 7.42273 36.0597C7.2833 34.9894 7.47109 33.902 7.9614 32.9405C8.45171 31.979 9.22157 31.1884 10.1697 30.6727C10.7993 30.3298 11.4913 30.1165 12.2047 30.0457C12.4687 30.0087 12.7337 30.0037 13.1657 29.9717L17.9107 22.0537C16.4062 20.7326 15.2291 19.08 14.4725 17.2263C13.7158 15.3725 13.4003 13.3683 13.5507 11.3717C13.7748 8.41935 15.0742 5.65181 17.2027 3.59369C19.2115 1.60528 21.8384 0.361382 24.6495 0.0673948C27.4607 -0.226593 30.288 0.44691 32.6647 1.97669C34.9498 3.40003 36.69 5.55019 37.6057 8.0817C38.5207 10.6127 38.5577 13.3777 37.7107 15.9317L33.3727 14.7607C33.7186 13.4678 33.7408 12.1096 33.4373 10.8061C33.1338 9.50262 32.5141 8.29389 31.6327 7.2867C30.4199 5.92918 28.754 5.05999 26.9467 4.84169C25.143 4.59736 23.3114 5.00519 21.7817 5.99169C20.2526 6.97766 19.1264 8.47801 18.6067 10.2217C17.3947 14.2897 19.2317 17.6167 24.2427 20.1207Z" fill="#B72551"/>
<path fill-rule="evenodd" clip-rule="evenodd" d="M30.3931 15.8554L34.9711 23.9094C37.908 22.8602 41.1297 22.9372 44.0131 24.1254C46.8952 25.313 49.2339 27.528 50.5761 30.3414C51.8141 32.9876 52.0771 35.9861 51.3189 38.8074C50.5606 41.6287 48.8298 44.0914 46.4321 45.7604C44.0173 47.4567 41.0731 48.2284 38.1366 47.9346C35.2002 47.6409 32.4672 46.3014 30.4361 44.1604L33.9701 41.2154C38.4151 44.0824 42.3001 43.9484 45.1831 40.5514C46.3706 39.1379 47.0105 37.3447 46.9861 35.4987C46.9616 33.6528 46.2746 31.8771 45.0501 30.4954C42.1311 27.2204 38.2151 27.1204 33.4811 30.2634C31.5221 26.7934 29.5281 23.3494 27.6301 19.8554C27.383 19.2933 26.9958 18.804 26.5056 18.4342C26.0154 18.0645 25.4385 17.8266 24.8301 17.7434C23.7034 17.5346 22.6836 16.9426 21.9435 16.0678C21.2033 15.193 20.7885 14.0892 20.7691 12.9434C20.7142 11.8364 21.0119 10.7405 21.6192 9.81326C22.2266 8.88606 23.1123 8.17538 24.1491 7.78344C25.1858 7.39057 26.3201 7.3356 27.3899 7.62639C28.4596 7.91718 29.41 8.53884 30.1051 9.40244C30.672 10.0621 31.0549 10.8596 31.2151 11.7144C31.3754 12.5692 31.3075 13.4512 31.0181 14.2714C30.8381 14.7684 30.6201 15.2514 30.3931 15.8424" fill="#52525B"/>
<path fill-rule="evenodd" clip-rule="evenodd" d="M34.0085 37.6467H24.7345C24.3747 39.4127 23.642 41.0814 22.5853 42.5414C21.5287 44.0014 20.1725 45.219 18.6075 46.1127C16.0964 47.5573 13.1593 48.0783 10.3045 47.5857C7.48415 47.1071 4.91642 45.6669 3.03752 43.5097C1.16038 41.3535 0.0887885 38.6133 0.00527768 35.7556C-0.0782331 32.898 0.831501 30.0999 2.57952 27.8377C4.32925 25.5744 6.80872 23.9868 9.59653 23.3447C9.99253 24.7747 10.3975 26.2247 10.7855 27.6417C5.53453 30.3117 3.72152 33.6737 5.18652 37.8817C5.80706 39.6659 7.06542 41.1575 8.71953 42.0697C10.3745 42.9823 12.3082 43.2515 14.1495 42.8257C18.2225 42.0257 20.2765 38.6517 20.0245 33.2377C23.8805 33.2377 27.7485 33.1977 31.6065 33.2567C32.3123 33.3537 33.0312 33.2711 33.6966 33.0166C34.362 32.7621 34.9525 32.3439 35.4135 31.8007C36.1285 31.0516 37.0578 30.5421 38.0739 30.3421C39.0899 30.1421 40.143 30.2615 41.0885 30.6837C41.7165 30.9637 42.2795 31.3697 42.7435 31.8757C43.2272 32.373 43.6074 32.9613 43.8624 33.6064C44.1173 34.2516 44.2419 34.9408 44.2289 35.6344C44.2159 36.328 44.0655 37.0121 43.7865 37.6472C43.5076 38.2824 43.1055 38.8559 42.6035 39.3347C42.1011 39.8139 41.5088 40.1888 40.8607 40.4378C40.2126 40.6869 39.5217 40.8051 38.8277 40.7858C38.1337 40.7664 37.4504 40.6099 36.8172 40.3251C36.184 40.0404 35.6135 39.6331 35.1385 39.1267C34.7295 38.6947 34.4175 38.1817 34.0165 37.6497" fill="#52525B"/>
</svg>
