<svg width="81" height="48" viewBox="0 0 81 48" fill="none" xmlns="http://www.w3.org/2000/svg">
<path fill-rule="evenodd" clip-rule="evenodd" d="M72.1892 0.192322H7.60412C6.63453 0.192319 5.67447 0.383809 4.7789 0.755827C3.88333 1.12785 3.06984 1.67309 2.38501 2.36033C1.70018 3.04757 1.15746 3.86332 0.787922 4.76086C0.418385 5.65841 0.22929 6.62012 0.231464 7.59094V32.3027C0.231461 33.2757 0.423135 34.2391 0.795509 35.1378C1.16788 36.0365 1.71365 36.8529 2.40155 37.5401C3.08945 38.2274 3.90598 38.772 4.80438 39.1429C5.70279 39.5137 6.66543 39.7035 7.63718 39.7013H38.2188L52.2037 47.4972L49.0298 39.7178H72.1727C73.1458 39.72 74.1098 39.5297 75.0093 39.1578C75.9088 38.786 76.7261 38.2398 77.4142 37.5509C78.1023 36.8619 78.6477 36.0435 79.0191 35.1429C79.3905 34.2423 79.5806 33.2771 79.5784 32.3027V7.59094C79.5784 6.61934 79.3873 5.65726 79.0159 4.75961C78.6446 3.86197 78.1003 3.04635 77.4142 2.35933C76.728 1.6723 75.9134 1.12732 75.0169 0.755508C74.1204 0.383693 73.1596 0.192322 72.1892 0.192322ZM6.23208 5.90267C5.83914 5.90697 5.45224 5.99999 5.10019 6.1748C4.74815 6.34962 4.44003 6.60172 4.19881 6.91232C3.97336 7.22448 3.81198 7.57831 3.72402 7.95334C3.63606 8.32837 3.62326 8.71714 3.68636 9.09715C5.60391 21.2627 7.38922 29.4889 9.04228 33.7427C9.68697 35.2985 10.4309 36.0599 11.3235 35.9772C12.679 35.8944 14.299 33.9909 16.2166 30.333C17.2084 28.264 18.7788 25.1358 20.8947 20.9813C22.1015 26.1123 24.5645 30.8627 28.0525 34.8185C28.3628 35.1971 28.7542 35.5008 29.1978 35.7071C29.6414 35.9134 30.1257 36.017 30.6147 36.0103C30.9769 35.9825 31.3257 35.8612 31.6271 35.6581C31.9284 35.4551 32.1719 35.1772 32.3339 34.8516C32.6645 34.1896 32.7968 33.4447 32.7306 32.6999C32.5984 28.562 32.896 24.424 33.6068 20.3192C34.0531 16.2806 35.0945 12.3247 36.7476 8.6006C36.9613 8.20202 37.0759 7.75771 37.0817 7.30534C37.0875 6.85297 36.9842 6.40588 36.7807 6.00198C36.6153 5.68749 36.3674 5.40612 36.0698 5.19094C35.5057 4.71063 34.775 4.4727 34.0366 4.52887C33.5807 4.54772 33.1389 4.69212 32.7598 4.94618C32.3806 5.20025 32.0788 5.55413 31.8876 5.96887C29.8874 9.64336 28.4492 15.602 27.6062 23.8447C26.2307 20.2434 25.2011 16.519 24.5315 12.722C24.1843 10.8185 23.2917 9.90819 21.8866 10.0075C21.3434 10.0825 20.8301 10.3016 20.3999 10.6421C19.9697 10.9826 19.6383 11.4321 19.44 11.944L12.3319 25.4999C11.1747 20.7827 10.0837 15.0392 9.05881 8.25301C9.06267 7.90212 8.98855 7.55476 8.84184 7.23608C8.69512 6.9174 8.47947 6.63538 8.21049 6.41042C7.94152 6.18546 7.62595 6.0232 7.28664 5.93538C6.94733 5.84756 6.59276 5.83639 6.24861 5.90267H6.23208ZM68.7509 8.25301C69.8375 8.45602 70.8655 8.89846 71.7604 9.54829C72.6553 10.1981 73.3946 11.0391 73.9249 12.0103C75.016 13.9634 75.5615 16.1813 75.4788 18.4158C75.5119 21.6599 74.6523 24.8378 72.9496 27.602C72.252 29.0364 71.1734 30.2508 69.8321 31.1121C68.4908 31.9733 66.9386 32.4483 65.3455 32.4847C63.6342 32.4829 61.9633 31.9637 60.5517 30.9951C59.6755 30.333 58.9317 29.5054 58.4027 28.5123C57.3196 26.5437 56.783 24.3204 56.8488 22.0737C56.818 18.8456 57.6944 15.6738 59.378 12.9206C60.0853 11.495 61.1666 10.289 62.5062 9.43178C63.8457 8.57455 65.3929 8.09841 66.9821 8.05439C67.5772 8.05439 68.1723 8.1206 68.7509 8.25301ZM67.3788 25.8144C68.6986 24.5224 69.568 22.8394 69.8584 21.0144C69.9906 20.2199 70.0733 19.4089 70.0733 18.6144C70.0733 17.6047 69.8749 16.5951 69.4947 15.6516C68.9988 14.3937 68.3541 13.6985 67.5772 13.5496C66.42 13.3178 65.2629 13.9634 64.2049 15.5523C62.9076 17.3712 62.2242 19.5574 62.2543 21.7923C62.2709 22.802 62.4692 23.8116 62.8329 24.7551C63.3288 26.013 63.99 26.6916 64.7504 26.8572C65.2424 26.9065 65.7389 26.8377 66.1989 26.6563C66.6589 26.4749 67.0691 26.1863 67.3953 25.8144H67.3788ZM53.5923 12.0268C53.0593 11.0561 52.3194 10.2149 51.4252 9.56267C50.531 8.91046 49.5044 8.46334 48.4182 8.25301C47.8396 8.13715 47.2611 8.07094 46.666 8.05439C45.0722 8.097 43.5204 8.57422 42.1775 9.43464C40.8346 10.2951 39.7517 11.5061 39.0453 12.9372C37.3618 15.6904 36.4853 18.8621 36.5162 22.0903C36.4533 24.3313 36.9898 26.5485 38.07 28.5123C38.5985 29.4866 39.337 30.3308 40.232 30.9835C41.127 31.6363 42.1559 32.0813 43.2441 32.2861C43.8227 32.4185 44.4013 32.4682 44.9964 32.4847C46.595 32.4543 48.1542 31.9822 49.5019 31.1206C50.8496 30.259 51.9333 29.0413 52.6335 27.602C54.314 24.8353 55.19 21.6539 55.1627 18.4158C55.2285 16.1828 54.6856 13.9741 53.5923 12.0268ZM49.5092 21.0144C49.2188 22.8394 48.3494 24.5224 47.0296 25.8144C46.7084 26.1845 46.3044 26.4734 45.8505 26.6575C45.3966 26.8416 44.9057 26.9157 44.4178 26.8737C43.6409 26.7082 42.9962 26.013 42.5002 24.7551C42.1269 23.8116 41.9307 22.8071 41.9217 21.7923C41.8916 19.5574 42.575 17.3712 43.8723 15.5523C44.9302 13.9634 46.0709 13.3178 47.2445 13.533C48.0215 13.6985 48.6662 14.3772 49.1455 15.6516C49.5258 16.5951 49.7241 17.5882 49.7407 18.5978C49.7407 19.4254 49.6745 20.2199 49.5092 21.0144Z" fill="#7F54B3"/>
<path d="M6.24813 5.9027C5.85239 5.90451 5.46224 5.99633 5.10714 6.17124C4.75204 6.34615 4.44128 6.59957 4.19833 6.91235C3.97288 7.22451 3.8115 7.57835 3.72354 7.95337C3.63558 8.3284 3.62278 8.71717 3.68588 9.09718C5.60343 21.2627 7.38874 29.4889 9.0418 33.7427C9.6865 35.2986 10.4304 36.0599 11.323 35.9772C12.6785 35.8944 14.2985 33.991 16.2161 30.333C17.2079 28.2641 18.7783 25.1358 20.8943 20.9813C22.101 26.1124 24.564 30.8627 28.052 34.8186C28.3623 35.1971 28.7538 35.5008 29.1973 35.7071C29.6409 35.9134 30.1252 36.017 30.6143 36.0103C30.9764 35.9826 31.3252 35.8613 31.6266 35.6582C31.9279 35.4551 32.1715 35.1772 32.3334 34.8517C32.664 34.1896 32.7963 33.4448 32.7302 32.6999C32.5979 28.562 32.8955 24.4241 33.6063 20.3192C34.0526 16.2806 35.094 12.3248 36.7471 8.60063C36.9609 8.20205 37.0755 7.75774 37.0812 7.30537C37.087 6.853 36.9837 6.40591 36.7802 6.00201C36.6149 5.68753 36.3669 5.40615 36.0694 5.19097C35.5052 4.71066 34.7745 4.47273 34.0361 4.5289C33.5803 4.54775 33.1384 4.69215 32.7593 4.94621C32.3801 5.20028 32.0783 5.55416 31.8871 5.9689C29.8869 9.64339 28.4487 15.602 27.6057 23.8448C26.2302 20.2434 25.2006 16.519 24.531 12.722C24.1838 10.8186 23.2912 9.90822 21.8861 10.0075C21.3429 10.0825 20.8296 10.3017 20.3994 10.6422C19.9692 10.9827 19.6378 11.4322 19.4396 11.9441L12.3314 25.4999C11.1743 20.7827 10.0832 15.0392 9.05833 8.25304C9.06219 7.90215 8.98808 7.55479 8.84136 7.23611C8.69464 6.91743 8.47899 6.63541 8.21001 6.41045C7.94104 6.18549 7.62547 6.02323 7.28616 5.93541C6.94685 5.84759 6.59228 5.83642 6.24813 5.9027Z" fill="white"/>
<path fill-rule="evenodd" clip-rule="evenodd" d="M53.5918 12.0269C53.0588 11.0562 52.3189 10.2149 51.4247 9.56272C50.5305 8.91052 49.5039 8.46339 48.4177 8.25306C47.8392 8.1372 47.2606 8.071 46.6655 8.05444C45.0718 8.09705 43.5199 8.57427 42.177 9.43469C40.8341 10.2951 39.7512 11.5061 39.0449 12.9372C37.3613 15.6904 36.4849 18.8622 36.5157 22.0903C36.4528 24.3314 36.9893 26.5486 38.0696 28.5124C38.598 29.4866 39.3365 30.3308 40.2315 30.9836C41.1265 31.6364 42.1555 32.0813 43.2437 32.2862C43.8222 32.4186 44.4008 32.4682 44.9959 32.4848C46.5946 32.4543 48.1538 31.9823 49.5014 31.1206C50.8491 30.259 51.9328 29.0414 52.633 27.602C54.3136 24.8353 55.1895 21.6539 55.1622 18.4158C55.228 16.1829 54.6851 13.9742 53.5918 12.0269ZM47.0457 25.831C48.3655 24.539 49.2349 22.8561 49.5253 21.031V21.0144C49.6741 20.22 49.7402 19.4089 49.7402 18.5979C49.7402 17.6048 49.5253 16.5951 49.1451 15.6517C48.6657 14.3772 48.021 13.6986 47.2441 13.5331C46.0869 13.3179 44.9298 13.9634 43.8718 15.5524C42.5745 17.3713 41.8911 19.5575 41.9212 21.7924C41.9212 22.8186 42.1361 23.8117 42.4998 24.7551C42.9957 26.0296 43.6404 26.7082 44.4173 26.8738C44.9066 26.9204 45.3999 26.8502 45.8568 26.669C46.3137 26.4877 46.7211 26.2005 47.0457 25.831ZM68.7504 8.25306C69.8371 8.45608 70.8651 8.89851 71.7599 9.54834C72.6548 10.1982 73.3942 11.0391 73.9245 12.0103C75.0155 13.9634 75.561 16.1813 75.4783 18.4158C75.5114 21.66 74.6518 24.8379 72.9492 27.602C72.2515 29.0364 71.1729 30.2508 69.8316 31.1121C68.4903 31.9734 66.9381 32.4483 65.3451 32.4848C63.6338 32.483 61.9629 31.9637 60.5512 30.9951C59.6751 30.3331 58.9312 29.5055 58.4022 28.5124C57.3191 26.5437 56.7825 24.3204 56.8483 22.0738C56.8175 18.8456 57.694 15.6739 59.3775 12.9207C60.0848 11.4951 61.1662 10.2891 62.5057 9.43183C63.8452 8.5746 65.3925 8.09846 66.9816 8.05444C67.5767 8.05444 68.1718 8.12065 68.7504 8.25306ZM69.8414 20.9979C69.5589 22.8268 68.6952 24.5158 67.3783 25.8144C67.0538 26.184 66.6463 26.4711 66.1894 26.6524C65.7325 26.8337 65.2392 26.9039 64.75 26.8572C63.973 26.6917 63.3283 26.0131 62.8324 24.7551C62.4571 23.8064 62.2609 22.7962 62.2539 21.7758C62.2238 19.5409 62.9072 17.3547 64.2045 15.5358C65.279 13.9634 66.4196 13.3179 67.5767 13.5496C68.3537 13.7151 68.9983 14.3772 69.4943 15.6517C69.8745 16.5951 70.0728 17.6048 70.0728 18.6144C70.0728 19.4089 69.9902 20.22 69.8579 21.0144L69.8414 20.9979Z" fill="white"/>
</svg>
