<svg width="37" height="48" viewBox="0 0 37 48" fill="none" xmlns="http://www.w3.org/2000/svg">
<g clip-path="url(#clip0_0_439)">
<mask id="mask0_0_439" style="mask-type:luminance" maskUnits="userSpaceOnUse" x="0" y="0" width="37" height="48">
<path d="M0.580078 0H36.5801V48H0.580078V0Z" fill="white"/>
</mask>
<g mask="url(#mask0_0_439)">
<path fill-rule="evenodd" clip-rule="evenodd" d="M1.57964 23.4397H4.83964C5.06468 23.4376 5.28384 23.5115 5.46168 23.6494C5.63952 23.7874 5.76564 23.9812 5.81964 24.1997L10.2096 42.0197C10.2696 42.0197 15.0496 24.2197 15.0496 24.2197C15.1696 23.7597 15.5896 23.4397 16.0696 23.4397H21.1296C21.349 23.4381 21.5628 23.5088 21.7381 23.6407C21.9134 23.7726 22.0404 23.9585 22.0996 24.1697L26.8996 42.0997C27.0796 41.9897 31.3296 24.1997 31.3296 24.1997C31.3851 23.9848 31.5106 23.7944 31.6862 23.6586C31.8618 23.5228 32.0776 23.4493 32.2996 23.4497H35.5696C36.2196 23.4497 36.6996 24.0497 36.5296 24.6797L30.5396 47.1397C30.4814 47.3477 30.3573 47.5311 30.1861 47.6627C30.0148 47.7943 29.8056 47.8669 29.5896 47.8697H24.6496C24.4303 47.8713 24.2165 47.8007 24.0412 47.6687C23.8659 47.5368 23.7389 47.3509 23.6796 47.1397C22.8396 44.0297 18.6796 28.2797 18.6796 28.2797C18.6796 28.2797 14.2996 44.0297 13.4496 47.1397C13.3909 47.3493 13.2653 47.534 13.0921 47.6657C12.9188 47.7975 12.7073 47.8691 12.4896 47.8697H7.55964C7.34198 47.8691 7.13047 47.7975 6.95721 47.6657C6.78395 47.534 6.65841 47.3493 6.59964 47.1397L0.609641 24.6697C0.570845 24.5228 0.56673 24.3689 0.597622 24.2202C0.628515 24.0714 0.693567 23.9319 0.787643 23.8126C0.881719 23.6933 1.00224 23.5975 1.13969 23.5328C1.27714 23.4681 1.42776 23.4362 1.57964 23.4397Z" fill="#005CB9"/>
<path fill-rule="evenodd" clip-rule="evenodd" d="M34.1997 16.85C34.5683 16.8433 34.9306 16.7525 35.2588 16.5845C35.587 16.4164 35.8725 16.1756 36.0934 15.8804C36.3144 15.5851 36.4649 15.2433 36.5336 14.8811C36.6023 14.5188 36.5872 14.1456 36.4897 13.79L36.3297 13.23C35.1841 9.40906 32.838 6.05885 29.6391 3.67586C26.4402 1.29288 22.5586 0.00391401 18.5697 0C14.4908 0.00510002 10.5273 1.35369 7.29174 3.83727C4.05621 6.32086 1.72892 9.80112 0.669658 13.74C0.49562 14.3512 0.569022 15.0064 0.874009 15.564C1.179 16.1216 1.69108 16.5368 2.29966 16.72C2.6017 16.8064 2.91791 16.832 3.22991 16.7951C3.54191 16.7582 3.84347 16.6597 4.11704 16.5052C4.39061 16.3508 4.63074 16.1435 4.82347 15.8953C5.0162 15.6472 5.15767 15.3633 5.23966 15.06L5.34966 14.66C6.20442 11.8177 7.95155 9.32606 10.3325 7.55388C12.7134 5.78169 15.6016 4.82311 18.5697 4.82C21.6152 4.82417 24.5741 5.83425 26.9864 7.69325C29.3988 9.55225 31.1295 12.1561 31.9097 15.1C32.0461 15.6055 32.3453 16.0519 32.7611 16.3701C33.1769 16.6883 33.6861 16.8605 34.2097 16.86L34.1997 16.85Z" fill="#F38B00"/>
</g>
</g>
<defs>
<clipPath id="clip0_0_439">
<rect width="37" height="48" fill="white"/>
</clipPath>
</defs>
</svg>
